JonovaCondensed-Regular.ufo
<glyph name="exclam" format="2">
  <advance width="552"/>
  <unicode hex="0021"/>
  <outline>
    <contour>
      <point x="325" y="391" type="line"/>
      <point x="272" y="1434" type="line"/>
      <point x="294" y="1464" type="line"/>
      <point x="419" y="1464" type="line"/>
      <point x="441" y="1434" type="line"/>
      <point x="386" y="391" type="line"/>
    </contour>
    <contour>
      <point x="260" y="66" type="qcurve"/>
      <point x="260" y="106"/>
      <point x="316" y="162"/>
      <point x="356" y="162" type="qcurve"/>
      <point x="396" y="162"/>
      <point x="452" y="106"/>
      <point x="452" y="66" type="qcurve"/>
      <point x="452" y="26"/>
      <point x="396" y="-30"/>
      <point x="356" y="-30" type="qcurve"/>
      <point x="316" y="-30"/>
      <point x="260" y="26"/>
    </contour>
  </outline>
</glyph>
<glyph name="quotedbl" format="2">
  <advance width="736"/>
  <unicode hex="0022"/>
  <outline>
    <contour>
      <point x="165" y="901" type="line"/>
      <point x="105" y="1434" type="line"/>
      <point x="135" y="1464" type="line"/>
      <point x="277" y="1464" type="line"/>
      <point x="307" y="1434" type="line"/>
      <point x="247" y="901" type="line"/>
    </contour>
    <contour>
      <point x="489" y="901" type="line"/>
      <point x="429" y="1434" type="line"/>
      <point x="459" y="1464" type="line"/>
      <point x="601" y="1464" type="line"/>
      <point x="631" y="1434" type="line"/>
      <point x="571" y="901" type="line"/>
    </contour>
  </outline>
</glyph>
<glyph name="numbersign" format="2">
  <advance width="840"/>
  <unicode hex="0023"/>
  <outline>
    <contour>
      <point x="108" y="1004" type="line"/>
      <point x="276" y="1004" type="line"/>
      <point x="337" y="1464" type="line"/>
      <point x="411" y="1446" type="line"/>
      <point x="353" y="1004" type="line"/>
      <point x="557" y="1004" type="line"/>
      <point x="617" y="1464" type="line"/>
      <point x="692" y="1446" type="line"/>
      <point x="633" y="1004" type="line"/>
      <point x="801" y="1004" type="line"/>
      <point x="788" y="902" type="line"/>
      <point x="620" y="902" type="line"/>
      <point x="571" y="533" type="line"/>
      <point x="739" y="533" type="line"/>
      <point x="725" y="431" type="line"/>
      <point x="557" y="431" type="line"/>
      <point x="497" y="-30" type="line"/>
      <point x="422" y="-13" type="line"/>
      <point x="481" y="431" type="line"/>
      <point x="277" y="431" type="line"/>
      <point x="216" y="-30" type="line"/>
      <point x="142" y="-13" type="line"/>
      <point x="200" y="431" type="line"/>
      <point x="33" y="431" type="line"/>
      <point x="47" y="533" type="line"/>
      <point x="214" y="533" type="line"/>
      <point x="263" y="902" type="line"/>
      <point x="95" y="902" type="line"/>
    </contour>
    <contour>
      <point x="290" y="533" type="line"/>
      <point x="494" y="533" type="line"/>
      <point x="543" y="902" type="line"/>
      <point x="339" y="902" type="line"/>
    </contour>
  </outline>
</glyph>
<glyph name="percent" format="2">
  <advance width="1200"/>
  <unicode hex="0025"/>
  <outline>
    <contour>
      <point x="1034" y="1434" type="line"/>
      <point x="265" y="-30" type="line"/>
      <point x="167" y="0" type="line"/>
      <point x="936" y="1464" type="line"/>
    </contour>
    <contour>
      <point x="287" y="1434" type="qcurve"/>
      <point x="328" y="1434"/>
      <point x="404" y="1390"/>
      <point x="464" y="1300"/>
      <point x="500" y="1162"/>
      <point x="500" y="1068" type="qcurve"/>
      <point x="500" y="974"/>
      <point x="464" y="836"/>
      <point x="404" y="746"/>
      <point x="328" y="702"/>
      <point x="287" y="702" type="qcurve"/>
      <point x="248" y="702"/>
      <point x="171" y="746"/>
      <point x="111" y="836"/>
      <point x="75" y="974"/>
      <point x="75" y="1068" type="qcurve"/>
      <point x="75" y="1162"/>
      <point x="111" y="1300"/>
      <point x="171" y="1390"/>
      <point x="248" y="1434"/>
    </contour>
    <contour>
      <point x="287" y="1352" type="qcurve"/>
      <point x="260" y="1352"/>
      <point x="216" y="1324"/>
      <point x="185" y="1258"/>
      <point x="167" y="1149"/>
      <point x="167" y="1068" type="qcurve"/>
      <point x="167" y="987"/>
      <point x="185" y="878"/>
      <point x="216" y="812"/>
      <point x="260" y="784"/>
      <point x="287" y="784" type="qcurve"/>
      <point x="314" y="784"/>
      <point x="359" y="812"/>
      <point x="391" y="878"/>
      <point x="409" y="987"/>
      <point x="409" y="1068" type="qcurve"/>
      <point x="409" y="1149"/>
      <point x="391" y="1258"/>
      <point x="359" y="1324"/>
      <point x="314" y="1352"/>
    </contour>
    <contour>
      <point x="912" y="732" type="qcurve"/>
      <point x="953" y="732"/>
      <point x="1029" y="688"/>
      <point x="1088" y="598"/>
      <point x="1125" y="460"/>
      <point x="1125" y="366" type="qcurve"/>
      <point x="1125" y="272"/>
      <point x="1088" y="134"/>
      <point x="1029" y="44"/>
      <point x="953" y="0"/>
      <point x="912" y="0" type="qcurve"/>
      <point x="872" y="0"/>
      <point x="796" y="44"/>
      <point x="736" y="134"/>
      <point x="700" y="272"/>
      <point x="700" y="366" type="qcurve"/>
      <point x="700" y="460"/>
      <point x="736" y="598"/>
      <point x="796" y="688"/>
      <point x="872" y="732"/>
    </contour>
    <contour>
      <point x="912" y="650" type="qcurve"/>
      <point x="885" y="650"/>
      <point x="841" y="622"/>
      <point x="809" y="556"/>
      <point x="791" y="447"/>
      <point x="791" y="366" type="qcurve"/>
      <point x="791" y="285"/>
      <point x="809" y="176"/>
      <point x="841" y="110"/>
      <point x="885" y="82"/>
      <point x="912" y="82" type="qcurve"/>
      <point x="939" y="82"/>
      <point x="983" y="110"/>
      <point x="1016" y="176"/>
      <point x="1034" y="285"/>
      <point x="1034" y="366" type="qcurve"/>
      <point x="1034" y="447"/>
      <point x="1016" y="556"/>
      <point x="983" y="622"/>
      <point x="939" y="650"/>
    </contour>
  </outline>
</glyph>
<glyph name="parenright" format="2">
  <advance width="736"/>
  <unicode hex="0029"/>
  <outline>
    <contour>
      <point x="102" y="1570" type="line"/>
      <point x="346" y="1412"/>
      <point x="604" y="927"/>
      <point x="604" y="593" type="qcurve"/>
      <point x="604" y="258"/>
      <point x="346" y="-226"/>
      <point x="102" y="-384" type="qcurve"/>
      <point x="82" y="-278" type="line"/>
      <point x="263" y="-130"/>
      <point x="452" y="305"/>
      <point x="452" y="593" type="qcurve"/>
      <point x="452" y="722"/>
      <point x="404" y="971"/>
      <point x="311" y="1196"/>
      <point x="172" y="1390"/>
      <point x="82" y="1464" type="qcurve"/>
    </contour>
  </outline>
</glyph>
<glyph name="asterisk" format="2">
  <advance width="1024"/>
  <unicode hex="002A"/>
  <outline>
    <contour>
      <point x="430" y="1584" type="line"/>
      <point x="594" y="1584" type="line"/>
      <point x="532" y="1263" type="line"/>
      <point x="540" y="1258" type="line"/>
      <point x="787" y="1472" type="line"/>
      <point x="869" y="1330" type="line"/>
      <point x="560" y="1224" type="line"/>
      <point x="560" y="1214" type="line"/>
      <point x="868" y="1106" type="line"/>
      <point x="787" y="964" type="line"/>
      <point x="540" y="1180" type="line"/>
      <point x="532" y="1175" type="line"/>
      <point x="594" y="854" type="line"/>
      <point x="430" y="854" type="line"/>
      <point x="492" y="1175" type="line"/>
      <point x="484" y="1180" type="line"/>
      <point x="237" y="966" type="line"/>
      <point x="155" y="1108" type="line"/>
      <point x="464" y="1214" type="line"/>
      <point x="464" y="1223" type="line"/>
      <point x="155" y="1330" type="line"/>
      <point x="237" y="1472" type="line"/>
      <point x="484" y="1258" type="line"/>
      <point x="492" y="1263" type="line"/>
    </contour>
  </outline>
</glyph>
<glyph name="plus" format="2">
  <advance width="1152"/>
  <unicode hex="002B"/>
  <outline>
    <contour>
      <point x="89" y="426" type="line"/>
      <point x="89" y="548" type="line"/>
      <point x="515" y="548" type="line"/>
      <point x="515" y="974" type="line"/>
      <point x="637" y="974" type="line"/>
      <point x="637" y="548" type="line"/>
      <point x="1063" y="548" type="line"/>
      <point x="1063" y="426" type="line"/>
      <point x="637" y="426" type="line"/>
      <point x="637" y="0" type="line"/>
      <point x="515" y="0" type="line"/>
      <point x="515" y="426" type="line"/>
    </contour>
  </outline>
</glyph>
<glyph name="comma" format="2">
  <advance width="576"/>
  <unicode hex="002C"/>
  <outline>
    <contour>
      <point x="196" y="90" type="line"/>
      <point x="333" y="227" type="line"/>
      <point x="354" y="227" type="line"/>
      <point x="365" y="212"/>
      <point x="391" y="167"/>
      <point x="413" y="106"/>
      <point x="428" y="29"/>
      <point x="428" y="-19" type="qcurve"/>
      <point x="428" y="-79"/>
      <point x="386" y="-187"/>
      <point x="320" y="-281"/>
      <point x="238" y="-359"/>
      <point x="197" y="-389" type="qcurve"/>
      <point x="124" y="-316" type="line"/>
      <point x="148" y="-294"/>
      <point x="196" y="-245"/>
      <point x="233" y="-188"/>
      <point x="256" y="-121"/>
      <point x="256" y="-82" type="qcurve"/>
      <point x="256" y="-55"/>
      <point x="247" y="-15"/>
      <point x="231" y="20"/>
      <point x="209" y="52"/>
      <point x="196" y="70" type="qcurve"/>
    </contour>
  </outline>
</glyph>
<glyph name="hyphen" format="2">
  <advance width="736"/>
  <unicode hex="002D"/>
  <outline>
    <contour>
      <point x="82" y="548" type="line"/>
      <point x="654" y="548" type="line"/>
      <point x="654" y="426" type="line"/>
      <point x="82" y="426" type="line"/>
    </contour>
  </outline>
</glyph>
<glyph name="slash" format="2">
  <advance width="576"/>
  <unicode hex="002F"/>
  <outline>
    <contour>
      <point x="626" y="1569" type="line"/>
      <point x="68" y="-152" type="line"/>
      <point x="-50" y="-134" type="line"/>
      <point x="508" y="1586" type="line"/>
    </contour>
  </outline>
</glyph>
<glyph name="zero" format="2">
  <advance width="840"/>
  <unicode hex="0030"/>
  <outline>
    <contour>
      <point x="420" y="1464" type="qcurve"/>
      <point x="500" y="1464"/>
      <point x="634" y="1371"/>
      <point x="731" y="1185"/>
      <point x="785" y="904"/>
      <point x="785" y="717" type="qcurve"/>
      <point x="785" y="529"/>
      <point x="731" y="249"/>
      <point x="634" y="63"/>
      <point x="500" y="-30"/>
      <point x="420" y="-30" type="qcurve"/>
      <point x="340" y="-30"/>
      <point x="206" y="63"/>
      <point x="110" y="249"/>
      <point x="56" y="529"/>
      <point x="56" y="717" type="qcurve"/>
      <point x="56" y="904"/>
      <point x="110" y="1185"/>
      <point x="206" y="1371"/>
      <point x="340" y="1464"/>
    </contour>
    <contour>
      <point x="420" y="1362" type="qcurve"/>
      <point x="367" y="1362"/>
      <point x="280" y="1281"/>
      <point x="218" y="1120"/>
      <point x="185" y="878"/>
      <point x="185" y="717" type="qcurve"/>
      <point x="185" y="556"/>
      <point x="218" y="314"/>
      <point x="280" y="153"/>
      <point x="367" y="72"/>
      <point x="420" y="72" type="qcurve"/>
      <point x="473" y="72"/>
      <point x="560" y="153"/>
      <point x="622" y="314"/>
      <point x="656" y="556"/>
      <point x="656" y="717" type="qcurve"/>
      <point x="656" y="878"/>
      <point x="622" y="1120"/>
      <point x="560" y="1281"/>
      <point x="473" y="1362"/>
    </contour>
  </outline>
</glyph>
<glyph name="one" format="2">
  <advance width="840"/>
  <unicode hex="0031"/>
  <outline>
    <contour>
      <point x="516" y="1464" type="line"/>
      <point x="516" y="0" type="line"/>
      <point x="395" y="0" type="line"/>
      <point x="395" y="1266" type="line"/>
      <point x="387" y="1266" type="line"/>
      <point x="182" y="1207" type="line"/>
      <point x="168" y="1309" type="line"/>
      <point x="494" y="1464" type="line"/>
    </contour>
  </outline>
</glyph>
<glyph name="two" format="2">
  <advance width="840"/>
  <unicode hex="0032"/>
  <outline>
    <contour>
      <point x="165" y="1309" type="line"/>
      <point x="185" y="1337"/>
      <point x="243" y="1393"/>
      <point x="314" y="1437"/>
      <point x="395" y="1464"/>
      <point x="439" y="1464" type="qcurve"/>
      <point x="498" y="1464"/>
      <point x="604" y="1418"/>
      <point x="683" y="1324"/>
      <point x="729" y="1182"/>
      <point x="729" y="1086" type="qcurve"/>
      <point x="729" y="998"/>
      <point x="666" y="809"/>
      <point x="550" y="583"/>
      <point x="385" y="307"/>
      <point x="282" y="132" type="qcurve"/>
      <point x="282" y="122" type="line"/>
      <point x="747" y="142" type="line"/>
      <point x="728" y="0" type="line"/>
      <point x="115" y="0" type="line"/>
      <point x="115" y="20" type="line"/>
      <point x="207" y="178"/>
      <point x="352" y="430"/>
      <point x="462" y="634"/>
      <point x="538" y="795"/>
      <point x="586" y="929"/>
      <point x="608" y="1042"/>
      <point x="608" y="1095" type="qcurve"/>
      <point x="608" y="1153"/>
      <point x="584" y="1252"/>
      <point x="539" y="1322"/>
      <point x="477" y="1362"/>
      <point x="439" y="1362" type="qcurve"/>
      <point x="379" y="1362"/>
      <point x="284" y="1279"/>
      <point x="242" y="1207" type="qcurve"/>
    </contour>
  </outline>
</glyph>
<glyph name="three" format="2">
  <advance width="840"/>
  <unicode hex="0033"/>
  <outline>
    <contour>
      <point x="174" y="227" type="line"/>
      <point x="191" y="195"/>
      <point x="234" y="139"/>
      <point x="287" y="97"/>
      <point x="350" y="72"/>
      <point x="385" y="72" type="qcurve"/>
      <point x="431" y="72"/>
      <point x="514" y="124"/>
      <point x="575" y="215"/>
      <point x="612" y="339"/>
      <point x="612" y="411" type="qcurve"/>
      <point x="612" y="488"/>
      <point x="578" y="621"/>
      <point x="511" y="720"/>
      <point x="413" y="777"/>
      <point x="349" y="777" type="qcurve"/>
      <point x="280" y="777" type="line"/>
      <point x="294" y="879" type="line"/>
      <point x="357" y="879" type="line"/>
      <point x="391" y="879"/>
      <point x="458" y="917"/>
      <point x="512" y="987"/>
      <point x="546" y="1085"/>
      <point x="546" y="1146" type="qcurve"/>
      <point x="546" y="1191"/>
      <point x="527" y="1269"/>
      <point x="490" y="1328"/>
      <point x="437" y="1362"/>
      <point x="404" y="1362" type="qcurve"/>
      <point x="373" y="1362"/>
      <point x="322" y="1334"/>
      <point x="281" y="1290"/>
      <point x="247" y="1235"/>
      <point x="233" y="1207" type="qcurve"/>
      <point x="157" y="1309" type="line"/>
      <point x="171" y="1330"/>
      <point x="216" y="1384"/>
      <point x="278" y="1431"/>
      <point x="356" y="1464"/>
      <point x="405" y="1464" type="qcurve"/>
      <point x="463" y="1464"/>
      <point x="559" y="1414"/>
      <point x="629" y="1328"/>
      <point x="668" y="1213"/>
      <point x="668" y="1147" type="qcurve"/>
      <point x="668" y="1079"/>
      <point x="632" y="976"/>
      <point x="579" y="901"/>
      <point x="518" y="855"/>
      <point x="494" y="845" type="qcurve"/>
      <point x="494" y="835" type="line"/>
      <point x="512" y="830"/>
      <point x="563" y="804"/>
      <point x="617" y="759"/>
      <point x="671" y="693"/>
      <point x="715" y="603"/>
      <point x="741" y="486"/>
      <point x="741" y="413" type="qcurve"/>
      <point x="741" y="323"/>
      <point x="690" y="162"/>
      <point x="597" y="41"/>
      <point x="466" y="-30"/>
      <point x="385" y="-30" type="qcurve"/>
      <point x="333" y="-30"/>
      <point x="247" y="-5"/>
      <point x="176" y="38"/>
      <point x="120" y="94"/>
      <point x="98" y="125" type="qcurve"/>
    </contour>
  </outline>
</glyph>
<glyph name="four" format="2">
  <advance width="840"/>
  <unicode hex="0034"/>
  <outline>
    <contour>
      <point x="512" y="1464" type="line"/>
      <point x="534" y="1464" type="line"/>
      <point x="633" y="1434" type="line"/>
      <point x="205" y="481" type="line"/>
      <point x="512" y="496" type="line"/>
      <point x="512" y="667" type="line"/>
      <point x="611" y="707" type="line"/>
      <point x="633" y="707" type="line"/>
      <point x="633" y="502" type="line"/>
      <point x="756" y="508" type="line"/>
      <point x="737" y="365" type="line"/>
      <point x="633" y="365" type="line"/>
      <point x="633" y="0" type="line"/>
      <point x="512" y="0" type="line"/>
      <point x="512" y="365" type="line"/>
      <point x="63" y="365" type="line"/>
      <point x="63" y="385" type="line"/>
    </contour>
  </outline>
</glyph>
<glyph name="five" format="2">
  <advance width="840"/>
  <unicode hex="0035"/>
  <outline>
    <contour>
      <point x="137" y="777" type="line"/>
      <point x="137" y="1434" type="line"/>
      <point x="689" y="1434" type="line"/>
      <point x="673" y="1309" type="line"/>
      <point x="258" y="1332" type="line"/>
      <point x="258" y="893" type="line"/>
      <point x="266" y="893" type="line"/>
      <point x="290" y="910"/>
      <point x="364" y="931"/>
      <point x="402" y="931" type="qcurve"/>
      <point x="473" y="931"/>
      <point x="596" y="858"/>
      <point x="686" y="729"/>
      <point x="737" y="552"/>
      <point x="737" y="447" type="qcurve"/>
      <point x="737" y="351"/>
      <point x="689" y="178"/>
      <point x="596" y="47"/>
      <point x="460" y="-30"/>
      <point x="372" y="-30" type="qcurve"/>
      <point x="324" y="-30"/>
      <point x="239" y="-2"/>
      <point x="167" y="42"/>
      <point x="110" y="97"/>
      <point x="92" y="125" type="qcurve"/>
      <point x="168" y="227" type="line"/>
      <point x="182" y="200"/>
      <point x="223" y="145"/>
      <point x="275" y="100"/>
      <point x="338" y="72"/>
      <point x="371" y="72" type="qcurve"/>
      <point x="420" y="72"/>
      <point x="506" y="126"/>
      <point x="570" y="225"/>
      <point x="608" y="363"/>
      <point x="608" y="447" type="qcurve"/>
      <point x="608" y="543"/>
      <point x="566" y="686"/>
      <point x="503" y="781"/>
      <point x="428" y="829"/>
      <point x="395" y="829" type="qcurve"/>
      <point x="349" y="829"/>
      <point x="286" y="803"/>
      <point x="258" y="777" type="qcurve"/>
    </contour>
  </outline>
</glyph>
<glyph name="six" format="2">
  <advance width="840"/>
  <unicode hex="0036"/>
  <outline>
    <contour>
      <point x="644" y="1464" type="qcurve"/>
      <point x="630" y="1362" type="line"/>
      <point x="538" y="1362"/>
      <point x="382" y="1256"/>
      <point x="267" y="1068"/>
      <point x="203" y="811"/>
      <point x="203" y="661" type="qcurve"/>
      <point x="210" y="661" type="line"/>
      <point x="230" y="709"/>
      <point x="283" y="780"/>
      <point x="343" y="827"/>
      <point x="407" y="849"/>
      <point x="439" y="849" type="qcurve"/>
      <point x="511" y="849"/>
      <point x="629" y="785"/>
      <point x="713" y="669"/>
      <point x="759" y="508"/>
      <point x="759" y="412" type="qcurve"/>
      <point x="759" y="308"/>
      <point x="707" y="144"/>
      <point x="618" y="30"/>
      <point x="502" y="-30"/>
      <point x="439" y="-30" type="qcurve"/>
      <point x="373" y="-30"/>
      <point x="245" y="49"/>
      <point x="143" y="209"/>
      <point x="81" y="451"/>
      <point x="81" y="613" type="qcurve"/>
      <point x="81" y="710"/>
      <point x="107" y="912"/>
      <point x="164" y="1101"/>
      <point x="253" y="1268"/>
      <point x="377" y="1392"/>
      <point x="541" y="1464"/>
    </contour>
    <contour>
      <point x="439" y="747" type="qcurve"/>
      <point x="386" y="747"/>
      <point x="305" y="691"/>
      <point x="252" y="601"/>
      <point x="225" y="488"/>
      <point x="225" y="432" type="qcurve"/>
      <point x="225" y="353"/>
      <point x="254" y="221"/>
      <point x="309" y="125"/>
      <point x="388" y="72"/>
      <point x="439" y="72" type="qcurve"/>
      <point x="487" y="72"/>
      <point x="558" y="122"/>
      <point x="606" y="212"/>
      <point x="630" y="337"/>
      <point x="630" y="412" type="qcurve"/>
      <point x="630" y="483"/>
      <point x="606" y="606"/>
      <point x="558" y="696"/>
      <point x="487" y="747"/>
    </contour>
  </outline>
</glyph>
<glyph name="seven" format="2">
  <advance width="840"/>
  <unicode hex="0037"/>
  <outline>
    <contour>
      <point x="128" y="1434" type="line"/>
      <point x="741" y="1434" type="line"/>
      <point x="741" y="1414" type="line"/>
      <point x="319" y="-30" type="line"/>
      <point x="193" y="0" type="line"/>
      <point x="608" y="1302" type="line"/>
      <point x="608" y="1312" type="line"/>
      <point x="110" y="1292" type="line"/>
    </contour>
  </outline>
</glyph>
<glyph name="colon" format="2">
  <advance width="576"/>
  <unicode hex="003A"/>
  <outline>
    <contour>
      <point x="228" y="93" type="qcurve"/>
      <point x="228" y="118"/>
      <point x="247" y="163"/>
      <point x="281" y="197"/>
      <point x="325" y="216"/>
      <point x="351" y="216" type="qcurve"/>
      <point x="376" y="216"/>
      <point x="421" y="197"/>
      <point x="454" y="163"/>
      <point x="474" y="118"/>
      <point x="474" y="93" type="qcurve"/>
      <point x="474" y="68"/>
      <point x="454" y="23"/>
      <point x="421" y="-10"/>
      <point x="376" y="-30"/>
      <point x="351" y="-30" type="qcurve"/>
      <point x="325" y="-30"/>
      <point x="281" y="-10"/>
      <point x="247" y="23"/>
      <point x="228" y="68"/>
    </contour>
    <contour>
      <point x="228" y="881" type="qcurve"/>
      <point x="228" y="906"/>
      <point x="247" y="951"/>
      <point x="281" y="984"/>
      <point x="325" y="1004"/>
      <point x="351" y="1004" type="qcurve"/>
      <point x="376" y="1004"/>
      <point x="421" y="984"/>
      <point x="454" y="951"/>
      <point x="474" y="906"/>
      <point x="474" y="881" type="qcurve"/>
      <point x="474" y="855"/>
      <point x="454" y="811"/>
      <point x="421" y="777"/>
      <point x="376" y="758"/>
      <point x="351" y="758" type="qcurve"/>
      <point x="325" y="758"/>
      <point x="281" y="777"/>
      <point x="247" y="811"/>
      <point x="228" y="855"/>
    </contour>
  </outline>
</glyph>
<glyph name="semicolon" format="2">
  <advance width="576"/>
  <unicode hex="003B"/>
  <outline>
    <contour>
      <point x="228" y="881" type="qcurve"/>
      <point x="228" y="906"/>
      <point x="247" y="951"/>
      <point x="281" y="984"/>
      <point x="325" y="1004"/>
      <point x="351" y="1004" type="qcurve"/>
      <point x="376" y="1004"/>
      <point x="421" y="984"/>
      <point x="454" y="951"/>
      <point x="474" y="906"/>
      <point x="474" y="881" type="qcurve"/>
      <point x="474" y="855"/>
      <point x="454" y="811"/>
      <point x="421" y="777"/>
      <point x="376" y="758"/>
      <point x="351" y="758" type="qcurve"/>
      <point x="325" y="758"/>
      <point x="281" y="777"/>
      <point x="247" y="811"/>
      <point x="228" y="855"/>
    </contour>
    <contour>
      <point x="242" y="79" type="line"/>
      <point x="379" y="216" type="line"/>
      <point x="400" y="216" type="line"/>
      <point x="411" y="201"/>
      <point x="437" y="156"/>
      <point x="459" y="95"/>
      <point x="474" y="18"/>
      <point x="474" y="-30" type="qcurve"/>
      <point x="474" y="-90"/>
      <point x="432" y="-198"/>
      <point x="366" y="-292"/>
      <point x="284" y="-370"/>
      <point x="243" y="-400" type="qcurve"/>
      <point x="170" y="-327" type="line"/>
      <point x="194" y="-305"/>
      <point x="242" y="-256"/>
      <point x="279" y="-199"/>
      <point x="302" y="-132"/>
      <point x="302" y="-93" type="qcurve"/>
      <point x="302" y="-66"/>
      <point x="293" y="-26"/>
      <point x="277" y="9"/>
      <point x="255" y="41"/>
      <point x="242" y="59" type="qcurve"/>
    </contour>
  </outline>
</glyph>
<glyph name="less" format="2">
  <advance width="1152"/>
  <unicode hex="003C"/>
  <outline>
    <contour>
      <point x="334" y="478" type="line"/>
      <point x="990" y="98" type="line"/>
      <point x="967" y="-30" type="line"/>
      <point x="162" y="436" type="line"/>
      <point x="162" y="538" type="line"/>
      <point x="966" y="1004" type="line"/>
      <point x="989" y="876" type="line"/>
      <point x="334" y="498" type="line"/>
    </contour>
  </outline>
</glyph>
<glyph name="question" format="2">
  <advance width="768"/>
  <unicode hex="003F"/>
  <outline>
    <contour>
      <point x="136" y="1309" type="line"/>
      <point x="190" y="1387"/>
      <point x="316" y="1464"/>
      <point x="398" y="1464" type="qcurve"/>
      <point x="440" y="1464"/>
      <point x="529" y="1428"/>
      <point x="601" y="1357"/>
      <point x="647" y="1251"/>
      <point x="647" y="1181" type="qcurve"/>
      <point x="647" y="1116"/>
      <point x="602" y="1008"/>
      <point x="536" y="913"/>
      <point x="458" y="828"/>
      <point x="392" y="743"/>
      <point x="347" y="656"/>
      <point x="347" y="607" type="qcurve"/>
      <point x="347" y="568"/>
      <point x="369" y="514"/>
      <point x="401" y="481"/>
      <point x="435" y="467"/>
      <point x="448" y="467" type="qcurve"/>
      <point x="434" y="365" type="line"/>
      <point x="404" y="365"/>
      <point x="341" y="395"/>
      <point x="289" y="454"/>
      <point x="256" y="541"/>
      <point x="256" y="598" type="qcurve"/>
      <point x="256" y="663"/>
      <point x="297" y="773"/>
      <point x="359" y="871"/>
      <point x="430" y="960"/>
      <point x="491" y="1050"/>
      <point x="533" y="1145"/>
      <point x="533" y="1200" type="qcurve"/>
      <point x="533" y="1237"/>
      <point x="510" y="1297"/>
      <point x="473" y="1339"/>
      <point x="424" y="1362"/>
      <point x="398" y="1362" type="qcurve"/>
      <point x="365" y="1362"/>
      <point x="311" y="1339"/>
      <point x="266" y="1297"/>
      <point x="229" y="1240"/>
      <point x="212" y="1207" type="qcurve"/>
    </contour>
    <contour>
      <point x="302" y="66" type="qcurve"/>
      <point x="302" y="106"/>
      <point x="358" y="162"/>
      <point x="398" y="162" type="qcurve"/>
      <point x="438" y="162"/>
      <point x="494" y="106"/>
      <point x="494" y="66" type="qcurve"/>
      <point x="494" y="26"/>
      <point x="438" y="-30"/>
      <point x="398" y="-30" type="qcurve"/>
      <point x="358" y="-30"/>
      <point x="302" y="26"/>
    </contour>
  </outline>
</glyph>
<glyph name="C" format="2">
  <advance width="1008"/>
  <unicode hex="0043"/>
  <outline>
    <contour>
      <point x="868" y="1112" type="line"/>
      <point x="852" y="1149"/>
      <point x="800" y="1230"/>
      <point x="728" y="1298"/>
      <point x="636" y="1342"/>
      <point x="579" y="1342" type="qcurve"/>
      <point x="512" y="1342"/>
      <point x="380" y="1266"/>
      <point x="272" y="1111"/>
      <point x="206" y="876"/>
      <point x="206" y="717" type="qcurve"/>
      <point x="206" y="558"/>
      <point x="272" y="323"/>
      <point x="380" y="168"/>
      <point x="512" y="92"/>
      <point x="579" y="92" type="qcurve"/>
      <point x="636" y="92"/>
      <point x="728" y="137"/>
      <point x="800" y="205"/>
      <point x="852" y="286"/>
      <point x="868" y="322" type="qcurve"/>
      <point x="956" y="204" type="line"/>
      <point x="923" y="153"/>
      <point x="841" y="68"/>
      <point x="745" y="5"/>
      <point x="638" y="-30"/>
      <point x="579" y="-30" type="qcurve"/>
      <point x="514" y="-30"/>
      <point x="386" y="17"/>
      <point x="271" y="106"/>
      <point x="173" y="236"/>
      <point x="102" y="402"/>
      <point x="62" y="602"/>
      <point x="62" y="717" type="qcurve"/>
      <point x="62" y="832"/>
      <point x="102" y="1032"/>
      <point x="173" y="1198"/>
      <point x="271" y="1328"/>
      <point x="386" y="1417"/>
      <point x="513" y="1464"/>
      <point x="579" y="1464" type="qcurve"/>
      <point x="638" y="1464"/>
      <point x="745" y="1429"/>
      <point x="841" y="1366"/>
      <point x="923" y="1281"/>
      <point x="956" y="1230" type="qcurve"/>
    </contour>
  </outline>
</glyph>
<glyph name="F" format="2">
  <advance width="816"/>
  <unicode hex="0046"/>
  <outline>
    <contour>
      <point x="137" y="1434" type="line"/>
      <point x="740" y="1434" type="line"/>
      <point x="721" y="1292" type="line"/>
      <point x="273" y="1312" type="line"/>
      <point x="273" y="839" type="line"/>
      <point x="659" y="839" type="line"/>
      <point x="643" y="717" type="line"/>
      <point x="273" y="717" type="line"/>
      <point x="273" y="0" type="line"/>
      <point x="137" y="0" type="line"/>
    </contour>
  </outline>
</glyph>
<glyph name="G" format="2">
  <advance width="1200"/>
  <unicode hex="0047"/>
  <outline>
    <contour>
      <point x="665" y="717" type="line"/>
      <point x="1065" y="717" type="line"/>
      <point x="1065" y="206" type="line"/>
      <point x="1025" y="146"/>
      <point x="927" y="58"/>
      <point x="819" y="-1"/>
      <point x="704" y="-30"/>
      <point x="647" y="-30" type="qcurve"/>
      <point x="574" y="-30"/>
      <point x="431" y="19"/>
      <point x="305" y="110"/>
      <point x="197" y="242"/>
      <point x="119" y="408"/>
      <point x="75" y="605"/>
      <point x="75" y="717" type="qcurve"/>
      <point x="75" y="826"/>
      <point x="118" y="1021"/>
      <point x="194" y="1187"/>
      <point x="301" y="1321"/>
      <point x="428" y="1414"/>
      <point x="572" y="1464"/>
      <point x="648" y="1464" type="qcurve"/>
      <point x="714" y="1464"/>
      <point x="839" y="1427"/>
      <point x="947" y="1364"/>
      <point x="1034" y="1279"/>
      <point x="1065" y="1230" type="qcurve"/>
      <point x="978" y="1112" type="line"/>
      <point x="953" y="1159"/>
      <point x="887" y="1243"/>
      <point x="805" y="1306"/>
      <point x="706" y="1342"/>
      <point x="649" y="1342" type="qcurve"/>
      <point x="568" y="1342"/>
      <point x="413" y="1251"/>
      <point x="293" y="1086"/>
      <point x="219" y="856"/>
      <point x="219" y="717" type="qcurve"/>
      <point x="219" y="586"/>
      <point x="286" y="359"/>
      <point x="402" y="189"/>
      <point x="558" y="92"/>
      <point x="647" y="92" type="qcurve"/>
      <point x="690" y="92"/>
      <point x="773" y="113"/>
      <point x="848" y="149"/>
      <point x="908" y="198"/>
      <point x="929" y="227" type="qcurve"/>
      <point x="929" y="595" type="line"/>
      <point x="649" y="595" type="line"/>
    </contour>
  </outline>
</glyph>
<glyph name="H" format="2">
  <advance width="1128"/>
  <unicode hex="0048"/>
  <outline>
    <contour>
      <point x="273" y="1464" type="line"/>
      <point x="273" y="839" type="line"/>
      <point x="855" y="839" type="line"/>
      <point x="855" y="1434" type="line"/>
      <point x="992" y="1464" type="line"/>
      <point x="992" y="0" type="line"/>
      <point x="855" y="0" type="line"/>
      <point x="855" y="717" type="line"/>
      <point x="273" y="717" type="line"/>
      <point x="273" y="0" type="line"/>
      <point x="137" y="0" type="line"/>
      <point x="137" y="1434" type="line"/>
    </contour>
  </outline>
</glyph>
<glyph name="K" format="2">
  <advance width="1008"/>
  <unicode hex="004B"/>
  <outline>
    <contour>
      <point x="265" y="1464" type="line"/>
      <point x="265" y="729" type="line"/>
      <point x="273" y="729" type="line"/>
      <point x="823" y="1464" type="line"/>
      <point x="936" y="1434" type="line"/>
      <point x="484" y="829" type="line"/>
      <point x="969" y="0" type="line"/>
      <point x="813" y="-30" type="line"/>
      <point x="384" y="698" type="line"/>
      <point x="265" y="539" type="line"/>
      <point x="265" y="0" type="line"/>
      <point x="129" y="0" type="line"/>
      <point x="129" y="1434" type="line"/>
    </contour>
  </outline>
</glyph>
<glyph name="L" format="2">
  <advance width="816"/>
  <unicode hex="004C"/>
  <outline>
    <contour>
      <point x="273" y="1464" type="line"/>
      <point x="273" y="122" type="line"/>
      <point x="758" y="142" type="line"/>
      <point x="739" y="0" type="line"/>
      <point x="137" y="0" type="line"/>
      <point x="137" y="1434" type="line"/>
    </contour>
  </outline>
</glyph>
<glyph name="O" format="2">
  <advance width="1200"/>
  <unicode hex="004F"/>
  <outline>
    <contour>
      <point x="75" y="717" type="qcurve"/>
      <point x="75" y="832"/>
      <point x="116" y="1032"/>
      <point x="189" y="1198"/>
      <point x="289" y="1328"/>
      <point x="406" y="1417"/>
      <point x="534" y="1464"/>
      <point x="600" y="1464" type="qcurve"/>
      <point x="666" y="1464"/>
      <point x="794" y="1417"/>
      <point x="911" y="1328"/>
      <point x="1011" y="1198"/>
      <point x="1084" y="1032"/>
      <point x="1125" y="832"/>
      <point x="1125" y="717" type="qcurve"/>
      <point x="1125" y="602"/>
      <point x="1084" y="402"/>
      <point x="1011" y="236"/>
      <point x="911" y="106"/>
      <point x="794" y="17"/>
      <point x="665" y="-30"/>
      <point x="600" y="-30" type="qcurve"/>
      <point x="535" y="-30"/>
      <point x="406" y="17"/>
      <point x="289" y="106"/>
      <point x="189" y="236"/>
      <point x="116" y="402"/>
      <point x="75" y="602"/>
    </contour>
    <contour>
      <point x="219" y="717" type="qcurve"/>
      <point x="219" y="558"/>
      <point x="288" y="323"/>
      <point x="398" y="168"/>
      <point x="533" y="92"/>
      <point x="600" y="92" type="qcurve"/>
      <point x="644" y="92"/>
      <point x="735" y="126"/>
      <point x="820" y="194"/>
      <point x="894" y="297"/>
      <point x="950" y="436"/>
      <point x="981" y="611"/>
      <point x="981" y="717" type="qcurve"/>
      <point x="981" y="823"/>
      <point x="950" y="998"/>
      <point x="894" y="1137"/>
      <point x="820" y="1240"/>
      <point x="735" y="1308"/>
      <point x="644" y="1342"/>
      <point x="600" y="1342" type="qcurve"/>
      <point x="533" y="1342"/>
      <point x="398" y="1266"/>
      <point x="288" y="1111"/>
      <point x="219" y="876"/>
    </contour>
  </outline>
</glyph>
<glyph name="Q" format="2">
  <advance width="1200"/>
  <unicode hex="0051"/>
  <outline>
    <contour>
      <point x="75" y="717" type="qcurve"/>
      <point x="75" y="832"/>
      <point x="116" y="1032"/>
      <point x="189" y="1198"/>
      <point x="289" y="1328"/>
      <point x="406" y="1417"/>
      <point x="534" y="1464"/>
      <point x="600" y="1464" type="qcurve"/>
      <point x="666" y="1464"/>
      <point x="794" y="1417"/>
      <point x="911" y="1328"/>
      <point x="1011" y="1198"/>
      <point x="1084" y="1032"/>
      <point x="1125" y="832"/>
      <point x="1125" y="717" type="qcurve"/>
      <point x="1125" y="593"/>
      <point x="1075" y="380"/>
      <point x="989" y="207"/>
      <point x="875" y="77"/>
      <point x="810" y="36" type="qcurve"/>
      <point x="810" y="26" type="line"/>
      <point x="874" y="5"/>
      <point x="974" y="-59"/>
      <point x="1050" y="-137"/>
      <point x="1105" y="-225"/>
      <point x="1125" y="-271" type="qcurve"/>
      <point x="1038" y="-388" type="line"/>
      <point x="1020" y="-349"/>
      <point x="979" y="-266"/>
      <point x="926" y="-187"/>
      <point x="860" y="-115"/>
      <point x="774" y="-62"/>
      <point x="667" y="-30"/>
      <point x="600" y="-30" type="qcurve"/>
      <point x="535" y="-30"/>
      <point x="406" y="17"/>
      <point x="289" y="106"/>
      <point x="189" y="236"/>
      <point x="116" y="402"/>
      <point x="75" y="602"/>
    </contour>
    <contour>
      <point x="219" y="717" type="qcurve"/>
      <point x="219" y="558"/>
      <point x="288" y="323"/>
      <point x="398" y="168"/>
      <point x="533" y="92"/>
      <point x="600" y="92" type="qcurve"/>
      <point x="644" y="92"/>
      <point x="735" y="126"/>
      <point x="820" y="194"/>
      <point x="894" y="297"/>
      <point x="950" y="436"/>
      <point x="981" y="611"/>
      <point x="981" y="717" type="qcurve"/>
      <point x="981" y="823"/>
      <point x="950" y="998"/>
      <point x="894" y="1137"/>
      <point x="820" y="1240"/>
      <point x="735" y="1308"/>
      <point x="644" y="1342"/>
      <point x="600" y="1342" type="qcurve"/>
      <point x="533" y="1342"/>
      <point x="398" y="1266"/>
      <point x="288" y="1111"/>
      <point x="219" y="876"/>
    </contour>
  </outline>
</glyph>
<glyph name="S" format="2">
  <advance width="864"/>
  <unicode hex="0053"/>
  <outline>
    <contour>
      <point x="762" y="1230" type="qcurve"/>
      <point x="674" y="1113" type="line"/>
      <point x="659" y="1159"/>
      <point x="610" y="1242"/>
      <point x="548" y="1305"/>
      <point x="476" y="1342"/>
      <point x="439" y="1342" type="qcurve"/>
      <point x="405" y="1342"/>
      <point x="347" y="1308"/>
      <point x="302" y="1249"/>
      <point x="277" y="1170"/>
      <point x="277" y="1126" type="qcurve"/>
      <point x="277" y="1061"/>
      <point x="313" y="968"/>
      <point x="371" y="900"/>
      <point x="446" y="852"/>
      <point x="484" y="833" type="qcurve"/>
      <point x="542" y="804"/>
      <point x="653" y="727"/>
      <point x="737" y="622"/>
      <point x="789" y="486"/>
      <point x="789" y="398" type="qcurve"/>
      <point x="789" y="315"/>
      <point x="737" y="161"/>
      <point x="643" y="42"/>
      <point x="512" y="-30"/>
      <point x="433" y="-30" type="qcurve"/>
      <point x="367" y="-30"/>
      <point x="260" y="12"/>
      <point x="172" y="78"/>
      <point x="103" y="162"/>
      <point x="75" y="204" type="qcurve"/>
      <point x="163" y="322" type="line"/>
      <point x="180" y="283"/>
      <point x="228" y="202"/>
      <point x="293" y="135"/>
      <point x="374" y="92"/>
      <point x="425" y="92" type="qcurve"/>
      <point x="476" y="92"/>
      <point x="557" y="139"/>
      <point x="614" y="213"/>
      <point x="645" y="305"/>
      <point x="645" y="351" type="qcurve"/>
      <point x="645" y="409"/>
      <point x="622" y="499"/>
      <point x="569" y="573"/>
      <point x="481" y="636"/>
      <point x="417" y="668" type="qcurve"/>
      <point x="353" y="699"/>
      <point x="251" y="779"/>
      <point x="179" y="882"/>
      <point x="140" y="1014"/>
      <point x="140" y="1097" type="qcurve"/>
      <point x="140" y="1173"/>
      <point x="188" y="1307"/>
      <point x="269" y="1407"/>
      <point x="377" y="1464"/>
      <point x="440" y="1464" type="qcurve"/>
      <point x="500" y="1464"/>
      <point x="602" y="1420"/>
      <point x="683" y="1351"/>
      <point x="743" y="1268"/>
    </contour>
  </outline>
</glyph>
<glyph name="X" format="2">
  <advance width="936"/>
  <unicode hex="0058"/>
  <outline>
    <contour>
      <point x="445" y="600" type="line"/>
      <point x="149" y="-30" type="line"/>
      <point x="54" y="0" type="line"/>
      <point x="390" y="717" type="line"/>
      <point x="54" y="1434" type="line"/>
      <point x="204" y="1464" type="line"/>
      <point x="465" y="892" type="line"/>
      <point x="473" y="892" type="line"/>
      <point x="740" y="1464" type="line"/>
      <point x="836" y="1434" type="line"/>
      <point x="527" y="775" type="line"/>
      <point x="890" y="0" type="line"/>
      <point x="740" y="-30" type="line"/>
      <point x="452" y="600" type="line"/>
    </contour>
  </outline>
</glyph>
<glyph name="bracketleft" format="2">
  <advance width="736"/>
  <unicode hex="005B"/>
  <outline>
    <contour>
      <point x="274" y="1566" type="line"/>
      <point x="654" y="1566" type="line"/>
      <point x="636" y="1464" type="line"/>
      <point x="416" y="1464" type="line"/>
      <point x="416" y="-74" type="line"/>
      <point x="636" y="-74" type="line"/>
      <point x="654" y="-176" type="line"/>
      <point x="274" y="-176" type="line"/>
    </contour>
  </outline>
</glyph>
<glyph name="grave" format="2">
  <advance width="568"/>
  <unicode hex="0060"/>
  <outline>
    <contour>
      <point x="439" y="1116" type="line"/>
      <point x="73" y="1404" type="line"/>
      <point x="73" y="1434" type="line"/>
      <point x="155" y="1521" type="line"/>
      <point x="185" y="1521" type="line"/>
      <point x="496" y="1176" type="line"/>
    </contour>
  </outline>
</glyph>
<glyph name="e" format="2">
  <advance width="768"/>
  <unicode hex="0065"/>
  <outline>
    <contour>
      <point x="183" y="487" type="line"/>
      <point x="183" y="373"/>
      <point x="226" y="215"/>
      <point x="296" y="116"/>
      <point x="385" y="72"/>
      <point x="431" y="72" type="qcurve"/>
      <point x="467" y="72"/>
      <point x="529" y="103"/>
      <point x="577" y="149"/>
      <point x="613" y="204"/>
      <point x="623" y="227" type="qcurve"/>
      <point x="699" y="125" type="line"/>
      <point x="687" y="106"/>
      <point x="638" y="53"/>
      <point x="568" y="4"/>
      <point x="479" y="-30"/>
      <point x="428" y="-30" type="qcurve"/>
      <point x="344" y="-30"/>
      <point x="207" y="39"/>
      <point x="109" y="174"/>
      <point x="54" y="375"/>
      <point x="54" y="507" type="qcurve"/>
      <point x="54" y="617"/>
      <point x="110" y="800"/>
      <point x="206" y="931"/>
      <point x="332" y="1004"/>
      <point x="403" y="1004" type="qcurve"/>
      <point x="466" y="1004"/>
      <point x="581" y="944"/>
      <point x="669" y="817"/>
      <point x="722" y="622"/>
      <point x="722" y="487" type="qcurve"/>
    </contour>
    <contour>
      <point x="608" y="589" type="line"/>
      <point x="608" y="649"/>
      <point x="578" y="762"/>
      <point x="524" y="849"/>
      <point x="446" y="902"/>
      <point x="397" y="902" type="qcurve"/>
      <point x="350" y="902"/>
      <point x="275" y="853"/>
      <point x="219" y="769"/>
      <point x="186" y="655"/>
      <point x="183" y="589" type="qcurve"/>
    </contour>
  </outline>
</glyph>
<glyph name="f" format="2">
  <advance width="552"/>
  <unicode hex="0066"/>
  <outline>
    <contour>
      <point x="75" y="1004" type="line"/>
      <point x="188" y="1004" type="line"/>
      <point x="188" y="1106"/>
      <point x="215" y="1258"/>
      <point x="262" y="1367"/>
      <point x="329" y="1437"/>
      <point x="409" y="1478"/>
      <point x="502" y="1494"/>
      <point x="552" y="1494" type="qcurve"/>
      <point x="539" y="1392" type="line"/>
      <point x="488" y="1392"/>
      <point x="404" y="1364"/>
      <point x="344" y="1290"/>
      <point x="310" y="1164"/>
      <point x="310" y="1066" type="qcurve"/>
      <point x="310" y="1004" type="line"/>
      <point x="488" y="1004" type="line"/>
      <point x="470" y="872" type="line"/>
      <point x="310" y="886" type="line"/>
      <point x="310" y="0" type="line"/>
      <point x="188" y="0" type="line"/>
      <point x="188" y="893" type="line"/>
      <point x="62" y="902" type="line"/>
    </contour>
  </outline>
</glyph>
<glyph name="k" format="2">
  <advance width="768"/>
  <unicode hex="006B"/>
  <outline>
    <contour>
      <point x="737" y="0" type="line"/>
      <point x="602" y="-30" type="line"/>
      <point x="363" y="549" type="line"/>
      <point x="356" y="549" type="line"/>
      <point x="236" y="389" type="line"/>
      <point x="236" y="0" type="line"/>
      <point x="114" y="0" type="line"/>
      <point x="114" y="1464" type="line"/>
      <point x="213" y="1494" type="line"/>
      <point x="236" y="1494" type="line"/>
      <point x="236" y="565" type="line"/>
      <point x="243" y="565" type="line"/>
      <point x="573" y="1004" type="line"/>
      <point x="674" y="974" type="line"/>
      <point x="447" y="670" type="line"/>
    </contour>
  </outline>
</glyph>
<glyph name="l" format="2">
  <advance width="432"/>
  <unicode hex="006C"/>
  <outline>
    <contour>
      <point x="155" y="1464" type="line"/>
      <point x="254" y="1494" type="line"/>
      <point x="277" y="1494" type="line"/>
      <point x="277" y="293" type="line"/>
      <point x="277" y="226"/>
      <point x="300" y="140"/>
      <point x="336" y="91"/>
      <point x="379" y="72"/>
      <point x="398" y="72" type="qcurve"/>
      <point x="384" y="-30" type="line"/>
      <point x="341" y="-30"/>
      <point x="259" y="0"/>
      <point x="194" y="75"/>
      <point x="155" y="202"/>
      <point x="155" y="300" type="qcurve"/>
    </contour>
  </outline>
</glyph>
<glyph name="m" format="2">
  <advance width="1248"/>
  <unicode hex="006D"/>
  <outline>
    <contour>
      <point x="107" y="944" type="line"/>
      <point x="206" y="974" type="line"/>
      <point x="228" y="974" type="line"/>
      <point x="228" y="838" type="line"/>
      <point x="236" y="838" type="line"/>
      <point x="261" y="882"/>
      <point x="311" y="945"/>
      <point x="367" y="985"/>
      <point x="429" y="1004"/>
      <point x="465" y="1004" type="qcurve"/>
      <point x="505" y="1004"/>
      <point x="570" y="977"/>
      <point x="622" y="930"/>
      <point x="659" y="865"/>
      <point x="671" y="828" type="qcurve"/>
      <point x="679" y="828" type="line"/>
      <point x="704" y="872"/>
      <point x="756" y="938"/>
      <point x="812" y="982"/>
      <point x="876" y="1004"/>
      <point x="914" y="1004" type="qcurve"/>
      <point x="954" y="1004"/>
      <point x="1035" y="969"/>
      <point x="1100" y="898"/>
      <point x="1142" y="789"/>
      <point x="1142" y="716" type="qcurve"/>
      <point x="1142" y="197" type="line"/>
      <point x="1142" y="131"/>
      <point x="1168" y="72"/>
      <point x="1200" y="72" type="qcurve"/>
      <point x="1187" y="-30" type="line"/>
      <point x="1105" y="-30"/>
      <point x="1020" y="98"/>
      <point x="1020" y="227" type="qcurve"/>
      <point x="1020" y="696" type="line"/>
      <point x="1020" y="744"/>
      <point x="1001" y="820"/>
      <point x="967" y="874"/>
      <point x="920" y="902"/>
      <point x="893" y="902" type="qcurve"/>
      <point x="860" y="902"/>
      <point x="804" y="872"/>
      <point x="755" y="817"/>
      <point x="708" y="742"/>
      <point x="685" y="697" type="qcurve"/>
      <point x="685" y="0" type="line"/>
      <point x="563" y="0" type="line"/>
      <point x="563" y="716" type="line"/>
      <point x="563" y="749"/>
      <point x="546" y="816"/>
      <point x="515" y="869"/>
      <point x="470" y="902"/>
      <point x="443" y="902" type="qcurve"/>
      <point x="407" y="902"/>
      <point x="348" y="871"/>
      <point x="298" y="817"/>
      <point x="251" y="741"/>
      <point x="228" y="696" type="qcurve"/>
      <point x="228" y="0" type="line"/>
      <point x="107" y="0" type="line"/>
    </contour>
  </outline>
</glyph>
<glyph name="n" format="2">
  <advance width="840"/>
  <unicode hex="006E"/>
  <outline>
    <contour>
      <point x="728" y="197" type="line"/>
      <point x="728" y="131"/>
      <point x="754" y="72"/>
      <point x="786" y="72" type="qcurve"/>
      <point x="773" y="-30" type="line"/>
      <point x="724" y="-30"/>
      <point x="660" y="11"/>
      <point x="622" y="82"/>
      <point x="606" y="175"/>
      <point x="606" y="227" type="qcurve"/>
      <point x="606" y="687" type="line"/>
      <point x="606" y="790"/>
      <point x="533" y="902"/>
      <point x="464" y="902" type="qcurve"/>
      <point x="394" y="902"/>
      <point x="284" y="797"/>
      <point x="236" y="697" type="qcurve"/>
      <point x="236" y="0" type="line"/>
      <point x="114" y="0" type="line"/>
      <point x="114" y="944" type="line"/>
      <point x="213" y="974" type="line"/>
      <point x="236" y="974" type="line"/>
      <point x="236" y="837" type="line"/>
      <point x="243" y="837" type="line"/>
      <point x="296" y="925"/>
      <point x="413" y="1004"/>
      <point x="482" y="1004" type="qcurve"/>
      <point x="536" y="1004"/>
      <point x="626" y="963"/>
      <point x="692" y="887"/>
      <point x="728" y="776"/>
      <point x="728" y="707" type="qcurve"/>
    </contour>
  </outline>
</glyph>
<glyph name="o" format="2">
  <advance width="840"/>
  <unicode hex="006F"/>
  <outline>
    <contour>
      <point x="420" y="1004" type="qcurve"/>
      <point x="500" y="1004"/>
      <point x="635" y="926"/>
      <point x="732" y="788"/>
      <point x="786" y="598"/>
      <point x="786" y="487" type="qcurve"/>
      <point x="786" y="376"/>
      <point x="732" y="186"/>
      <point x="635" y="48"/>
      <point x="500" y="-30"/>
      <point x="420" y="-30" type="qcurve"/>
      <point x="340" y="-30"/>
      <point x="206" y="48"/>
      <point x="108" y="186"/>
      <point x="54" y="375"/>
      <point x="54" y="487" type="qcurve"/>
      <point x="54" y="598"/>
      <point x="108" y="788"/>
      <point x="206" y="926"/>
      <point x="340" y="1004"/>
    </contour>
    <contour>
      <point x="420" y="902" type="qcurve"/>
      <point x="367" y="902"/>
      <point x="279" y="837"/>
      <point x="217" y="724"/>
      <point x="183" y="573"/>
      <point x="183" y="487" type="qcurve"/>
      <point x="183" y="400"/>
      <point x="217" y="249"/>
      <point x="279" y="137"/>
      <point x="367" y="72"/>
      <point x="420" y="72" type="qcurve"/>
      <point x="473" y="72"/>
      <point x="561" y="137"/>
      <point x="623" y="249"/>
      <point x="657" y="401"/>
      <point x="657" y="487" type="qcurve"/>
      <point x="657" y="573"/>
      <point x="623" y="724"/>
      <point x="561" y="837"/>
      <point x="473" y="902"/>
    </contour>
  </outline>
</glyph>
<glyph name="q" format="2">
  <advance width="840"/>
  <unicode hex="0071"/>
  <outline>
    <contour>
      <point x="620" y="784" type="line"/>
      <point x="584" y="835"/>
      <point x="488" y="902"/>
      <point x="434" y="902" type="qcurve"/>
      <point x="398" y="902"/>
      <point x="313" y="860"/>
      <point x="239" y="762"/>
      <point x="191" y="602"/>
      <point x="191" y="485" type="qcurve"/>
      <point x="191" y="387"/>
      <point x="231" y="233"/>
      <point x="297" y="127"/>
      <point x="382" y="72"/>
      <point x="426" y="72" type="qcurve"/>
      <point x="461" y="72"/>
      <point x="519" y="93"/>
      <point x="568" y="126"/>
      <point x="605" y="168"/>
      <point x="620" y="189" type="qcurve"/>
    </contour>
    <contour>
      <point x="741" y="-460" type="line"/>
      <point x="642" y="-490" type="line"/>
      <point x="620" y="-490" type="line"/>
      <point x="620" y="72" type="line"/>
      <point x="612" y="72" type="line"/>
      <point x="596" y="53"/>
      <point x="550" y="16"/>
      <point x="497" y="-13"/>
      <point x="436" y="-30"/>
      <point x="403" y="-30" type="qcurve"/>
      <point x="333" y="-30"/>
      <point x="209" y="46"/>
      <point x="116" y="183"/>
      <point x="62" y="372"/>
      <point x="62" y="486" type="qcurve"/>
      <point x="62" y="617"/>
      <point x="122" y="811"/>
      <point x="224" y="940"/>
      <point x="356" y="1004"/>
      <point x="426" y="1004" type="qcurve"/>
      <point x="458" y="1004"/>
      <point x="524" y="986"/>
      <point x="599" y="937"/>
      <point x="686" y="851"/>
      <point x="741" y="784" type="qcurve"/>
    </contour>
  </outline>
</glyph>
<glyph name="t" format="2">
  <advance width="552"/>
  <unicode hex="0074"/>
  <outline>
    <contour>
      <point x="310" y="1322" type="line"/>
      <point x="310" y="1004" type="line"/>
      <point x="488" y="1004" type="line"/>
      <point x="470" y="872" type="line"/>
      <point x="310" y="886" type="line"/>
      <point x="310" y="297" type="line"/>
      <point x="310" y="240"/>
      <point x="323" y="155"/>
      <point x="359" y="99"/>
      <point x="422" y="72"/>
      <point x="472" y="72" type="qcurve"/>
      <point x="458" y="-30" type="line"/>
      <point x="378" y="-30"/>
      <point x="274" y="8"/>
      <point x="213" y="92"/>
      <point x="188" y="228"/>
      <point x="188" y="326" type="qcurve"/>
      <point x="188" y="893" type="line"/>
      <point x="62" y="902" type="line"/>
      <point x="75" y="1004" type="line"/>
      <point x="188" y="1004" type="line"/>
      <point x="188" y="1292" type="line"/>
      <point x="287" y="1322" type="line"/>
    </contour>
  </outline>
</glyph>
<glyph name="v" format="2">
  <advance width="768"/>
  <unicode hex="0076"/>
  <outline>
    <contour>
      <point x="174" y="1004" type="line"/>
      <point x="404" y="230" type="line"/>
      <point x="412" y="230" type="line"/>
      <point x="642" y="1004" type="line"/>
      <point x="725" y="974" type="line"/>
      <point x="430" y="0" type="line"/>
      <point x="338" y="0" type="line"/>
      <point x="44" y="974" type="line"/>
    </contour>
  </outline>
</glyph>
<glyph name="w" format="2">
  <advance width="1080"/>
  <unicode hex="0077"/>
  <outline>
    <contour>
      <point x="1038" y="974" type="line"/>
      <point x="800" y="0" type="line"/>
      <point x="709" y="0" type="line"/>
      <point x="544" y="678" type="line"/>
      <point x="536" y="678" type="line"/>
      <point x="371" y="0" type="line"/>
      <point x="280" y="0" type="line"/>
      <point x="42" y="974" type="line"/>
      <point x="173" y="1004" type="line"/>
      <point x="345" y="269" type="line"/>
      <point x="353" y="269" type="line"/>
      <point x="517" y="974" type="line"/>
      <point x="608" y="974" type="line"/>
      <point x="774" y="269" type="line"/>
      <point x="782" y="269" type="line"/>
      <point x="953" y="1004" type="line"/>
    </contour>
  </outline>
</glyph>
<glyph name="z" format="2">
  <advance width="720"/>
  <unicode hex="007A"/>
  <outline>
    <contour>
      <point x="54" y="25" type="line"/>
      <point x="501" y="866" type="line"/>
      <point x="501" y="876" type="line"/>
      <point x="116" y="849" type="line"/>
      <point x="132" y="974" type="line"/>
      <point x="663" y="974" type="line"/>
      <point x="663" y="949" type="line"/>
      <point x="215" y="105" type="line"/>
      <point x="215" y="95" type="line"/>
      <point x="663" y="125" type="line"/>
      <point x="647" y="0" type="line"/>
      <point x="54" y="0" type="line"/>
    </contour>
  </outline>
</glyph>
<glyph name="braceleft" format="2">
  <advance width="736"/>
  <unicode hex="007B"/>
  <outline>
    <contour>
      <point x="636" y="1434" type="line"/>
      <point x="573" y="1434"/>
      <point x="499" y="1409"/>
      <point x="461" y="1355"/>
      <point x="450" y="1268"/>
      <point x="450" y="1207" type="qcurve"/>
      <point x="450" y="1044" type="line"/>
      <point x="450" y="976"/>
      <point x="433" y="852"/>
      <point x="382" y="751"/>
      <point x="289" y="680"/>
      <point x="213" y="665" type="qcurve"/>
      <point x="289" y="650"/>
      <point x="382" y="579"/>
      <point x="433" y="478"/>
      <point x="450" y="354"/>
      <point x="450" y="286" type="qcurve"/>
      <point x="450" y="111" type="line"/>
      <point x="450" y="49"/>
      <point x="461" y="-33"/>
      <point x="499" y="-83"/>
      <point x="573" y="-104"/>
      <point x="636" y="-104" type="qcurve"/>
      <point x="654" y="-206" type="line"/>
      <point x="568" y="-206"/>
      <point x="439" y="-180"/>
      <point x="352" y="-112"/>
      <point x="308" y="2"/>
      <point x="308" y="91" type="qcurve"/>
      <point x="308" y="266" type="line"/>
      <point x="308" y="342"/>
      <point x="298" y="470"/>
      <point x="252" y="562"/>
      <point x="157" y="614"/>
      <point x="72" y="614" type="qcurve"/>
      <point x="72" y="716" type="line"/>
      <point x="159" y="716"/>
      <point x="254" y="768"/>
      <point x="299" y="860"/>
      <point x="308" y="988"/>
      <point x="308" y="1064" type="qcurve"/>
      <point x="308" y="1229" type="line"/>
      <point x="308" y="1317"/>
      <point x="352" y="1436"/>
      <point x="439" y="1506"/>
      <point x="568" y="1536"/>
      <point x="654" y="1536" type="qcurve"/>
    </contour>
  </outline>
</glyph>
<glyph name="asciitilde" format="2">
  <advance width="1248"/>
  <unicode hex="007E"/>
  <outline>
    <contour>
      <point x="108" y="407" type="line"/>
      <point x="108" y="435"/>
      <point x="144" y="515"/>
      <point x="214" y="589"/>
      <point x="316" y="641"/>
      <point x="383" y="641" type="qcurve"/>
      <point x="438" y="641"/>
      <point x="529" y="614"/>
      <point x="609" y="573"/>
      <point x="680" y="525"/>
      <point x="750" y="484"/>
      <point x="823" y="457"/>
      <point x="864" y="457" type="qcurve"/>
      <point x="906" y="457"/>
      <point x="970" y="489"/>
      <point x="1015" y="541"/>
      <point x="1038" y="607"/>
      <point x="1038" y="641" type="qcurve"/>
      <point x="1068" y="641" type="line"/>
      <point x="1140" y="569" type="line"/>
      <point x="1140" y="541"/>
      <point x="1104" y="461"/>
      <point x="1034" y="387"/>
      <point x="930" y="335"/>
      <point x="863" y="335" type="qcurve"/>
      <point x="804" y="335"/>
      <point x="712" y="362"/>
      <point x="635" y="403"/>
      <point x="567" y="451"/>
      <point x="499" y="492"/>
      <point x="426" y="519"/>
      <point x="382" y="519" type="qcurve"/>
      <point x="341" y="519"/>
      <point x="277" y="487"/>
      <point x="233" y="435"/>
      <point x="210" y="369"/>
      <point x="210" y="335" type="qcurve"/>
      <point x="180" y="335" type="line"/>
    </contour>
  </outline>
</glyph>
<glyph name="section" format="2">
  <advance width="768"/>
  <unicode hex="00A7"/>
  <outline>
    <contour>
      <point x="619" y="-184" type="qcurve"/>
      <point x="619" y="-251"/>
      <point x="590" y="-363"/>
      <point x="533" y="-444"/>
      <point x="449" y="-490"/>
      <point x="395" y="-490" type="qcurve"/>
      <point x="357" y="-490"/>
      <point x="288" y="-465"/>
      <point x="227" y="-423"/>
      <point x="176" y="-367"/>
      <point x="156" y="-335" type="qcurve"/>
      <point x="232" y="-233" type="line"/>
      <point x="244" y="-265"/>
      <point x="278" y="-321"/>
      <point x="320" y="-363"/>
      <point x="368" y="-388"/>
      <point x="395" y="-388" type="qcurve"/>
      <point x="419" y="-388"/>
      <point x="459" y="-363"/>
      <point x="488" y="-319"/>
      <point x="505" y="-258"/>
      <point x="505" y="-222" type="qcurve"/>
      <point x="505" y="-159"/>
      <point x="473" y="-64"/>
      <point x="420" y="13"/>
      <point x="353" y="78"/>
      <point x="282" y="144"/>
      <point x="215" y="218"/>
      <point x="162" y="313"/>
      <point x="130" y="435"/>
      <point x="130" y="516" type="qcurve"/>
      <point x="130" y="575"/>
      <point x="155" y="671"/>
      <point x="200" y="751"/>
      <point x="258" y="815"/>
      <point x="292" y="842" type="qcurve"/>
      <point x="251" y="896"/>
      <point x="197" y="1053"/>
      <point x="197" y="1158" type="qcurve"/>
      <point x="197" y="1225"/>
      <point x="229" y="1337"/>
      <point x="287" y="1418"/>
      <point x="370" y="1464"/>
      <point x="422" y="1464" type="qcurve"/>
      <point x="499" y="1464"/>
      <point x="617" y="1378"/>
      <point x="660" y="1309" type="qcurve"/>
      <point x="584" y="1207" type="line"/>
      <point x="575" y="1234"/>
      <point x="542" y="1289"/>
      <point x="500" y="1334"/>
      <point x="449" y="1362"/>
      <point x="422" y="1362" type="qcurve"/>
      <point x="398" y="1362"/>
      <point x="357" y="1337"/>
      <point x="328" y="1293"/>
      <point x="311" y="1232"/>
      <point x="311" y="1196" type="qcurve"/>
      <point x="311" y="1133"/>
      <point x="344" y="1038"/>
      <point x="396" y="961"/>
      <point x="464" y="896"/>
      <point x="534" y="830"/>
      <point x="602" y="756"/>
      <point x="654" y="661"/>
      <point x="686" y="539"/>
      <point x="686" y="458" type="qcurve"/>
      <point x="686" y="399"/>
      <point x="661" y="302"/>
      <point x="617" y="222"/>
      <point x="557" y="158"/>
      <point x="524" y="131" type="qcurve"/>
      <point x="565" y="77"/>
      <point x="619" y="-79"/>
    </contour>
    <contour>
      <point x="251" y="547" type="qcurve"/>
      <point x="251" y="483"/>
      <point x="290" y="388"/>
      <point x="350" y="310"/>
      <point x="427" y="239"/>
      <point x="464" y="200" type="qcurve"/>
      <point x="514" y="236"/>
      <point x="565" y="352"/>
      <point x="565" y="427" type="qcurve"/>
      <point x="565" y="491"/>
      <point x="527" y="586"/>
      <point x="466" y="664"/>
      <point x="389" y="735"/>
      <point x="352" y="774" type="qcurve"/>
      <point x="302" y="738"/>
      <point x="251" y="622"/>
    </contour>
  </outline>
</glyph>
<glyph name="dieresis" format="2">
  <advance width="568"/>
  <unicode hex="00A8"/>
  <outline>
    <contour>
      <point x="-24" y="1280" type="qcurve"/>
      <point x="-24" y="1299"/>
      <point x="-8" y="1335"/>
      <point x="19" y="1362"/>
      <point x="55" y="1378"/>
      <point x="76" y="1378" type="qcurve"/>
      <point x="96" y="1378"/>
      <point x="133" y="1362"/>
      <point x="161" y="1335"/>
      <point x="178" y="1299"/>
      <point x="178" y="1280" type="qcurve"/>
      <point x="178" y="1259"/>
      <point x="161" y="1221"/>
      <point x="133" y="1192"/>
      <point x="96" y="1176"/>
      <point x="76" y="1176" type="qcurve"/>
      <point x="55" y="1176"/>
      <point x="19" y="1192"/>
      <point x="-8" y="1221"/>
      <point x="-24" y="1259"/>
    </contour>
    <contour>
      <point x="390" y="1280" type="qcurve"/>
      <point x="390" y="1299"/>
      <point x="406" y="1335"/>
      <point x="433" y="1362"/>
      <point x="469" y="1378"/>
      <point x="490" y="1378" type="qcurve"/>
      <point x="510" y="1378"/>
      <point x="547" y="1362"/>
      <point x="575" y="1335"/>
      <point x="592" y="1299"/>
      <point x="592" y="1280" type="qcurve"/>
      <point x="592" y="1259"/>
      <point x="575" y="1221"/>
      <point x="547" y="1192"/>
      <point x="510" y="1176"/>
      <point x="490" y="1176" type="qcurve"/>
      <point x="469" y="1176"/>
      <point x="433" y="1192"/>
      <point x="406" y="1221"/>
      <point x="390" y="1259"/>
    </contour>
  </outline>
</glyph>
<glyph name="copyright" format="2">
  <advance width="1200"/>
  <unicode hex="00A9"/>
  <outline>
    <contour>
      <point x="39" y="716" type="qcurve"/>
      <point x="39" y="819"/>
      <point x="79" y="1010"/>
      <point x="152" y="1177"/>
      <point x="254" y="1313"/>
      <point x="379" y="1411"/>
      <point x="522" y="1464"/>
      <point x="599" y="1464" type="qcurve"/>
      <point x="677" y="1464"/>
      <point x="820" y="1411"/>
      <point x="945" y="1313"/>
      <point x="1047" y="1177"/>
      <point x="1121" y="1010"/>
      <point x="1160" y="819"/>
      <point x="1160" y="716" type="qcurve"/>
      <point x="1160" y="613"/>
      <point x="1121" y="422"/>
      <point x="1047" y="256"/>
      <point x="945" y="120"/>
      <point x="820" y="23"/>
      <point x="677" y="-30"/>
      <point x="599" y="-30" type="qcurve"/>
      <point x="522" y="-30"/>
      <point x="379" y="23"/>
      <point x="254" y="120"/>
      <point x="152" y="256"/>
      <point x="79" y="422"/>
      <point x="39" y="613"/>
    </contour>
    <contour>
      <point x="101" y="717" type="qcurve"/>
      <point x="101" y="627"/>
      <point x="137" y="459"/>
      <point x="203" y="312"/>
      <point x="296" y="189"/>
      <point x="407" y="101"/>
      <point x="533" y="52"/>
      <point x="599" y="52" type="qcurve"/>
      <point x="666" y="52"/>
      <point x="793" y="101"/>
      <point x="904" y="189"/>
      <point x="996" y="312"/>
      <point x="1062" y="459"/>
      <point x="1099" y="627"/>
      <point x="1099" y="717" type="qcurve"/>
      <point x="1099" y="806"/>
      <point x="1062" y="975"/>
      <point x="996" y="1122"/>
      <point x="904" y="1245"/>
      <point x="793" y="1333"/>
      <point x="666" y="1382"/>
      <point x="599" y="1382" type="qcurve"/>
      <point x="533" y="1382"/>
      <point x="407" y="1333"/>
      <point x="296" y="1245"/>
      <point x="203" y="1122"/>
      <point x="137" y="974"/>
      <point x="101" y="806"/>
    </contour>
    <contour>
      <point x="790" y="941" type="line"/>
      <point x="781" y="959"/>
      <point x="750" y="1008"/>
      <point x="708" y="1052"/>
      <point x="654" y="1082"/>
      <point x="620" y="1082" type="qcurve"/>
      <point x="574" y="1082"/>
      <point x="495" y="1024"/>
      <point x="437" y="924"/>
      <point x="404" y="791"/>
      <point x="404" y="716" type="qcurve"/>
      <point x="404" y="641"/>
      <point x="437" y="508"/>
      <point x="494" y="408"/>
      <point x="574" y="350"/>
      <point x="620" y="350" type="qcurve"/>
      <point x="654" y="350"/>
      <point x="708" y="380"/>
      <point x="750" y="424"/>
      <point x="781" y="473"/>
      <point x="790" y="491" type="qcurve"/>
      <point x="856" y="402" type="line"/>
      <point x="839" y="378"/>
      <point x="793" y="330"/>
      <point x="734" y="292"/>
      <point x="662" y="268"/>
      <point x="620" y="268" type="qcurve"/>
      <point x="551" y="268"/>
      <point x="433" y="336"/>
      <point x="346" y="456"/>
      <point x="297" y="620"/>
      <point x="297" y="716" type="qcurve"/>
      <point x="297" y="812"/>
      <point x="347" y="976"/>
      <point x="433" y="1096"/>
      <point x="551" y="1164"/>
      <point x="620" y="1164" type="qcurve"/>
      <point x="662" y="1164"/>
      <point x="734" y="1140"/>
      <point x="793" y="1102"/>
      <point x="839" y="1054"/>
      <point x="856" y="1030" type="qcurve"/>
    </contour>
  </outline>
</glyph>
<glyph name="registered" format="2">
  <advance width="1200"/>
  <unicode hex="00AE"/>
  <outline>
    <contour>
      <point x="39" y="716" type="qcurve"/>
      <point x="39" y="819"/>
      <point x="79" y="1010"/>
      <point x="152" y="1177"/>
      <point x="254" y="1313"/>
      <point x="379" y="1411"/>
      <point x="522" y="1464"/>
      <point x="599" y="1464" type="qcurve"/>
      <point x="677" y="1464"/>
      <point x="820" y="1411"/>
      <point x="945" y="1313"/>
      <point x="1047" y="1177"/>
      <point x="1121" y="1010"/>
      <point x="1160" y="819"/>
      <point x="1160" y="716" type="qcurve"/>
      <point x="1160" y="613"/>
      <point x="1121" y="422"/>
      <point x="1047" y="256"/>
      <point x="945" y="120"/>
      <point x="820" y="23"/>
      <point x="677" y="-30"/>
      <point x="599" y="-30" type="qcurve"/>
      <point x="522" y="-30"/>
      <point x="379" y="23"/>
      <point x="254" y="120"/>
      <point x="152" y="256"/>
      <point x="79" y="422"/>
      <point x="39" y="613"/>
    </contour>
    <contour>
      <point x="101" y="717" type="qcurve"/>
      <point x="101" y="627"/>
      <point x="137" y="459"/>
      <point x="203" y="312"/>
      <point x="296" y="189"/>
      <point x="407" y="101"/>
      <point x="533" y="52"/>
      <point x="599" y="52" type="qcurve"/>
      <point x="666" y="52"/>
      <point x="793" y="101"/>
      <point x="904" y="189"/>
      <point x="996" y="312"/>
      <point x="1062" y="459"/>
      <point x="1099" y="627"/>
      <point x="1099" y="717" type="qcurve"/>
      <point x="1099" y="806"/>
      <point x="1062" y="975"/>
      <point x="996" y="1122"/>
      <point x="904" y="1245"/>
      <point x="793" y="1333"/>
      <point x="666" y="1382"/>
      <point x="599" y="1382" type="qcurve"/>
      <point x="533" y="1382"/>
      <point x="407" y="1333"/>
      <point x="296" y="1245"/>
      <point x="203" y="1122"/>
      <point x="137" y="974"/>
      <point x="101" y="806"/>
    </contour>
    <contour>
      <point x="401" y="1152" type="line"/>
      <point x="584" y="1152" type="line"/>
      <point x="701" y="1152"/>
      <point x="819" y="1027"/>
      <point x="819" y="912" type="qcurve"/>
      <point x="819" y="860"/>
      <point x="784" y="779"/>
      <point x="730" y="719"/>
      <point x="665" y="680"/>
      <point x="636" y="671" type="qcurve"/>
      <point x="636" y="667" type="line"/>
      <point x="857" y="292" type="line"/>
      <point x="758" y="274" type="line"/>
      <point x="563" y="649" type="line"/>
      <point x="492" y="649" type="line"/>
      <point x="492" y="292" type="line"/>
      <point x="401" y="292" type="line"/>
    </contour>
    <contour>
      <point x="492" y="1070" type="line"/>
      <point x="492" y="722" type="line"/>
      <point x="572" y="722" type="line"/>
      <point x="604" y="722"/>
      <point x="660" y="749"/>
      <point x="703" y="798"/>
      <point x="728" y="868"/>
      <point x="728" y="912" type="qcurve"/>
      <point x="728" y="954"/>
      <point x="708" y="1014"/>
      <point x="672" y="1052"/>
      <point x="623" y="1070"/>
      <point x="593" y="1070" type="qcurve"/>
    </contour>
  </outline>
</glyph>
<glyph name="macron" format="2">
  <advance width="568"/>
  <unicode hex="00AF"/>
  <outline>
    <contour>
      <point x="57" y="1364" type="line"/>
      <point x="531" y="1364" type="line"/>
      <point x="510" y="1242" type="line"/>
      <point x="36" y="1242" type="line"/>
    </contour>
  </outline>
</glyph>
<glyph name="plusminus" format="2">
  <advance width="1152"/>
  <unicode hex="00B1"/>
  <outline>
    <contour>
      <point x="125" y="653" type="line"/>
      <point x="125" y="775" type="line"/>
      <point x="515" y="775" type="line"/>
      <point x="515" y="1165" type="line"/>
      <point x="637" y="1165" type="line"/>
      <point x="637" y="775" type="line"/>
      <point x="1027" y="775" type="line"/>
      <point x="1027" y="653" type="line"/>
      <point x="637" y="653" type="line"/>
      <point x="637" y="263" type="line"/>
      <point x="515" y="263" type="line"/>
      <point x="515" y="653" type="line"/>
    </contour>
    <contour>
      <point x="125" y="0" type="line"/>
      <point x="125" y="122" type="line"/>
      <point x="1027" y="122" type="line"/>
      <point x="1027" y="0" type="line"/>
    </contour>
  </outline>
</glyph>
<glyph name="threesuperior" format="2">
  <advance width="552"/>
  <unicode hex="00B3"/>
  <outline>
    <contour>
      <point x="134" y="770" type="line"/>
      <point x="154" y="732"/>
      <point x="216" y="688"/>
      <point x="261" y="688" type="qcurve"/>
      <point x="293" y="688"/>
      <point x="340" y="715"/>
      <point x="372" y="759"/>
      <point x="389" y="815"/>
      <point x="389" y="844" type="qcurve"/>
      <point x="389" y="882"/>
      <point x="370" y="950"/>
      <point x="335" y="1002"/>
      <point x="282" y="1032"/>
      <point x="248" y="1032" type="qcurve"/>
      <point x="198" y="1032" type="line"/>
      <point x="206" y="1134" type="line"/>
      <point x="245" y="1134" type="line"/>
      <point x="265" y="1134"/>
      <point x="304" y="1155"/>
      <point x="334" y="1190"/>
      <point x="353" y="1237"/>
      <point x="353" y="1263" type="qcurve"/>
      <point x="353" y="1308"/>
      <point x="314" y="1362"/>
      <point x="281" y="1362" type="qcurve"/>
      <point x="267" y="1362"/>
      <point x="239" y="1348"/>
      <point x="211" y="1326"/>
      <point x="187" y="1296"/>
      <point x="179" y="1280" type="qcurve"/>
      <point x="117" y="1362" type="line"/>
      <point x="126" y="1375"/>
      <point x="158" y="1410"/>
      <point x="198" y="1442"/>
      <point x="247" y="1464"/>
      <point x="273" y="1464" type="qcurve"/>
      <point x="311" y="1464"/>
      <point x="371" y="1434"/>
      <point x="414" y="1383"/>
      <point x="437" y="1313"/>
      <point x="437" y="1274" type="qcurve"/>
      <point x="437" y="1230"/>
      <point x="412" y="1168"/>
      <point x="377" y="1124"/>
      <point x="337" y="1099"/>
      <point x="322" y="1093" type="qcurve"/>
      <point x="322" y="1087" type="line"/>
      <point x="338" y="1082"/>
      <point x="392" y="1053"/>
      <point x="443" y="997"/>
      <point x="480" y="909"/>
      <point x="480" y="846" type="qcurve"/>
      <point x="480" y="792"/>
      <point x="449" y="697"/>
      <point x="392" y="627"/>
      <point x="311" y="586"/>
      <point x="261" y="586" type="qcurve"/>
      <point x="230" y="586"/>
      <point x="173" y="605"/>
      <point x="125" y="635"/>
      <point x="86" y="672"/>
      <point x="73" y="690" type="qcurve"/>
    </contour>
  </outline>
</glyph>
<glyph name="mu" format="2">
  <advance width="768"/>
  <unicode hex="00B5"/>
  <outline>
    <contour>
      <point x="213" y="974" type="line"/>
      <point x="213" y="487" type="line"/>
      <point x="213" y="383"/>
      <point x="240" y="233"/>
      <point x="287" y="137"/>
      <point x="347" y="92"/>
      <point x="380" y="92" type="qcurve"/>
      <point x="413" y="92"/>
      <point x="472" y="137"/>
      <point x="516" y="233"/>
      <point x="542" y="383"/>
      <point x="542" y="487" type="qcurve"/>
      <point x="542" y="944" type="line"/>
      <point x="641" y="974" type="line"/>
      <point x="663" y="974" type="line"/>
      <point x="663" y="259" type="line"/>
      <point x="663" y="186"/>
      <point x="707" y="92"/>
      <point x="752" y="92" type="qcurve"/>
      <point x="735" y="-30" type="line"/>
      <point x="688" y="-30"/>
      <point x="620" y="-1"/>
      <point x="576" y="43"/>
      <point x="553" y="97"/>
      <point x="549" y="122" type="qcurve"/>
      <point x="542" y="122" type="line"/>
      <point x="535" y="97"/>
      <point x="509" y="44"/>
      <point x="470" y="-1"/>
      <point x="416" y="-30"/>
      <point x="380" y="-30" type="qcurve"/>
      <point x="349" y="-30"/>
      <point x="297" y="-1"/>
      <point x="257" y="43"/>
      <point x="229" y="97"/>
      <point x="221" y="122" type="qcurve"/>
      <point x="213" y="122" type="line"/>
      <point x="213" y="-460" type="line"/>
      <point x="114" y="-490" type="line"/>
      <point x="92" y="-490" type="line"/>
      <point x="92" y="944" type="line"/>
      <point x="191" y="974" type="line"/>
    </contour>
  </outline>
</glyph>
<glyph name="cedilla" format="2">
  <advance width="568"/>
  <unicode hex="00B8"/>
  <outline>
    <contour>
      <point x="370" y="29" type="line"/>
      <point x="320" y="-110" type="line"/>
      <point x="349" y="-110"/>
      <point x="405" y="-135"/>
      <point x="450" y="-182"/>
      <point x="477" y="-250"/>
      <point x="477" y="-293" type="qcurve"/>
      <point x="477" y="-344"/>
      <point x="439" y="-418"/>
      <point x="377" y="-466"/>
      <point x="301" y="-490"/>
      <point x="264" y="-490" type="qcurve"/>
      <point x="229" y="-490"/>
      <point x="170" y="-476"/>
      <point x="124" y="-456"/>
      <point x="92" y="-433"/>
      <point x="83" y="-423" type="qcurve"/>
      <point x="137" y="-347" type="line"/>
      <point x="140" y="-352"/>
      <point x="158" y="-372"/>
      <point x="186" y="-393"/>
      <point x="223" y="-408"/>
      <point x="245" y="-408" type="qcurve"/>
      <point x="268" y="-408"/>
      <point x="308" y="-391"/>
      <point x="338" y="-361"/>
      <point x="355" y="-321"/>
      <point x="355" y="-298" type="qcurve"/>
      <point x="355" y="-276"/>
      <point x="338" y="-236"/>
      <point x="308" y="-207"/>
      <point x="268" y="-190"/>
      <point x="245" y="-190" type="qcurve"/>
      <point x="224" y="-190"/>
      <point x="198" y="-194"/>
      <point x="180" y="-199"/>
      <point x="168" y="-204"/>
      <point x="162" y="-206" type="qcurve"/>
      <point x="248" y="29" type="line"/>
    </contour>
  </outline>
</glyph>
<glyph name="Ccedilla" format="2">
  <advance width="1008"/>
  <unicode hex="00C7"/>
  <outline>
    <contour>
      <point x="868" y="1112" type="line"/>
      <point x="852" y="1149"/>
      <point x="800" y="1230"/>
      <point x="728" y="1298"/>
      <point x="636" y="1342"/>
      <point x="579" y="1342" type="qcurve"/>
      <point x="512" y="1342"/>
      <point x="380" y="1266"/>
      <point x="272" y="1111"/>
      <point x="206" y="876"/>
      <point x="206" y="717" type="qcurve"/>
      <point x="206" y="558"/>
      <point x="272" y="323"/>
      <point x="380" y="168"/>
      <point x="512" y="92"/>
      <point x="579" y="92" type="qcurve"/>
      <point x="636" y="92"/>
      <point x="728" y="137"/>
      <point x="800" y="205"/>
      <point x="852" y="286"/>
      <point x="868" y="322" type="qcurve"/>
      <point x="956" y="204" type="line"/>
      <point x="923" y="153"/>
      <point x="842" y="68"/>
      <point x="746" y="5"/>
      <point x="638" y="-30"/>
      <point x="581" y="-30" type="qcurve"/>
      <point x="552" y="-110" type="line"/>
      <point x="581" y="-110"/>
      <point x="637" y="-135"/>
      <point x="682" y="-182"/>
      <point x="709" y="-250"/>
      <point x="709" y="-293" type="qcurve"/>
      <point x="709" y="-344"/>
      <point x="671" y="-418"/>
      <point x="609" y="-466"/>
      <point x="533" y="-490"/>
      <point x="496" y="-490" type="qcurve"/>
      <point x="461" y="-490"/>
      <point x="402" y="-476"/>
      <point x="356" y="-456"/>
      <point x="324" y="-433"/>
      <point x="315" y="-423" type="qcurve"/>
      <point x="369" y="-347" type="line"/>
      <point x="372" y="-352"/>
      <point x="390" y="-372"/>
      <point x="418" y="-393"/>
      <point x="455" y="-408"/>
      <point x="477" y="-408" type="qcurve"/>
      <point x="500" y="-408"/>
      <point x="540" y="-391"/>
      <point x="570" y="-361"/>
      <point x="587" y="-321"/>
      <point x="587" y="-298" type="qcurve"/>
      <point x="587" y="-276"/>
      <point x="570" y="-236"/>
      <point x="540" y="-207"/>
      <point x="500" y="-190"/>
      <point x="477" y="-190" type="qcurve"/>
      <point x="456" y="-190"/>
      <point x="430" y="-194"/>
      <point x="412" y="-199"/>
      <point x="400" y="-204"/>
      <point x="394" y="-206" type="qcurve"/>
      <point x="465" y="-12" type="line"/>
      <point x="393" y="11"/>
      <point x="327" y="62" type="qcurve"/>
      <point x="249" y="123"/>
      <point x="131" y="312"/>
      <point x="62" y="564"/>
      <point x="62" y="717" type="qcurve"/>
      <point x="62" y="832"/>
      <point x="102" y="1032"/>
      <point x="173" y="1198"/>
      <point x="271" y="1328"/>
      <point x="386" y="1417"/>
      <point x="513" y="1464"/>
      <point x="579" y="1464" type="qcurve"/>
      <point x="638" y="1464"/>
      <point x="745" y="1429"/>
      <point x="841" y="1366"/>
      <point x="923" y="1281"/>
      <point x="956" y="1230" type="qcurve"/>
    </contour>
  </outline>
</glyph>
<glyph name="multiply" format="2">
  <advance width="1152"/>
  <unicode hex="00D7"/>
  <outline>
    <contour>
      <point x="189" y="888" type="line"/>
      <point x="275" y="974" type="line"/>
      <point x="576" y="673" type="line"/>
      <point x="877" y="974" type="line"/>
      <point x="963" y="888" type="line"/>
      <point x="662" y="587" type="line"/>
      <point x="963" y="286" type="line"/>
      <point x="877" y="200" type="line"/>
      <point x="576" y="501" type="line"/>
      <point x="275" y="200" type="line"/>
      <point x="189" y="286" type="line"/>
      <point x="490" y="587" type="line"/>
    </contour>
  </outline>
</glyph>
<glyph name="Oslash" format="2">
  <advance width="1200"/>
  <unicode hex="00D8"/>
  <outline>
    <contour>
      <point x="75" y="717" type="qcurve"/>
      <point x="75" y="832"/>
      <point x="116" y="1032"/>
      <point x="189" y="1198"/>
      <point x="289" y="1328"/>
      <point x="406" y="1417"/>
      <point x="534" y="1464"/>
      <point x="600" y="1464" type="qcurve"/>
      <point x="646" y="1464"/>
      <point x="736" y="1441"/>
      <point x="779" y="1419" type="qcurve"/>
      <point x="827" y="1559" type="line"/>
      <point x="935" y="1529" type="line"/>
      <point x="875" y="1354" type="line"/>
      <point x="929" y="1308"/>
      <point x="1021" y="1179"/>
      <point x="1088" y="1018"/>
      <point x="1125" y="826"/>
      <point x="1125" y="717" type="qcurve"/>
      <point x="1125" y="602"/>
      <point x="1084" y="402"/>
      <point x="1011" y="236"/>
      <point x="911" y="106"/>
      <point x="794" y="17"/>
      <point x="665" y="-30"/>
      <point x="600" y="-30" type="qcurve"/>
      <point x="554" y="-30"/>
      <point x="464" y="-7"/>
      <point x="420" y="15" type="qcurve"/>
      <point x="373" y="-125" type="line"/>
      <point x="266" y="-95" type="line"/>
      <point x="325" y="79" type="line"/>
      <point x="271" y="125"/>
      <point x="179" y="254"/>
      <point x="113" y="415"/>
      <point x="75" y="607"/>
    </contour>
    <contour>
      <point x="600" y="92" type="qcurve"/>
      <point x="644" y="92"/>
      <point x="735" y="126"/>
      <point x="820" y="194"/>
      <point x="894" y="297"/>
      <point x="950" y="436"/>
      <point x="981" y="611"/>
      <point x="981" y="717" type="qcurve"/>
      <point x="981" y="806"/>
      <point x="959" y="957"/>
      <point x="918" y="1083"/>
      <point x="863" y="1184"/>
      <point x="830" y="1222" type="qcurve"/>
      <point x="461" y="133" type="line"/>
      <point x="533" y="92"/>
    </contour>
    <contour>
      <point x="219" y="717" type="qcurve"/>
      <point x="219" y="628"/>
      <point x="242" y="476"/>
      <point x="281" y="349"/>
      <point x="337" y="249"/>
      <point x="370" y="212" type="qcurve"/>
      <point x="740" y="1300" type="line"/>
      <point x="671" y="1342"/>
      <point x="600" y="1342" type="qcurve"/>
      <point x="533" y="1342"/>
      <point x="398" y="1266"/>
      <point x="288" y="1111"/>
      <point x="219" y="876"/>
    </contour>
  </outline>
</glyph>
<glyph name="Thorn" format="2">
  <advance width="864"/>
  <unicode hex="00DE"/>
  <outline>
    <contour>
      <point x="137" y="1434" type="line"/>
      <point x="273" y="1434" type="line"/>
      <point x="273" y="1126" type="line"/>
      <point x="420" y="1126" type="line"/>
      <point x="527" y="1126"/>
      <point x="679" y="1062"/>
      <point x="774" y="951"/>
      <point x="818" y="802"/>
      <point x="818" y="717" type="qcurve"/>
      <point x="818" y="632"/>
      <point x="774" y="483"/>
      <point x="679" y="372"/>
      <point x="527" y="308"/>
      <point x="420" y="308" type="qcurve"/>
      <point x="273" y="308" type="line"/>
      <point x="273" y="0" type="line"/>
      <point x="137" y="0" type="line"/>
    </contour>
    <contour>
      <point x="273" y="1024" type="line"/>
      <point x="273" y="410" type="line"/>
      <point x="401" y="410" type="line"/>
      <point x="470" y="410"/>
      <point x="573" y="455"/>
      <point x="641" y="536"/>
      <point x="674" y="649"/>
      <point x="674" y="717" type="qcurve"/>
      <point x="674" y="785"/>
      <point x="641" y="898"/>
      <point x="573" y="979"/>
      <point x="470" y="1024"/>
      <point x="401" y="1024" type="qcurve"/>
    </contour>
  </outline>
</glyph>
<glyph name="ae" format="2">
  <advance width="1200"/>
  <unicode hex="00E6"/>
  <outline>
    <contour>
      <point x="644" y="487" type="line"/>
      <point x="644" y="373"/>
      <point x="682" y="215"/>
      <point x="747" y="116"/>
      <point x="832" y="72"/>
      <point x="878" y="72" type="qcurve"/>
      <point x="915" y="72"/>
      <point x="971" y="103"/>
      <point x="1014" y="149"/>
      <point x="1045" y="204"/>
      <point x="1055" y="227" type="qcurve"/>
      <point x="1131" y="125" type="line"/>
      <point x="1119" y="106"/>
      <point x="1075" y="53"/>
      <point x="1010" y="4"/>
      <point x="926" y="-30"/>
      <point x="875" y="-30" type="qcurve"/>
      <point x="661" y="-30"/>
      <point x="570" y="195" type="qcurve"/>
      <point x="563" y="195" type="line"/>
      <point x="527" y="139"/>
      <point x="464" y="55"/>
      <point x="396" y="-2"/>
      <point x="317" y="-30"/>
      <point x="266" y="-30" type="qcurve"/>
      <point x="221" y="-30"/>
      <point x="148" y="10"/>
      <point x="97" y="83"/>
      <point x="69" y="184"/>
      <point x="69" y="245" type="qcurve"/>
      <point x="69" y="330"/>
      <point x="122" y="459"/>
      <point x="232" y="547"/>
      <point x="404" y="595"/>
      <point x="522" y="599" type="qcurve"/>
      <point x="522" y="667" type="line"/>
      <point x="522" y="727"/>
      <point x="497" y="816"/>
      <point x="455" y="874"/>
      <point x="401" y="902"/>
      <point x="371" y="902" type="qcurve"/>
      <point x="301" y="902"/>
      <point x="207" y="817"/>
      <point x="176" y="747" type="qcurve"/>
      <point x="99" y="849" type="line"/>
      <point x="153" y="928"/>
      <point x="284" y="1004"/>
      <point x="371" y="1004" type="qcurve"/>
      <point x="406" y="1004"/>
      <point x="474" y="983"/>
      <point x="536" y="942"/>
      <point x="588" y="883"/>
      <point x="608" y="844" type="qcurve"/>
      <point x="655" y="920"/>
      <point x="773" y="1004"/>
      <point x="850" y="1004" type="qcurve"/>
      <point x="913" y="1004"/>
      <point x="1023" y="944"/>
      <point x="1106" y="817"/>
      <point x="1154" y="622"/>
      <point x="1154" y="487" type="qcurve"/>
    </contour>
    <contour>
      <point x="522" y="537" type="line"/>
      <point x="432" y="534"/>
      <point x="306" y="490"/>
      <point x="227" y="417"/>
      <point x="191" y="316"/>
      <point x="191" y="256" type="qcurve"/>
      <point x="191" y="208"/>
      <point x="212" y="138"/>
      <point x="245" y="93"/>
      <point x="283" y="72"/>
      <point x="301" y="72" type="qcurve"/>
      <point x="338" y="72"/>
      <point x="400" y="93"/>
      <point x="453" y="133"/>
      <point x="500" y="194"/>
      <point x="522" y="233" type="qcurve"/>
    </contour>
    <contour>
      <point x="1040" y="589" type="line"/>
      <point x="1040" y="649"/>
      <point x="1015" y="762"/>
      <point x="966" y="849"/>
      <point x="893" y="902"/>
      <point x="844" y="902" type="qcurve"/>
      <point x="797" y="902"/>
      <point x="725" y="853"/>
      <point x="675" y="769"/>
      <point x="647" y="655"/>
      <point x="644" y="589" type="qcurve"/>
    </contour>
  </outline>
</glyph>
<glyph name="ccedilla" format="2">
  <advance width="768"/>
  <unicode hex="00E7"/>
  <outline>
    <contour>
      <point x="630" y="747" type="line"/>
      <point x="620" y="768"/>
      <point x="585" y="822"/>
      <point x="536" y="869"/>
      <point x="473" y="902"/>
      <point x="435" y="902" type="qcurve"/>
      <point x="382" y="902"/>
      <point x="292" y="837"/>
      <point x="227" y="724"/>
      <point x="191" y="573"/>
      <point x="191" y="487" type="qcurve"/>
      <point x="191" y="400"/>
      <point x="227" y="249"/>
      <point x="292" y="137"/>
      <point x="381" y="72"/>
      <point x="435" y="72" type="qcurve"/>
      <point x="473" y="72"/>
      <point x="536" y="105"/>
      <point x="585" y="152"/>
      <point x="620" y="206"/>
      <point x="630" y="227" type="qcurve"/>
      <point x="707" y="125" type="line"/>
      <point x="687" y="96"/>
      <point x="633" y="41"/>
      <point x="566" y="-3"/>
      <point x="524" y="-16" type="qcurve"/>
      <point x="484" y="-29"/>
      <point x="438" y="-30" type="qcurve"/>
      <point x="409" y="-110" type="line"/>
      <point x="438" y="-110"/>
      <point x="494" y="-135"/>
      <point x="539" y="-182"/>
      <point x="566" y="-250"/>
      <point x="566" y="-293" type="qcurve"/>
      <point x="566" y="-344"/>
      <point x="528" y="-418"/>
      <point x="466" y="-466"/>
      <point x="390" y="-490"/>
      <point x="353" y="-490" type="qcurve"/>
      <point x="318" y="-490"/>
      <point x="259" y="-476"/>
      <point x="213" y="-456"/>
      <point x="181" y="-433"/>
      <point x="172" y="-423" type="qcurve"/>
      <point x="226" y="-347" type="line"/>
      <point x="229" y="-352"/>
      <point x="247" y="-372"/>
      <point x="275" y="-393"/>
      <point x="312" y="-408"/>
      <point x="334" y="-408" type="qcurve"/>
      <point x="357" y="-408"/>
      <point x="397" y="-391"/>
      <point x="427" y="-361"/>
      <point x="444" y="-321"/>
      <point x="444" y="-298" type="qcurve"/>
      <point x="444" y="-276"/>
      <point x="427" y="-236"/>
      <point x="397" y="-207"/>
      <point x="357" y="-190"/>
      <point x="334" y="-190" type="qcurve"/>
      <point x="313" y="-190"/>
      <point x="287" y="-194"/>
      <point x="269" y="-199"/>
      <point x="257" y="-204"/>
      <point x="251" y="-206" type="qcurve"/>
      <point x="323" y="-8" type="line"/>
      <point x="274" y="11"/>
      <point x="231" y="48" type="qcurve"/>
      <point x="179" y="93"/>
      <point x="104" y="225"/>
      <point x="62" y="391"/>
      <point x="62" y="487" type="qcurve"/>
      <point x="62" y="598"/>
      <point x="119" y="788"/>
      <point x="219" y="926"/>
      <point x="356" y="1004"/>
      <point x="435" y="1004" type="qcurve"/>
      <point x="483" y="1004"/>
      <point x="566" y="976"/>
      <point x="634" y="932"/>
      <point x="687" y="877"/>
      <point x="707" y="849" type="qcurve"/>
    </contour>
  </outline>
</glyph>
<glyph name="Aogonek" format="2">
  <advance width="1008"/>
  <unicode hex="0104"/>
  <outline>
    <contour>
      <point x="985" y="-419" type="line"/>
      <point x="959" y="-432"/>
      <point x="901" y="-440"/>
      <point x="872" y="-440" type="qcurve"/>
      <point x="831" y="-440"/>
      <point x="757" y="-408"/>
      <point x="702" y="-353"/>
      <point x="670" y="-280"/>
      <point x="670" y="-239" type="qcurve"/>
      <point x="670" y="-209"/>
      <point x="688" y="-148"/>
      <point x="742" y="-83"/>
      <point x="786" y="-49" type="qcurve"/>
      <point x="799" y="-39"/>
      <point x="814" y="-29" type="qcurve"/>
      <point x="694" y="365" type="line"/>
      <point x="254" y="365" type="line"/>
      <point x="134" y="-30" type="line"/>
      <point x="44" y="0" type="line"/>
      <point x="488" y="1464" type="line"/>
      <point x="521" y="1464" type="line"/>
      <point x="964" y="0" type="line"/>
      <point x="908" y="-38"/>
      <point x="839" y="-94"/>
      <point x="801" y="-143"/>
      <point x="782" y="-191"/>
      <point x="782" y="-222" type="qcurve"/>
      <point x="782" y="-245"/>
      <point x="799" y="-284"/>
      <point x="827" y="-312"/>
      <point x="862" y="-328"/>
      <point x="880" y="-328" type="qcurve"/>
      <point x="895" y="-328"/>
      <point x="916" y="-326"/>
      <point x="935" y="-320"/>
      <point x="953" y="-310"/>
      <point x="964" y="-302" type="qcurve"/>
    </contour>
    <contour>
      <point x="470" y="1102" type="line"/>
      <point x="291" y="487" type="line"/>
      <point x="656" y="487" type="line"/>
      <point x="478" y="1102" type="line"/>
    </contour>
  </outline>
</glyph>
<glyph name="Dcroat" format="2">
  <advance width="1128"/>
  <unicode hex="0110"/>
  <outline>
    <contour>
      <point x="144" y="1434" type="line"/>
      <point x="464" y="1434" type="line"/>
      <point x="601" y="1434"/>
      <point x="818" y="1336"/>
      <point x="968" y="1151"/>
      <point x="1047" y="885"/>
      <point x="1047" y="717" type="qcurve"/>
      <point x="1047" y="619"/>
      <point x="1010" y="436"/>
      <point x="938" y="277"/>
      <point x="836" y="145"/>
      <point x="709" y="52"/>
      <point x="557" y="0"/>
      <point x="472" y="0" type="qcurve"/>
      <point x="144" y="0" type="line"/>
      <point x="144" y="707" type="line"/>
      <point x="32" y="707" type="line"/>
      <point x="47" y="829" type="line"/>
      <point x="144" y="829" type="line"/>
    </contour>
    <contour>
      <point x="281" y="122" type="line"/>
      <point x="450" y="122" type="line"/>
      <point x="559" y="122"/>
      <point x="728" y="210"/>
      <point x="843" y="368"/>
      <point x="903" y="586"/>
      <point x="903" y="717" type="qcurve"/>
      <point x="903" y="873"/>
      <point x="839" y="1097"/>
      <point x="720" y="1243"/>
      <point x="551" y="1312"/>
      <point x="445" y="1312" type="qcurve"/>
      <point x="281" y="1312" type="line"/>
      <point x="281" y="829" type="line"/>
      <point x="584" y="829" type="line"/>
      <point x="568" y="707" type="line"/>
      <point x="281" y="707" type="line"/>
    </contour>
  </outline>
</glyph>
<glyph name="eogonek" format="2">
  <advance width="768"/>
  <unicode hex="0119"/>
  <outline>
    <contour>
      <point x="575" y="-419" type="line"/>
      <point x="549" y="-432"/>
      <point x="491" y="-440"/>
      <point x="462" y="-440" type="qcurve"/>
      <point x="421" y="-440"/>
      <point x="347" y="-408"/>
      <point x="292" y="-353"/>
      <point x="260" y="-280"/>
      <point x="260" y="-239" type="qcurve"/>
      <point x="260" y="-209"/>
      <point x="278" y="-148"/>
      <point x="332" y="-83"/>
      <point x="376" y="-49" type="qcurve"/>
      <point x="389" y="-39"/>
      <point x="405" y="-29" type="qcurve"/>
      <point x="330" y="-23"/>
      <point x="271" y="8" type="qcurve"/>
      <point x="199" y="47"/>
      <point x="103" y="188"/>
      <point x="54" y="386"/>
      <point x="54" y="507" type="qcurve"/>
      <point x="54" y="617"/>
      <point x="110" y="800"/>
      <point x="206" y="931"/>
      <point x="332" y="1004"/>
      <point x="403" y="1004" type="qcurve"/>
      <point x="466" y="1004"/>
      <point x="581" y="944"/>
      <point x="669" y="817"/>
      <point x="722" y="622"/>
      <point x="722" y="487" type="qcurve"/>
      <point x="183" y="487" type="line"/>
      <point x="183" y="373"/>
      <point x="226" y="215"/>
      <point x="296" y="116"/>
      <point x="385" y="72"/>
      <point x="431" y="72" type="qcurve"/>
      <point x="467" y="72"/>
      <point x="529" y="103"/>
      <point x="577" y="149"/>
      <point x="613" y="204"/>
      <point x="623" y="227" type="qcurve"/>
      <point x="699" y="125" type="line"/>
      <point x="683" y="99"/>
      <point x="608" y="26"/>
      <point x="554" y="0" type="qcurve"/>
      <point x="498" y="-38"/>
      <point x="429" y="-94"/>
      <point x="391" y="-143"/>
      <point x="372" y="-191"/>
      <point x="372" y="-222" type="qcurve"/>
      <point x="372" y="-245"/>
      <point x="389" y="-284"/>
      <point x="417" y="-312"/>
      <point x="452" y="-328"/>
      <point x="470" y="-328" type="qcurve"/>
      <point x="485" y="-328"/>
      <point x="506" y="-326"/>
      <point x="525" y="-320"/>
      <point x="543" y="-310"/>
      <point x="554" y="-302" type="qcurve"/>
    </contour>
    <contour>
      <point x="608" y="589" type="line"/>
      <point x="608" y="649"/>
      <point x="578" y="762"/>
      <point x="524" y="849"/>
      <point x="446" y="902"/>
      <point x="397" y="902" type="qcurve"/>
      <point x="350" y="902"/>
      <point x="275" y="853"/>
      <point x="219" y="769"/>
      <point x="186" y="655"/>
      <point x="183" y="589" type="qcurve"/>
    </contour>
  </outline>
</glyph>
<glyph name="Hbar" format="2">
  <advance width="1128"/>
  <unicode hex="0126"/>
  <outline>
    <contour>
      <point x="273" y="1434" type="line"/>
      <point x="273" y="1188" type="line"/>
      <point x="855" y="1188" type="line"/>
      <point x="855" y="1434" type="line"/>
      <point x="992" y="1434" type="line"/>
      <point x="992" y="1188" type="line"/>
      <point x="1067" y="1188" type="line"/>
      <point x="1050" y="1066" type="line"/>
      <point x="992" y="1066" type="line"/>
      <point x="992" y="0" type="line"/>
      <point x="855" y="0" type="line"/>
      <point x="855" y="707" type="line"/>
      <point x="273" y="707" type="line"/>
      <point x="273" y="0" type="line"/>
      <point x="137" y="0" type="line"/>
      <point x="137" y="1066" type="line"/>
      <point x="62" y="1066" type="line"/>
      <point x="77" y="1188" type="line"/>
      <point x="137" y="1188" type="line"/>
      <point x="137" y="1434" type="line"/>
    </contour>
    <contour>
      <point x="273" y="1066" type="line"/>
      <point x="273" y="829" type="line"/>
      <point x="855" y="829" type="line"/>
      <point x="855" y="1066" type="line"/>
    </contour>
  </outline>
</glyph>
<glyph name="hbar" format="2">
  <advance width="840"/>
  <unicode hex="0127"/>
  <outline>
    <contour>
      <point x="29" y="1292" type="line"/>
      <point x="114" y="1292" type="line"/>
      <point x="114" y="1464" type="line"/>
      <point x="213" y="1494" type="line"/>
      <point x="236" y="1494" type="line"/>
      <point x="236" y="1292" type="line"/>
      <point x="443" y="1292" type="line"/>
      <point x="425" y="1160" type="line"/>
      <point x="236" y="1172" type="line"/>
      <point x="236" y="837" type="line"/>
      <point x="243" y="837" type="line"/>
      <point x="290" y="916"/>
      <point x="410" y="1004"/>
      <point x="489" y="1004" type="qcurve"/>
      <point x="541" y="1004"/>
      <point x="629" y="963"/>
      <point x="692" y="884"/>
      <point x="728" y="770"/>
      <point x="728" y="697" type="qcurve"/>
      <point x="728" y="196" type="line"/>
      <point x="728" y="130"/>
      <point x="754" y="72"/>
      <point x="786" y="72" type="qcurve"/>
      <point x="773" y="-30" type="line"/>
      <point x="727" y="-30"/>
      <point x="664" y="9"/>
      <point x="624" y="77"/>
      <point x="606" y="171"/>
      <point x="606" y="227" type="qcurve"/>
      <point x="606" y="697" type="line"/>
      <point x="606" y="743"/>
      <point x="586" y="819"/>
      <point x="549" y="873"/>
      <point x="497" y="902"/>
      <point x="464" y="902" type="qcurve"/>
      <point x="427" y="902"/>
      <point x="360" y="869"/>
      <point x="302" y="812"/>
      <point x="254" y="738"/>
      <point x="236" y="696" type="qcurve"/>
      <point x="236" y="0" type="line"/>
      <point x="114" y="0" type="line"/>
      <point x="114" y="1182" type="line"/>
      <point x="15" y="1190" type="line"/>
    </contour>
  </outline>
</glyph>
<glyph name="iogonek" format="2">
  <advance width="432"/>
  <unicode hex="012F"/>
  <outline>
    <contour>
      <point x="346" y="-419" type="line"/>
      <point x="320" y="-432"/>
      <point x="262" y="-440"/>
      <point x="233" y="-440" type="qcurve"/>
      <point x="192" y="-440"/>
      <point x="118" y="-408"/>
      <point x="63" y="-353"/>
      <point x="31" y="-280"/>
      <point x="31" y="-239" type="qcurve"/>
      <point x="31" y="-209"/>
      <point x="49" y="-148"/>
      <point x="103" y="-83"/>
      <point x="147" y="-49" type="qcurve"/>
      <point x="178" y="-26"/>
      <point x="224" y="-1" type="qcurve"/>
      <point x="192" y="24"/>
      <point x="175" y="73" type="qcurve"/>
      <point x="155" y="129"/>
      <point x="155" y="226" type="qcurve"/>
      <point x="155" y="974" type="line"/>
      <point x="254" y="1004" type="line"/>
      <point x="277" y="1004" type="line"/>
      <point x="277" y="197" type="line"/>
      <point x="277" y="128"/>
      <point x="307" y="72"/>
      <point x="335" y="72" type="qcurve"/>
      <point x="322" y="-30" type="line"/>
      <point x="314" y="-30"/>
      <point x="300" y="-29"/>
      <point x="286" y="-26" type="qcurve"/>
      <point x="256" y="-48"/>
      <point x="234" y="-66" type="qcurve"/>
      <point x="200" y="-94"/>
      <point x="162" y="-143"/>
      <point x="143" y="-191"/>
      <point x="143" y="-222" type="qcurve"/>
      <point x="143" y="-245"/>
      <point x="160" y="-284"/>
      <point x="188" y="-312"/>
      <point x="223" y="-328"/>
      <point x="241" y="-328" type="qcurve"/>
      <point x="256" y="-328"/>
      <point x="277" y="-326"/>
      <point x="296" y="-320"/>
      <point x="314" y="-310"/>
      <point x="325" y="-302" type="qcurve"/>
    </contour>
    <contour>
      <point x="123" y="1272" type="qcurve"/>
      <point x="123" y="1312"/>
      <point x="179" y="1368"/>
      <point x="219" y="1368" type="qcurve"/>
      <point x="259" y="1368"/>
      <point x="315" y="1312"/>
      <point x="315" y="1272" type="qcurve"/>
      <point x="315" y="1232"/>
      <point x="259" y="1176"/>
      <point x="219" y="1176" type="qcurve"/>
      <point x="179" y="1176"/>
      <point x="123" y="1232"/>
    </contour>
  </outline>
</glyph>
<glyph name="Lslash" format="2">
  <advance width="816"/>
  <unicode hex="0141"/>
  <outline>
    <contour>
      <point x="273" y="1464" type="line"/>
      <point x="273" y="867" type="line"/>
      <point x="420" y="1004" type="line"/>
      <point x="435" y="896" type="line"/>
      <point x="273" y="745" type="line"/>
      <point x="273" y="122" type="line"/>
      <point x="758" y="142" type="line"/>
      <point x="739" y="0" type="line"/>
      <point x="137" y="0" type="line"/>
      <point x="137" y="618" type="line"/>
      <point x="15" y="505" type="line"/>
      <point x="1" y="613" type="line"/>
      <point x="137" y="739" type="line"/>
      <point x="137" y="1434" type="line"/>
    </contour>
  </outline>
</glyph>
<glyph name="eng" format="2">
  <advance width="840"/>
  <unicode hex="014B"/>
  <outline>
    <contour>
      <point x="728" y="-77" type="line"/>
      <point x="728" y="-196"/>
      <point x="691" y="-354"/>
      <point x="623" y="-450"/>
      <point x="524" y="-490"/>
      <point x="461" y="-490" type="qcurve"/>
      <point x="475" y="-388" type="line"/>
      <point x="502" y="-388"/>
      <point x="550" y="-365"/>
      <point x="586" y="-310"/>
      <point x="606" y="-220"/>
      <point x="606" y="-152" type="qcurve"/>
      <point x="606" y="687" type="line"/>
      <point x="606" y="790"/>
      <point x="533" y="902"/>
      <point x="464" y="902" type="qcurve"/>
      <point x="394" y="902"/>
      <point x="284" y="797"/>
      <point x="236" y="697" type="qcurve"/>
      <point x="236" y="0" type="line"/>
      <point x="114" y="0" type="line"/>
      <point x="114" y="944" type="line"/>
      <point x="213" y="974" type="line"/>
      <point x="236" y="974" type="line"/>
      <point x="236" y="837" type="line"/>
      <point x="243" y="837" type="line"/>
      <point x="296" y="925"/>
      <point x="413" y="1004"/>
      <point x="482" y="1004" type="qcurve"/>
      <point x="536" y="1004"/>
      <point x="626" y="963"/>
      <point x="692" y="887"/>
      <point x="728" y="776"/>
      <point x="728" y="707" type="qcurve"/>
    </contour>
  </outline>
</glyph>
<glyph name="OE" format="2">
  <advance width="1416"/>
  <unicode hex="0152"/>
  <outline>
    <contour>
      <point x="734" y="1434" type="line"/>
      <point x="1337" y="1434" type="line"/>
      <point x="1318" y="1290" type="line"/>
      <point x="878" y="1332" type="line"/>
      <point x="870" y="1332" type="line"/>
      <point x="870" y="829" type="line"/>
      <point x="1257" y="829" type="line"/>
      <point x="1241" y="707" type="line"/>
      <point x="870" y="707" type="line"/>
      <point x="870" y="102" type="line"/>
      <point x="878" y="102" type="line"/>
      <point x="1355" y="144" type="line"/>
      <point x="1337" y="0" type="line"/>
      <point x="734" y="0" type="line"/>
      <point x="698" y="-14"/>
      <point x="625" y="-30"/>
      <point x="587" y="-30" type="qcurve"/>
      <point x="521" y="-30"/>
      <point x="392" y="17"/>
      <point x="275" y="106"/>
      <point x="176" y="236"/>
      <point x="103" y="402"/>
      <point x="62" y="602"/>
      <point x="62" y="717" type="qcurve"/>
      <point x="62" y="832"/>
      <point x="103" y="1032"/>
      <point x="176" y="1198"/>
      <point x="275" y="1328"/>
      <point x="392" y="1417"/>
      <point x="521" y="1464"/>
      <point x="587" y="1464" type="qcurve"/>
      <point x="625" y="1464"/>
      <point x="698" y="1448"/>
      <point x="734" y="1433" type="qcurve"/>
    </contour>
    <contour>
      <point x="587" y="1342" type="qcurve"/>
      <point x="520" y="1342"/>
      <point x="385" y="1266"/>
      <point x="275" y="1111"/>
      <point x="206" y="876"/>
      <point x="206" y="717" type="qcurve"/>
      <point x="206" y="558"/>
      <point x="275" y="323"/>
      <point x="385" y="168"/>
      <point x="520" y="92"/>
      <point x="587" y="92" type="qcurve"/>
      <point x="623" y="92"/>
      <point x="698" y="114"/>
      <point x="734" y="137" type="qcurve"/>
      <point x="734" y="1296" type="line"/>
      <point x="698" y="1319"/>
      <point x="623" y="1342"/>
    </contour>
  </outline>
</glyph>
<glyph name="tcommaaccent" format="2">
  <advance width="552"/>
  <unicode hex="0163"/>
  <outline>
    <contour>
      <point x="310" y="1322" type="line"/>
      <point x="310" y="1004" type="line"/>
      <point x="488" y="1004" type="line"/>
      <point x="470" y="872" type="line"/>
      <point x="310" y="886" type="line"/>
      <point x="310" y="297" type="line"/>
      <point x="310" y="240"/>
      <point x="323" y="155"/>
      <point x="359" y="99"/>
      <point x="422" y="72"/>
      <point x="472" y="72" type="qcurve"/>
      <point x="458" y="-30" type="line"/>
      <point x="405" y="-30"/>
      <point x="366" y="-21" type="qcurve"/>
      <point x="334" y="-110" type="line"/>
      <point x="363" y="-110"/>
      <point x="419" y="-135"/>
      <point x="464" y="-182"/>
      <point x="491" y="-250"/>
      <point x="491" y="-293" type="qcurve"/>
      <point x="491" y="-344"/>
      <point x="453" y="-418"/>
      <point x="391" y="-466"/>
      <point x="315" y="-490"/>
      <point x="278" y="-490" type="qcurve"/>
      <point x="243" y="-490"/>
      <point x="184" y="-476"/>
      <point x="138" y="-456"/>
      <point x="106" y="-433"/>
      <point x="97" y="-423" type="qcurve"/>
      <point x="151" y="-347" type="line"/>
      <point x="154" y="-352"/>
      <point x="172" y="-372"/>
      <point x="200" y="-393"/>
      <point x="237" y="-408"/>
      <point x="259" y="-408" type="qcurve"/>
      <point x="282" y="-408"/>
      <point x="322" y="-391"/>
      <point x="352" y="-361"/>
      <point x="369" y="-321"/>
      <point x="369" y="-298" type="qcurve"/>
      <point x="369" y="-276"/>
      <point x="352" y="-236"/>
      <point x="322" y="-207"/>
      <point x="282" y="-190"/>
      <point x="259" y="-190" type="qcurve"/>
      <point x="238" y="-190"/>
      <point x="212" y="-194"/>
      <point x="194" y="-199"/>
      <point x="182" y="-204"/>
      <point x="176" y="-206" type="qcurve"/>
      <point x="261" y="28" type="line"/>
      <point x="247" y="42"/>
      <point x="237" y="59" type="qcurve"/>
      <point x="219" y="87"/>
      <point x="197" y="165"/>
      <point x="188" y="264"/>
      <point x="188" y="326" type="qcurve"/>
      <point x="188" y="893" type="line"/>
      <point x="62" y="902" type="line"/>
      <point x="75" y="1004" type="line"/>
      <point x="188" y="1004" type="line"/>
      <point x="188" y="1292" type="line"/>
      <point x="287" y="1322" type="line"/>
    </contour>
  </outline>
</glyph>
<glyph name="Tbar" format="2">
  <advance width="864"/>
  <unicode hex="0166"/>
  <outline>
    <contour>
      <point x="50" y="1434" type="line"/>
      <point x="833" y="1434" type="line"/>
      <point x="814" y="1292" type="line"/>
      <point x="508" y="1332" type="line"/>
      <point x="500" y="1332" type="line"/>
      <point x="500" y="829" type="line"/>
      <point x="702" y="829" type="line"/>
      <point x="686" y="707" type="line"/>
      <point x="500" y="707" type="line"/>
      <point x="500" y="0" type="line"/>
      <point x="364" y="0" type="line"/>
      <point x="364" y="707" type="line"/>
      <point x="162" y="707" type="line"/>
      <point x="178" y="829" type="line"/>
      <point x="364" y="829" type="line"/>
      <point x="364" y="1332" type="line"/>
      <point x="356" y="1332" type="line"/>
      <point x="32" y="1292" type="line"/>
    </contour>
  </outline>
</glyph>
<glyph name="Uogonek" format="2">
  <advance width="1128"/>
  <unicode hex="0172"/>
  <outline>
    <contour>
      <point x="748" y="-419" type="line"/>
      <point x="722" y="-432"/>
      <point x="664" y="-440"/>
      <point x="635" y="-440" type="qcurve"/>
      <point x="594" y="-440"/>
      <point x="520" y="-408"/>
      <point x="465" y="-353"/>
      <point x="433" y="-280"/>
      <point x="433" y="-239" type="qcurve"/>
      <point x="433" y="-209"/>
      <point x="451" y="-148"/>
      <point x="505" y="-83"/>
      <point x="549" y="-49" type="qcurve"/>
      <point x="561" y="-40"/>
      <point x="576" y="-30" type="qcurve"/>
      <point x="564" y="-30" type="line"/>
      <point x="467" y="-30"/>
      <point x="310" y="41"/>
      <point x="197" y="186"/>
      <point x="137" y="409"/>
      <point x="137" y="562" type="qcurve"/>
      <point x="137" y="1434" type="line"/>
      <point x="273" y="1464" type="line"/>
      <point x="273" y="542" type="line"/>
      <point x="273" y="411"/>
      <point x="326" y="238"/>
      <point x="413" y="134"/>
      <point x="523" y="92"/>
      <point x="579" y="92" type="qcurve"/>
      <point x="641" y="92"/>
      <point x="756" y="137"/>
      <point x="846" y="242"/>
      <point x="900" y="414"/>
      <point x="900" y="542" type="qcurve"/>
      <point x="900" y="1464" type="line"/>
      <point x="992" y="1434" type="line"/>
      <point x="992" y="562" type="line"/>
      <point x="992" y="410"/>
      <point x="931" y="187"/>
      <point x="817" y="38"/>
      <point x="727" y="0" type="qcurve"/>
      <point x="671" y="-38"/>
      <point x="602" y="-94"/>
      <point x="564" y="-143"/>
      <point x="545" y="-191"/>
      <point x="545" y="-222" type="qcurve"/>
      <point x="545" y="-245"/>
      <point x="562" y="-284"/>
      <point x="590" y="-312"/>
      <point x="625" y="-328"/>
      <point x="643" y="-328" type="qcurve"/>
      <point x="658" y="-328"/>
      <point x="679" y="-326"/>
      <point x="698" y="-320"/>
      <point x="716" y="-310"/>
      <point x="727" y="-302" type="qcurve"/>
    </contour>
  </outline>
</glyph>
<glyph name="uogonek" format="2">
  <advance width="840"/>
  <unicode hex="0173"/>
  <outline>
    <contour>
      <point x="797" y="-419" type="line"/>
      <point x="771" y="-432"/>
      <point x="713" y="-440"/>
      <point x="684" y="-440" type="qcurve"/>
      <point x="643" y="-440"/>
      <point x="569" y="-408"/>
      <point x="514" y="-353"/>
      <point x="482" y="-280"/>
      <point x="482" y="-239" type="qcurve"/>
      <point x="482" y="-209"/>
      <point x="500" y="-148"/>
      <point x="554" y="-83"/>
      <point x="598" y="-49" type="qcurve"/>
      <point x="630" y="-24"/>
      <point x="680" y="2" type="qcurve"/>
      <point x="652" y="25"/>
      <point x="637" y="62" type="qcurve"/>
      <point x="621" y="103"/>
      <point x="614" y="142" type="qcurve"/>
      <point x="606" y="142" type="line"/>
      <point x="593" y="116"/>
      <point x="549" y="56"/>
      <point x="486" y="4"/>
      <point x="407" y="-30"/>
      <point x="359" y="-30" type="qcurve"/>
      <point x="313" y="-30"/>
      <point x="225" y="4"/>
      <point x="156" y="79"/>
      <point x="114" y="197"/>
      <point x="114" y="280" type="qcurve"/>
      <point x="114" y="974" type="line"/>
      <point x="213" y="1004" type="line"/>
      <point x="236" y="1004" type="line"/>
      <point x="236" y="305" type="line"/>
      <point x="236" y="240"/>
      <point x="261" y="151"/>
      <point x="303" y="96"/>
      <point x="356" y="72"/>
      <point x="384" y="72" type="qcurve"/>
      <point x="425" y="72"/>
      <point x="493" y="107"/>
      <point x="548" y="163"/>
      <point x="590" y="230"/>
      <point x="606" y="263" type="qcurve"/>
      <point x="606" y="974" type="line"/>
      <point x="705" y="1004" type="line"/>
      <point x="728" y="1004" type="line"/>
      <point x="728" y="189" type="line"/>
      <point x="728" y="123"/>
      <point x="756" y="72"/>
      <point x="786" y="72" type="qcurve"/>
      <point x="773" y="-30" type="line"/>
      <point x="764" y="-30"/>
      <point x="751" y="-29"/>
      <point x="737" y="-26" type="qcurve"/>
      <point x="707" y="-48"/>
      <point x="685" y="-66" type="qcurve"/>
      <point x="651" y="-94"/>
      <point x="613" y="-143"/>
      <point x="594" y="-191"/>
      <point x="594" y="-222" type="qcurve"/>
      <point x="594" y="-245"/>
      <point x="611" y="-284"/>
      <point x="639" y="-312"/>
      <point x="674" y="-328"/>
      <point x="692" y="-328" type="qcurve"/>
      <point x="707" y="-328"/>
      <point x="728" y="-326"/>
      <point x="747" y="-320"/>
      <point x="765" y="-310"/>
      <point x="776" y="-302" type="qcurve"/>
    </contour>
  </outline>
</glyph>
<glyph name="longs" format="2">
  <advance width="432"/>
  <unicode hex="017F"/>
  <outline>
    <contour>
      <point x="253" y="0" type="line"/>
      <point x="131" y="0" type="line"/>
      <point x="131" y="1108" type="line"/>
      <point x="131" y="1206"/>
      <point x="156" y="1342"/>
      <point x="217" y="1426"/>
      <point x="321" y="1464"/>
      <point x="415" y="1464" type="qcurve"/>
      <point x="401" y="1362" type="line"/>
      <point x="358" y="1362"/>
      <point x="302" y="1335"/>
      <point x="266" y="1279"/>
      <point x="253" y="1194"/>
      <point x="253" y="1137" type="qcurve"/>
    </contour>
  </outline>
</glyph>
<glyph name="florin" format="2">
  <advance width="768"/>
  <unicode hex="0192"/>
  <outline>
    <contour>
      <point x="303" y="738" type="line"/>
      <point x="193" y="746" type="line"/>
      <point x="206" y="848" type="line"/>
      <point x="319" y="848" type="line"/>
      <point x="349" y="1074" type="line"/>
      <point x="362" y="1174"/>
      <point x="414" y="1353"/>
      <point x="501" y="1488"/>
      <point x="627" y="1566"/>
      <point x="714" y="1566" type="qcurve"/>
      <point x="701" y="1464" type="line"/>
      <point x="647" y="1464"/>
      <point x="568" y="1402"/>
      <point x="514" y="1296"/>
      <point x="479" y="1155"/>
      <point x="470" y="1075" type="qcurve"/>
      <point x="440" y="848" type="line"/>
      <point x="619" y="848" type="line"/>
      <point x="602" y="716" type="line"/>
      <point x="425" y="731" type="line"/>
      <point x="328" y="0" type="line"/>
      <point x="314" y="-102"/>
      <point x="262" y="-280"/>
      <point x="175" y="-413"/>
      <point x="49" y="-490"/>
      <point x="-38" y="-490" type="qcurve"/>
      <point x="-24" y="-388" type="line"/>
      <point x="32" y="-388"/>
      <point x="110" y="-327"/>
      <point x="164" y="-221"/>
      <point x="197" y="-80"/>
      <point x="207" y="0" type="qcurve"/>
    </contour>
  </outline>
</glyph>
<glyph name="uni0251" format="2">
  <advance width="840"/>
  <unicode hex="0251"/>
  <outline>
    <contour>
      <point x="735" y="1004" type="line"/>
      <point x="735" y="179" type="line"/>
      <point x="735" y="125"/>
      <point x="762" y="72"/>
      <point x="794" y="72" type="qcurve"/>
      <point x="780" y="-30" type="line"/>
      <point x="737" y="-30"/>
      <point x="679" y="-10"/>
      <point x="644" y="21"/>
      <point x="626" y="57"/>
      <point x="621" y="72" type="qcurve"/>
      <point x="614" y="72" type="line"/>
      <point x="596" y="50"/>
      <point x="557" y="13"/>
      <point x="511" y="-14"/>
      <point x="455" y="-30"/>
      <point x="420" y="-30" type="qcurve"/>
      <point x="349" y="-30"/>
      <point x="217" y="40"/>
      <point x="115" y="172"/>
      <point x="54" y="365"/>
      <point x="54" y="488" type="qcurve"/>
      <point x="54" y="594"/>
      <point x="107" y="782"/>
      <point x="204" y="922"/>
      <point x="339" y="1004"/>
      <point x="420" y="1004" type="qcurve"/>
      <point x="452" y="1004"/>
      <point x="506" y="994"/>
      <point x="552" y="976"/>
      <point x="593" y="950"/>
      <point x="614" y="934" type="qcurve"/>
      <point x="713" y="1004" type="line"/>
    </contour>
    <contour>
      <point x="614" y="815" type="line"/>
      <point x="572" y="861"/>
      <point x="479" y="902"/>
      <point x="420" y="902" type="qcurve"/>
      <point x="373" y="902"/>
      <point x="287" y="844"/>
      <point x="222" y="736"/>
      <point x="183" y="583"/>
      <point x="183" y="489" type="qcurve"/>
      <point x="183" y="375"/>
      <point x="230" y="217"/>
      <point x="301" y="117"/>
      <point x="384" y="72"/>
      <point x="420" y="72" type="qcurve"/>
      <point x="479" y="72"/>
      <point x="572" y="120"/>
      <point x="614" y="183" type="qcurve"/>
    </contour>
  </outline>
</glyph>
<glyph name="uni0256" format="2">
  <advance width="840"/>
  <unicode hex="0256"/>
  <outline>
    <contour>
      <point x="614" y="1464" type="line"/>
      <point x="713" y="1494" type="line"/>
      <point x="735" y="1494" type="line"/>
      <point x="735" y="-163" type="line"/>
      <point x="735" y="-220"/>
      <point x="749" y="-305"/>
      <point x="785" y="-361"/>
      <point x="848" y="-388"/>
      <point x="897" y="-388" type="qcurve"/>
      <point x="884" y="-490" type="line"/>
      <point x="803" y="-490"/>
      <point x="699" y="-452"/>
      <point x="638" y="-368"/>
      <point x="614" y="-232"/>
      <point x="614" y="-134" type="qcurve"/>
      <point x="614" y="142" type="line"/>
      <point x="599" y="114"/>
      <point x="558" y="54"/>
      <point x="503" y="3"/>
      <point x="432" y="-30"/>
      <point x="386" y="-30" type="qcurve"/>
      <point x="323" y="-30"/>
      <point x="206" y="40"/>
      <point x="116" y="172"/>
      <point x="62" y="365"/>
      <point x="62" y="488" type="qcurve"/>
      <point x="62" y="594"/>
      <point x="115" y="782"/>
      <point x="206" y="922"/>
      <point x="326" y="1004"/>
      <point x="393" y="1004" type="qcurve"/>
      <point x="426" y="1004"/>
      <point x="488" y="986"/>
      <point x="543" y="957"/>
      <point x="589" y="921"/>
      <point x="606" y="902" type="qcurve"/>
      <point x="614" y="902" type="line"/>
    </contour>
    <contour>
      <point x="614" y="785" type="line"/>
      <point x="599" y="806"/>
      <point x="560" y="848"/>
      <point x="511" y="881"/>
      <point x="451" y="902"/>
      <point x="416" y="902" type="qcurve"/>
      <point x="369" y="902"/>
      <point x="287" y="844"/>
      <point x="226" y="736"/>
      <point x="191" y="583"/>
      <point x="191" y="489" type="qcurve"/>
      <point x="191" y="375"/>
      <point x="230" y="217"/>
      <point x="292" y="117"/>
      <point x="370" y="72"/>
      <point x="409" y="72" type="qcurve"/>
      <point x="444" y="72"/>
      <point x="505" y="105"/>
      <point x="557" y="158"/>
      <point x="598" y="227"/>
      <point x="614" y="263" type="qcurve"/>
    </contour>
  </outline>
</glyph>
<glyph name="uni025B" format="2">
  <advance width="648"/>
  <unicode hex="025B"/>
  <outline>
    <contour>
      <point x="397" y="589" type="line"/>
      <point x="383" y="487" type="line"/>
      <point x="323" y="487" type="line"/>
      <point x="288" y="487"/>
      <point x="236" y="449"/>
      <point x="201" y="386"/>
      <point x="183" y="303"/>
      <point x="183" y="258" type="qcurve"/>
      <point x="183" y="214"/>
      <point x="208" y="145"/>
      <point x="248" y="97"/>
      <point x="299" y="72"/>
      <point x="325" y="72" type="qcurve"/>
      <point x="351" y="72"/>
      <point x="402" y="95"/>
      <point x="449" y="136"/>
      <point x="488" y="193"/>
      <point x="503" y="227" type="qcurve"/>
      <point x="579" y="125" type="line"/>
      <point x="472" y="-30"/>
      <point x="326" y="-30" type="qcurve"/>
      <point x="275" y="-30"/>
      <point x="183" y="12"/>
      <point x="112" y="87"/>
      <point x="69" y="192"/>
      <point x="69" y="256" type="qcurve"/>
      <point x="69" y="294"/>
      <point x="83" y="375"/>
      <point x="122" y="453"/>
      <point x="194" y="522"/>
      <point x="254" y="548" type="qcurve"/>
      <point x="254" y="558" type="line"/>
      <point x="225" y="573"/>
      <point x="175" y="615"/>
      <point x="137" y="669"/>
      <point x="116" y="737"/>
      <point x="116" y="779" type="qcurve"/>
      <point x="116" y="837"/>
      <point x="148" y="922"/>
      <point x="203" y="978"/>
      <point x="278" y="1004"/>
      <point x="322" y="1004" type="qcurve"/>
      <point x="358" y="1004"/>
      <point x="427" y="980"/>
      <point x="489" y="938"/>
      <point x="542" y="882"/>
      <point x="563" y="849" type="qcurve"/>
      <point x="488" y="747" type="line"/>
      <point x="476" y="778"/>
      <point x="442" y="834"/>
      <point x="400" y="877"/>
      <point x="350" y="902"/>
      <point x="323" y="902" type="qcurve"/>
      <point x="302" y="902"/>
      <point x="266" y="884"/>
      <point x="239" y="850"/>
      <point x="223" y="800"/>
      <point x="223" y="768" type="qcurve"/>
      <point x="223" y="725"/>
      <point x="246" y="659"/>
      <point x="283" y="613"/>
      <point x="329" y="589"/>
      <point x="351" y="589" type="qcurve"/>
    </contour>
  </outline>
</glyph>
<glyph name="uni025E" format="2">
  <advance width="840"/>
  <unicode hex="025E"/>
  <outline>
    <contour>
      <point x="514" y="537" type="line"/>
      <point x="557" y="537"/>
      <point x="618" y="555"/>
      <point x="656" y="592"/>
      <point x="672" y="647"/>
      <point x="672" y="683" type="qcurve"/>
      <point x="672" y="722"/>
      <point x="653" y="794"/>
      <point x="605" y="849"/>
      <point x="522" y="882"/>
      <point x="458" y="882" type="qcurve"/>
      <point x="386" y="882"/>
      <point x="272" y="817"/>
      <point x="190" y="708"/>
      <point x="146" y="565"/>
      <point x="146" y="487" type="qcurve"/>
      <point x="146" y="409"/>
      <point x="190" y="266"/>
      <point x="272" y="157"/>
      <point x="386" y="92"/>
      <point x="458" y="92" type="qcurve"/>
      <point x="522" y="92"/>
      <point x="605" y="124"/>
      <point x="653" y="179"/>
      <point x="672" y="251"/>
      <point x="672" y="290" type="qcurve"/>
      <point x="672" y="324"/>
      <point x="656" y="377"/>
      <point x="618" y="415"/>
      <point x="557" y="435"/>
      <point x="514" y="435" type="qcurve"/>
      <point x="420" y="435" type="line"/>
      <point x="434" y="537" type="line"/>
    </contour>
    <contour>
      <point x="668" y="482" type="line"/>
      <point x="704" y="464"/>
      <point x="750" y="414"/>
      <point x="776" y="355"/>
      <point x="786" y="291"/>
      <point x="786" y="260" type="qcurve"/>
      <point x="786" y="194"/>
      <point x="742" y="87"/>
      <point x="658" y="11"/>
      <point x="536" y="-30"/>
      <point x="458" y="-30" type="qcurve"/>
      <point x="382" y="-30"/>
      <point x="236" y="37"/>
      <point x="123" y="168"/>
      <point x="54" y="361"/>
      <point x="54" y="487" type="qcurve"/>
      <point x="54" y="612"/>
      <point x="123" y="805"/>
      <point x="236" y="936"/>
      <point x="382" y="1004"/>
      <point x="458" y="1004" type="qcurve"/>
      <point x="536" y="1004"/>
      <point x="658" y="963"/>
      <point x="742" y="887"/>
      <point x="786" y="779"/>
      <point x="786" y="713" type="qcurve"/>
      <point x="786" y="681"/>
      <point x="776" y="616"/>
      <point x="750" y="558"/>
      <point x="704" y="509"/>
      <point x="668" y="492" type="qcurve"/>
    </contour>
  </outline>
</glyph>
<glyph name="uni025F" format="2">
  <advance width="432"/>
  <unicode hex="025F"/>
  <outline>
    <contour>
      <point x="38" y="589" type="line"/>
      <point x="155" y="589" type="line"/>
      <point x="155" y="974" type="line"/>
      <point x="254" y="1004" type="line"/>
      <point x="277" y="1004" type="line"/>
      <point x="277" y="589" type="line"/>
      <point x="413" y="589" type="line"/>
      <point x="396" y="457" type="line"/>
      <point x="277" y="467" type="line"/>
      <point x="277" y="-78" type="line"/>
      <point x="277" y="-196"/>
      <point x="240" y="-354"/>
      <point x="172" y="-450"/>
      <point x="73" y="-490"/>
      <point x="11" y="-490" type="qcurve"/>
      <point x="24" y="-388" type="line"/>
      <point x="51" y="-388"/>
      <point x="99" y="-365"/>
      <point x="135" y="-310"/>
      <point x="155" y="-220"/>
      <point x="155" y="-153" type="qcurve"/>
      <point x="155" y="476" type="line"/>
      <point x="24" y="487" type="line"/>
    </contour>
  </outline>
</glyph>
<glyph name="uni0263" format="2">
  <advance width="768"/>
  <unicode hex="0263"/>
  <outline>
    <contour>
      <point x="174" y="1004" type="line"/>
      <point x="404" y="230" type="line"/>
      <point x="412" y="230" type="line"/>
      <point x="642" y="1004" type="line"/>
      <point x="725" y="974" type="line"/>
      <point x="451" y="70" type="line"/>
      <point x="480" y="-27"/>
      <point x="515" y="-153"/>
      <point x="533" y="-234"/>
      <point x="539" y="-282"/>
      <point x="539" y="-301" type="qcurve"/>
      <point x="539" y="-342"/>
      <point x="519" y="-411"/>
      <point x="482" y="-461"/>
      <point x="428" y="-490"/>
      <point x="395" y="-490" type="qcurve"/>
      <point x="361" y="-490"/>
      <point x="314" y="-456"/>
      <point x="284" y="-400"/>
      <point x="270" y="-329"/>
      <point x="270" y="-292" type="qcurve"/>
      <point x="270" y="-272"/>
      <point x="275" y="-226"/>
      <point x="290" y="-160"/>
      <point x="317" y="-67"/>
      <point x="338" y="0" type="qcurve"/>
      <point x="44" y="974" type="line"/>
    </contour>
    <contour>
      <point x="385" y="-135" type="qcurve"/>
      <point x="377" y="-161"/>
      <point x="363" y="-203"/>
      <point x="353" y="-245"/>
      <point x="347" y="-289"/>
      <point x="347" y="-317" type="qcurve"/>
      <point x="347" y="-343"/>
      <point x="365" y="-388"/>
      <point x="385" y="-388" type="qcurve"/>
      <point x="406" y="-388"/>
      <point x="424" y="-343"/>
      <point x="424" y="-317" type="qcurve"/>
      <point x="424" y="-285"/>
      <point x="405" y="-194"/>
    </contour>
  </outline>
</glyph>
<glyph name="uni0267" format="2">
  <advance width="840"/>
  <unicode hex="0267"/>
  <outline>
    <contour>
      <point x="380" y="1464" type="qcurve"/>
      <point x="367" y="1362" type="line"/>
      <point x="340" y="1362"/>
      <point x="292" y="1339"/>
      <point x="256" y="1284"/>
      <point x="236" y="1193"/>
      <point x="236" y="1126" type="qcurve"/>
      <point x="236" y="837" type="line"/>
      <point x="243" y="837" type="line"/>
      <point x="290" y="916"/>
      <point x="410" y="1004"/>
      <point x="489" y="1004" type="qcurve"/>
      <point x="541" y="1004"/>
      <point x="629" y="963"/>
      <point x="692" y="884"/>
      <point x="728" y="770"/>
      <point x="728" y="697" type="qcurve"/>
      <point x="728" y="-77" type="line"/>
      <point x="728" y="-196"/>
      <point x="691" y="-354"/>
      <point x="623" y="-450"/>
      <point x="524" y="-490"/>
      <point x="461" y="-490" type="qcurve"/>
      <point x="475" y="-388" type="line"/>
      <point x="502" y="-388"/>
      <point x="550" y="-365"/>
      <point x="586" y="-310"/>
      <point x="606" y="-220"/>
      <point x="606" y="-152" type="qcurve"/>
      <point x="606" y="697" type="line"/>
      <point x="606" y="743"/>
      <point x="586" y="819"/>
      <point x="549" y="873"/>
      <point x="497" y="902"/>
      <point x="464" y="902" type="qcurve"/>
      <point x="427" y="902"/>
      <point x="360" y="869"/>
      <point x="302" y="812"/>
      <point x="254" y="738"/>
      <point x="236" y="696" type="qcurve"/>
      <point x="236" y="0" type="line"/>
      <point x="114" y="0" type="line"/>
      <point x="114" y="1051" type="line"/>
      <point x="114" y="1169"/>
      <point x="150" y="1328"/>
      <point x="219" y="1424"/>
      <point x="318" y="1464"/>
    </contour>
  </outline>
</glyph>
<glyph name="uni026D" format="2">
  <advance width="432"/>
  <unicode hex="026D"/>
  <outline>
    <contour>
      <point x="155" y="1464" type="line"/>
      <point x="254" y="1494" type="line"/>
      <point x="277" y="1494" type="line"/>
      <point x="277" y="-163" type="line"/>
      <point x="277" y="-220"/>
      <point x="290" y="-305"/>
      <point x="326" y="-361"/>
      <point x="389" y="-388"/>
      <point x="439" y="-388" type="qcurve"/>
      <point x="425" y="-490" type="line"/>
      <point x="345" y="-490"/>
      <point x="241" y="-452"/>
      <point x="180" y="-368"/>
      <point x="155" y="-232"/>
      <point x="155" y="-134" type="qcurve"/>
    </contour>
  </outline>
</glyph>
<glyph name="uni026F" format="2">
  <advance width="1248"/>
  <unicode hex="026F"/>
  <outline>
    <contour>
      <point x="1020" y="974" type="line"/>
      <point x="1119" y="1004" type="line"/>
      <point x="1142" y="1004" type="line"/>
      <point x="1142" y="0" type="line"/>
      <point x="1020" y="0" type="line"/>
      <point x="1020" y="136" type="line"/>
      <point x="1012" y="136" type="line"/>
      <point x="987" y="92"/>
      <point x="937" y="29"/>
      <point x="881" y="-11"/>
      <point x="819" y="-30"/>
      <point x="783" y="-30" type="qcurve"/>
      <point x="743" y="-30"/>
      <point x="678" y="-3"/>
      <point x="626" y="44"/>
      <point x="589" y="108"/>
      <point x="577" y="146" type="qcurve"/>
      <point x="569" y="146" type="line"/>
      <point x="543" y="102"/>
      <point x="492" y="36"/>
      <point x="436" y="-8"/>
      <point x="372" y="-30"/>
      <point x="334" y="-30" type="qcurve"/>
      <point x="294" y="-30"/>
      <point x="213" y="5"/>
      <point x="148" y="76"/>
      <point x="107" y="184"/>
      <point x="107" y="258" type="qcurve"/>
      <point x="107" y="777" type="line"/>
      <point x="107" y="843"/>
      <point x="80" y="902"/>
      <point x="48" y="902" type="qcurve"/>
      <point x="62" y="1004" type="line"/>
      <point x="143" y="1004"/>
      <point x="228" y="876"/>
      <point x="228" y="747" type="qcurve"/>
      <point x="228" y="278" type="line"/>
      <point x="228" y="230"/>
      <point x="248" y="154"/>
      <point x="281" y="100"/>
      <point x="328" y="72"/>
      <point x="355" y="72" type="qcurve"/>
      <point x="388" y="72"/>
      <point x="444" y="102"/>
      <point x="494" y="157"/>
      <point x="540" y="232"/>
      <point x="563" y="277" type="qcurve"/>
      <point x="563" y="974" type="line"/>
      <point x="662" y="1004" type="line"/>
      <point x="685" y="1004" type="line"/>
      <point x="685" y="258" type="line"/>
      <point x="685" y="225"/>
      <point x="702" y="158"/>
      <point x="734" y="105"/>
      <point x="779" y="72"/>
      <point x="806" y="72" type="qcurve"/>
      <point x="842" y="72"/>
      <point x="900" y="103"/>
      <point x="950" y="157"/>
      <point x="997" y="233"/>
      <point x="1020" y="278" type="qcurve"/>
    </contour>
  </outline>
</glyph>
<glyph name="uni0271" format="2">
  <advance width="1248"/>
  <unicode hex="0271"/>
  <outline>
    <contour>
      <point x="107" y="944" type="line"/>
      <point x="206" y="974" type="line"/>
      <point x="228" y="974" type="line"/>
      <point x="228" y="838" type="line"/>
      <point x="236" y="838" type="line"/>
      <point x="261" y="882"/>
      <point x="311" y="945"/>
      <point x="367" y="985"/>
      <point x="429" y="1004"/>
      <point x="465" y="1004" type="qcurve"/>
      <point x="505" y="1004"/>
      <point x="570" y="977"/>
      <point x="622" y="930"/>
      <point x="659" y="865"/>
      <point x="671" y="828" type="qcurve"/>
      <point x="679" y="828" type="line"/>
      <point x="704" y="872"/>
      <point x="756" y="938"/>
      <point x="812" y="982"/>
      <point x="876" y="1004"/>
      <point x="914" y="1004" type="qcurve"/>
      <point x="954" y="1004"/>
      <point x="1035" y="969"/>
      <point x="1100" y="898"/>
      <point x="1142" y="789"/>
      <point x="1142" y="716" type="qcurve"/>
      <point x="1142" y="-77" type="line"/>
      <point x="1142" y="-196"/>
      <point x="1105" y="-354"/>
      <point x="1037" y="-450"/>
      <point x="938" y="-490"/>
      <point x="875" y="-490" type="qcurve"/>
      <point x="889" y="-388" type="line"/>
      <point x="916" y="-388"/>
      <point x="964" y="-365"/>
      <point x="1000" y="-310"/>
      <point x="1020" y="-220"/>
      <point x="1020" y="-152" type="qcurve"/>
      <point x="1020" y="696" type="line"/>
      <point x="1020" y="744"/>
      <point x="1001" y="820"/>
      <point x="967" y="874"/>
      <point x="920" y="902"/>
      <point x="893" y="902" type="qcurve"/>
      <point x="860" y="902"/>
      <point x="804" y="872"/>
      <point x="755" y="817"/>
      <point x="708" y="742"/>
      <point x="685" y="697" type="qcurve"/>
      <point x="685" y="0" type="line"/>
      <point x="563" y="0" type="line"/>
      <point x="563" y="716" type="line"/>
      <point x="563" y="749"/>
      <point x="546" y="816"/>
      <point x="515" y="869"/>
      <point x="470" y="902"/>
      <point x="443" y="902" type="qcurve"/>
      <point x="407" y="902"/>
      <point x="348" y="871"/>
      <point x="298" y="817"/>
      <point x="251" y="741"/>
      <point x="228" y="696" type="qcurve"/>
      <point x="228" y="0" type="line"/>
      <point x="107" y="0" type="line"/>
    </contour>
  </outline>
</glyph>
<glyph name="uni0276" format="2">
  <advance width="1008"/>
  <unicode hex="0276"/>
  <outline>
    <contour>
      <point x="961" y="974" type="line"/>
      <point x="944" y="849" type="line"/>
      <point x="621" y="870" type="line"/>
      <point x="621" y="589" type="line"/>
      <point x="910" y="589" type="line"/>
      <point x="896" y="487" type="line"/>
      <point x="621" y="487" type="line"/>
      <point x="621" y="103" type="line"/>
      <point x="962" y="125" type="line"/>
      <point x="945" y="0" type="line"/>
      <point x="527" y="0" type="line"/>
      <point x="501" y="-10"/>
      <point x="451" y="-30"/>
      <point x="425" y="-30" type="qcurve"/>
      <point x="356" y="-30"/>
      <point x="226" y="42"/>
      <point x="124" y="176"/>
      <point x="62" y="368"/>
      <point x="62" y="487" type="qcurve"/>
      <point x="62" y="607"/>
      <point x="124" y="798"/>
      <point x="226" y="932"/>
      <point x="356" y="1004"/>
      <point x="425" y="1004" type="qcurve"/>
      <point x="451" y="1004"/>
      <point x="501" y="985"/>
      <point x="527" y="974" type="qcurve"/>
    </contour>
    <contour>
      <point x="527" y="871" type="line"/>
      <point x="501" y="888"/>
      <point x="449" y="902"/>
      <point x="425" y="902" type="qcurve"/>
      <point x="385" y="902"/>
      <point x="302" y="847"/>
      <point x="234" y="740"/>
      <point x="191" y="586"/>
      <point x="191" y="487" type="qcurve"/>
      <point x="191" y="388"/>
      <point x="234" y="234"/>
      <point x="302" y="127"/>
      <point x="385" y="72"/>
      <point x="425" y="72" type="qcurve"/>
      <point x="449" y="72"/>
      <point x="501" y="87"/>
      <point x="527" y="103" type="qcurve"/>
    </contour>
  </outline>
</glyph>
<glyph name="uni0279" format="2">
  <advance width="552"/>
  <unicode hex="0279"/>
  <outline>
    <contour>
      <point x="309" y="0" type="line"/>
      <point x="309" y="166" type="line"/>
      <point x="302" y="166" type="line"/>
      <point x="269" y="70"/>
      <point x="180" y="-30"/>
      <point x="113" y="-30" type="qcurve"/>
      <point x="93" y="-30"/>
      <point x="64" y="-24"/>
      <point x="42" y="-15"/>
      <point x="25" y="-5"/>
      <point x="17" y="0" type="qcurve"/>
      <point x="33" y="125" type="line"/>
      <point x="51" y="109"/>
      <point x="100" y="92"/>
      <point x="132" y="92" type="qcurve"/>
      <point x="188" y="92"/>
      <point x="257" y="153"/>
      <point x="296" y="240"/>
      <point x="309" y="334"/>
      <point x="309" y="367" type="qcurve"/>
      <point x="309" y="974" type="line"/>
      <point x="408" y="1004" type="line"/>
      <point x="431" y="1004" type="line"/>
      <point x="431" y="0" type="line"/>
    </contour>
  </outline>
</glyph>
<glyph name="uni027A" format="2">
  <advance width="552"/>
  <unicode hex="027A"/>
  <outline>
    <contour>
      <point x="309" y="0" type="line"/>
      <point x="309" y="166" type="line"/>
      <point x="302" y="166" type="line"/>
      <point x="269" y="70"/>
      <point x="180" y="-30"/>
      <point x="113" y="-30" type="qcurve"/>
      <point x="93" y="-30"/>
      <point x="64" y="-24"/>
      <point x="42" y="-15"/>
      <point x="25" y="-5"/>
      <point x="17" y="0" type="qcurve"/>
      <point x="33" y="125" type="line"/>
      <point x="51" y="109"/>
      <point x="100" y="92"/>
      <point x="132" y="92" type="qcurve"/>
      <point x="188" y="92"/>
      <point x="257" y="153"/>
      <point x="296" y="240"/>
      <point x="309" y="334"/>
      <point x="309" y="367" type="qcurve"/>
      <point x="309" y="1464" type="line"/>
      <point x="408" y="1494" type="line"/>
      <point x="431" y="1494" type="line"/>
      <point x="431" y="0" type="line"/>
    </contour>
  </outline>
</glyph>
<glyph name="uni027C" format="2">
  <advance width="552"/>
  <unicode hex="027C"/>
  <outline>
    <contour>
      <point x="243" y="-460" type="line"/>
      <point x="144" y="-490" type="line"/>
      <point x="122" y="-490" type="line"/>
      <point x="122" y="944" type="line"/>
      <point x="221" y="974" type="line"/>
      <point x="243" y="974" type="line"/>
      <point x="243" y="808" type="line"/>
      <point x="251" y="808" type="line"/>
      <point x="284" y="904"/>
      <point x="372" y="1004"/>
      <point x="440" y="1004" type="qcurve"/>
      <point x="459" y="1004"/>
      <point x="488" y="998"/>
      <point x="510" y="989"/>
      <point x="527" y="979"/>
      <point x="536" y="974" type="qcurve"/>
      <point x="519" y="849" type="line"/>
      <point x="501" y="865"/>
      <point x="452" y="882"/>
      <point x="420" y="882" type="qcurve"/>
      <point x="364" y="882"/>
      <point x="294" y="821"/>
      <point x="256" y="734"/>
      <point x="243" y="640"/>
      <point x="243" y="607" type="qcurve"/>
    </contour>
  </outline>
</glyph>
<glyph name="uni027E" format="2">
  <advance width="432"/>
  <unicode hex="027E"/>
  <outline>
    <contour>
      <point x="413" y="1004" type="qcurve"/>
      <point x="399" y="902" type="line"/>
      <point x="354" y="902"/>
      <point x="296" y="872"/>
      <point x="263" y="814"/>
      <point x="251" y="731"/>
      <point x="251" y="677" type="qcurve"/>
      <point x="251" y="0" type="line"/>
      <point x="129" y="0" type="line"/>
      <point x="129" y="648" type="line"/>
      <point x="129" y="750"/>
      <point x="155" y="886"/>
      <point x="221" y="969"/>
      <point x="329" y="1004"/>
    </contour>
  </outline>
</glyph>
<glyph name="uni027F" format="2">
  <advance width="432"/>
  <unicode hex="027F"/>
  <outline>
    <contour>
      <point x="303" y="0" type="line"/>
      <point x="182" y="0" type="line"/>
      <point x="182" y="677" type="line"/>
      <point x="182" y="734"/>
      <point x="168" y="819"/>
      <point x="132" y="875"/>
      <point x="69" y="902"/>
      <point x="20" y="902" type="qcurve"/>
      <point x="33" y="1004" type="line"/>
      <point x="113" y="1004"/>
      <point x="218" y="966"/>
      <point x="278" y="882"/>
      <point x="303" y="746"/>
      <point x="303" y="648" type="qcurve"/>
    </contour>
  </outline>
</glyph>
<glyph name="uni0280" format="2">
  <advance width="768"/>
  <unicode hex="0280"/>
  <outline>
    <contour>
      <point x="122" y="974" type="line"/>
      <point x="425" y="974" type="line"/>
      <point x="557" y="974"/>
      <point x="687" y="832"/>
      <point x="687" y="700" type="qcurve"/>
      <point x="687" y="635"/>
      <point x="635" y="540"/>
      <point x="560" y="474"/>
      <point x="477" y="436"/>
      <point x="446" y="429" type="qcurve"/>
      <point x="446" y="425" type="line"/>
      <point x="687" y="0" type="line"/>
      <point x="558" y="-30" type="line"/>
      <point x="347" y="405" type="line"/>
      <point x="243" y="405" type="line"/>
      <point x="243" y="0" type="line"/>
      <point x="122" y="0" type="line"/>
    </contour>
    <contour>
      <point x="243" y="872" type="line"/>
      <point x="243" y="487" type="line"/>
      <point x="381" y="487" type="line"/>
      <point x="417" y="487"/>
      <point x="482" y="516"/>
      <point x="530" y="572"/>
      <point x="558" y="650"/>
      <point x="558" y="700" type="qcurve"/>
      <point x="558" y="748"/>
      <point x="536" y="814"/>
      <point x="494" y="854"/>
      <point x="437" y="872"/>
      <point x="404" y="872" type="qcurve"/>
    </contour>
  </outline>
</glyph>
<glyph name="uni0282" format="2">
  <advance width="648"/>
  <unicode hex="0282"/>
  <outline>
    <contour>
      <point x="69" y="125" type="line"/>
      <point x="146" y="227" type="line"/>
      <point x="161" y="193"/>
      <point x="200" y="136"/>
      <point x="246" y="95"/>
      <point x="297" y="72"/>
      <point x="323" y="72" type="qcurve"/>
      <point x="350" y="72"/>
      <point x="401" y="91"/>
      <point x="440" y="132"/>
      <point x="465" y="194"/>
      <point x="465" y="238" type="qcurve"/>
      <point x="465" y="272"/>
      <point x="447" y="325"/>
      <point x="407" y="372"/>
      <point x="342" y="414"/>
      <point x="296" y="437" type="qcurve"/>
      <point x="263" y="453"/>
      <point x="196" y="507"/>
      <point x="143" y="583"/>
      <point x="109" y="685"/>
      <point x="109" y="749" type="qcurve"/>
      <point x="109" y="807"/>
      <point x="143" y="902"/>
      <point x="201" y="968"/>
      <point x="278" y="1004"/>
      <point x="322" y="1004" type="qcurve"/>
      <point x="358" y="1004"/>
      <point x="427" y="980"/>
      <point x="489" y="938"/>
      <point x="542" y="882"/>
      <point x="563" y="849" type="qcurve"/>
      <point x="488" y="747" type="line"/>
      <point x="476" y="778"/>
      <point x="442" y="834"/>
      <point x="400" y="877"/>
      <point x="350" y="902"/>
      <point x="323" y="902" type="qcurve"/>
      <point x="302" y="902"/>
      <point x="266" y="884"/>
      <point x="239" y="850"/>
      <point x="223" y="800"/>
      <point x="223" y="768" type="qcurve"/>
      <point x="223" y="733"/>
      <point x="246" y="673"/>
      <point x="284" y="624"/>
      <point x="333" y="587"/>
      <point x="359" y="575" type="qcurve"/>
      <point x="415" y="548"/>
      <point x="498" y="484"/>
      <point x="553" y="404"/>
      <point x="579" y="306"/>
      <point x="579" y="246" type="qcurve"/>
      <point x="579" y="182"/>
      <point x="536" y="80"/>
      <point x="465" y="8"/>
      <point x="373" y="-30"/>
      <point x="323" y="-30" type="qcurve"/>
      <point x="287" y="-30"/>
      <point x="222" y="-11"/>
      <point x="191" y="6" type="qcurve"/>
      <point x="191" y="-183" type="line"/>
      <point x="191" y="-223"/>
      <point x="206" y="-297"/>
      <point x="242" y="-354"/>
      <point x="301" y="-388"/>
      <point x="344" y="-388" type="qcurve"/>
      <point x="329" y="-490" type="line"/>
      <point x="256" y="-490"/>
      <point x="157" y="-435"/>
      <point x="95" y="-330"/>
      <point x="69" y="-176"/>
      <point x="69" y="-78" type="qcurve"/>
    </contour>
  </outline>
</glyph>
<glyph name="uni0285" format="2">
  <advance width="552"/>
  <unicode hex="0285"/>
  <outline>
    <contour>
      <point x="337" y="307" type="line"/>
      <point x="337" y="238"/>
      <point x="357" y="148"/>
      <point x="395" y="94"/>
      <point x="449" y="72"/>
      <point x="482" y="72" type="qcurve"/>
      <point x="468" y="-30" type="line"/>
      <point x="410" y="-30"/>
      <point x="317" y="10"/>
      <point x="251" y="105"/>
      <point x="215" y="263"/>
      <point x="215" y="382" type="qcurve"/>
      <point x="215" y="1127" type="line"/>
      <point x="215" y="1196"/>
      <point x="195" y="1286"/>
      <point x="157" y="1340"/>
      <point x="104" y="1362"/>
      <point x="71" y="1362" type="qcurve"/>
      <point x="84" y="1464" type="line"/>
      <point x="141" y="1464"/>
      <point x="235" y="1424"/>
      <point x="301" y="1329"/>
      <point x="337" y="1170"/>
      <point x="337" y="1052" type="qcurve"/>
    </contour>
  </outline>
</glyph>
<glyph name="uni0287" format="2">
  <advance width="552"/>
  <unicode hex="0287"/>
  <outline>
    <contour>
      <point x="228" y="1127" type="line"/>
      <point x="228" y="1196"/>
      <point x="208" y="1286"/>
      <point x="170" y="1340"/>
      <point x="116" y="1362"/>
      <point x="83" y="1362" type="qcurve"/>
      <point x="97" y="1464" type="line"/>
      <point x="154" y="1464"/>
      <point x="248" y="1424"/>
      <point x="314" y="1329"/>
      <point x="350" y="1170"/>
      <point x="350" y="1052" type="qcurve"/>
      <point x="350" y="589" type="line"/>
      <point x="486" y="589" type="line"/>
      <point x="469" y="457" type="line"/>
      <point x="350" y="467" type="line"/>
      <point x="350" y="0" type="line"/>
      <point x="228" y="0" type="line"/>
      <point x="228" y="475" type="line"/>
      <point x="83" y="487" type="line"/>
      <point x="97" y="589" type="line"/>
      <point x="228" y="589" type="line"/>
    </contour>
  </outline>
</glyph>
<glyph name="uni028C" format="2">
  <advance width="768"/>
  <unicode hex="028C"/>
  <outline>
    <contour>
      <point x="594" y="-30" type="line"/>
      <point x="364" y="744" type="line"/>
      <point x="356" y="744" type="line"/>
      <point x="126" y="-30" type="line"/>
      <point x="44" y="0" type="line"/>
      <point x="338" y="974" type="line"/>
      <point x="430" y="974" type="line"/>
      <point x="725" y="0" type="line"/>
    </contour>
  </outline>
</glyph>
<glyph name="uni0291" format="2">
  <advance width="840"/>
  <unicode hex="0291"/>
  <outline>
    <contour>
      <point x="39" y="25" type="line"/>
      <point x="486" y="866" type="line"/>
      <point x="486" y="876" type="line"/>
      <point x="101" y="849" type="line"/>
      <point x="117" y="974" type="line"/>
      <point x="648" y="974" type="line"/>
      <point x="648" y="949" type="line"/>
      <point x="208" y="105" type="line"/>
      <point x="208" y="95" type="line"/>
      <point x="348" y="102" type="line"/>
      <point x="394" y="209"/>
      <point x="474" y="355"/>
      <point x="546" y="446"/>
      <point x="613" y="487"/>
      <point x="645" y="487" type="qcurve"/>
      <point x="670" y="487"/>
      <point x="720" y="462"/>
      <point x="761" y="411"/>
      <point x="786" y="332"/>
      <point x="786" y="277" type="qcurve"/>
      <point x="786" y="200"/>
      <point x="724" y="94"/>
      <point x="617" y="29"/>
      <point x="476" y="0"/>
      <point x="397" y="0" type="qcurve"/>
      <point x="307" y="-208" type="line"/>
      <point x="237" y="-154" type="line"/>
      <point x="304" y="0" type="line"/>
      <point x="39" y="0" type="line"/>
    </contour>
    <contour>
      <point x="441" y="102" type="qcurve"/>
      <point x="579" y="108"/>
      <point x="710" y="197"/>
      <point x="710" y="278" type="qcurve"/>
      <point x="710" y="299"/>
      <point x="701" y="338"/>
      <point x="683" y="367"/>
      <point x="656" y="385"/>
      <point x="639" y="385" type="qcurve"/>
      <point x="624" y="385"/>
      <point x="590" y="368"/>
      <point x="544" y="311"/>
      <point x="484" y="201"/>
    </contour>
  </outline>
</glyph>
<glyph name="uni0292" format="2">
  <advance width="768"/>
  <unicode hex="0292"/>
  <outline>
    <contour>
      <point x="218" y="437" type="line"/>
      <point x="446" y="866" type="line"/>
      <point x="446" y="876" type="line"/>
      <point x="62" y="849" type="line"/>
      <point x="77" y="974" type="line"/>
      <point x="608" y="974" type="line"/>
      <point x="608" y="949" type="line"/>
      <point x="390" y="548" type="line"/>
      <point x="390" y="538" type="line"/>
      <point x="459" y="524"/>
      <point x="575" y="437"/>
      <point x="659" y="303"/>
      <point x="707" y="128"/>
      <point x="707" y="27" type="qcurve"/>
      <point x="707" y="-84"/>
      <point x="650" y="-274"/>
      <point x="550" y="-412"/>
      <point x="413" y="-490"/>
      <point x="333" y="-490" type="qcurve"/>
      <point x="286" y="-490"/>
      <point x="203" y="-463"/>
      <point x="134" y="-420"/>
      <point x="80" y="-364"/>
      <point x="62" y="-335" type="qcurve"/>
      <point x="138" y="-233" type="line"/>
      <point x="148" y="-254"/>
      <point x="183" y="-308"/>
      <point x="232" y="-355"/>
      <point x="295" y="-388"/>
      <point x="333" y="-388" type="qcurve"/>
      <point x="387" y="-388"/>
      <point x="476" y="-323"/>
      <point x="542" y="-211"/>
      <point x="578" y="-60"/>
      <point x="578" y="27" type="qcurve"/>
      <point x="578" y="113"/>
      <point x="542" y="264"/>
      <point x="476" y="377"/>
      <point x="386" y="442"/>
      <point x="333" y="442" type="qcurve"/>
      <point x="306" y="442"/>
      <point x="242" y="431"/>
      <point x="218" y="420" type="qcurve"/>
    </contour>
  </outline>
</glyph>
<glyph name="uni0293" format="2">
  <advance width="768"/>
  <unicode hex="0293"/>
  <outline>
    <contour>
      <point x="707" y="42" type="qcurve"/>
      <point x="707" y="-55"/>
      <point x="667" y="-202"/>
      <point x="629" y="-268" type="qcurve"/>
      <point x="768" y="-460" type="line"/>
      <point x="683" y="-491" type="line"/>
      <point x="578" y="-342" type="line"/>
      <point x="528" y="-399"/>
      <point x="406" y="-460"/>
      <point x="342" y="-460" type="qcurve"/>
      <point x="277" y="-460"/>
      <point x="173" y="-417"/>
      <point x="101" y="-340"/>
      <point x="62" y="-233"/>
      <point x="62" y="-168" type="qcurve"/>
      <point x="62" y="-122"/>
      <point x="87" y="-36"/>
      <point x="136" y="31"/>
      <point x="207" y="71"/>
      <point x="253" y="71" type="qcurve"/>
      <point x="283" y="71"/>
      <point x="348" y="51"/>
      <point x="420" y="-1"/>
      <point x="501" y="-90"/>
      <point x="548" y="-159" type="qcurve"/>
      <point x="564" y="-111"/>
      <point x="578" y="-18"/>
      <point x="578" y="42" type="qcurve"/>
      <point x="578" y="128"/>
      <point x="542" y="275"/>
      <point x="476" y="382"/>
      <point x="386" y="442"/>
      <point x="333" y="442" type="qcurve"/>
      <point x="306" y="442"/>
      <point x="242" y="431"/>
      <point x="218" y="420" type="qcurve"/>
      <point x="218" y="437" type="line"/>
      <point x="446" y="866" type="line"/>
      <point x="446" y="876" type="line"/>
      <point x="62" y="849" type="line"/>
      <point x="77" y="974" type="line"/>
      <point x="608" y="974" type="line"/>
      <point x="608" y="949" type="line"/>
      <point x="390" y="548" type="line"/>
      <point x="390" y="538" type="line"/>
      <point x="459" y="524"/>
      <point x="575" y="442"/>
      <point x="659" y="313"/>
      <point x="707" y="143"/>
    </contour>
    <contour>
      <point x="505" y="-245" type="qcurve"/>
      <point x="463" y="-184"/>
      <point x="394" y="-102"/>
      <point x="333" y="-52"/>
      <point x="278" y="-31"/>
      <point x="251" y="-31" type="qcurve"/>
      <point x="224" y="-31"/>
      <point x="182" y="-53"/>
      <point x="153" y="-91"/>
      <point x="138" y="-142"/>
      <point x="138" y="-172" type="qcurve"/>
      <point x="138" y="-205"/>
      <point x="159" y="-271"/>
      <point x="203" y="-324"/>
      <point x="271" y="-358"/>
      <point x="318" y="-358" type="qcurve"/>
      <point x="371" y="-358"/>
      <point x="469" y="-299"/>
    </contour>
  </outline>
</glyph>
<glyph name="uni0294" format="2">
  <advance width="768"/>
  <unicode hex="0294"/>
  <outline>
    <contour>
      <point x="304" y="687" type="line"/>
      <point x="341" y="687" type="line"/>
      <point x="402" y="687"/>
      <point x="491" y="743"/>
      <point x="550" y="838"/>
      <point x="578" y="964"/>
      <point x="578" y="1033" type="qcurve"/>
      <point x="578" y="1094"/>
      <point x="545" y="1212"/>
      <point x="485" y="1305"/>
      <point x="401" y="1362"/>
      <point x="349" y="1362" type="qcurve"/>
      <point x="308" y="1362"/>
      <point x="244" y="1337"/>
      <point x="194" y="1295"/>
      <point x="155" y="1238"/>
      <point x="138" y="1207" type="qcurve"/>
      <point x="62" y="1309" type="line"/>
      <point x="84" y="1340"/>
      <point x="139" y="1396"/>
      <point x="208" y="1439"/>
      <point x="294" y="1464"/>
      <point x="349" y="1464" type="qcurve"/>
      <point x="432" y="1464"/>
      <point x="565" y="1393"/>
      <point x="657" y="1272"/>
      <point x="707" y="1111"/>
      <point x="707" y="1021" type="qcurve"/>
      <point x="707" y="921"/>
      <point x="653" y="754"/>
      <point x="569" y="633"/>
      <point x="470" y="565"/>
      <point x="425" y="565" type="qcurve"/>
      <point x="425" y="0" type="line"/>
      <point x="304" y="0" type="line"/>
    </contour>
  </outline>
</glyph>
<glyph name="uni0296" format="2">
  <advance width="768"/>
  <unicode hex="0296"/>
  <outline>
    <contour>
      <point x="304" y="1464" type="line"/>
      <point x="403" y="1494" type="line"/>
      <point x="425" y="1494" type="line"/>
      <point x="425" y="869" type="line"/>
      <point x="470" y="869"/>
      <point x="569" y="801"/>
      <point x="653" y="680"/>
      <point x="707" y="513"/>
      <point x="707" y="413" type="qcurve"/>
      <point x="707" y="323"/>
      <point x="657" y="162"/>
      <point x="565" y="41"/>
      <point x="432" y="-30"/>
      <point x="349" y="-30" type="qcurve"/>
      <point x="294" y="-30"/>
      <point x="208" y="-5"/>
      <point x="139" y="38"/>
      <point x="84" y="94"/>
      <point x="62" y="125" type="qcurve"/>
      <point x="138" y="227" type="line"/>
      <point x="155" y="195"/>
      <point x="194" y="139"/>
      <point x="244" y="97"/>
      <point x="308" y="72"/>
      <point x="349" y="72" type="qcurve"/>
      <point x="401" y="72"/>
      <point x="485" y="129"/>
      <point x="545" y="222"/>
      <point x="578" y="340"/>
      <point x="578" y="401" type="qcurve"/>
      <point x="578" y="470"/>
      <point x="550" y="596"/>
      <point x="491" y="691"/>
      <point x="402" y="747"/>
      <point x="341" y="747" type="qcurve"/>
      <point x="304" y="747" type="line"/>
    </contour>
  </outline>
</glyph>
<glyph name="uni0297" format="2">
  <advance width="768"/>
  <unicode hex="0297"/>
  <outline>
    <contour>
      <point x="630" y="1207" type="line"/>
      <point x="620" y="1228"/>
      <point x="585" y="1282"/>
      <point x="536" y="1329"/>
      <point x="473" y="1362"/>
      <point x="435" y="1362" type="qcurve"/>
      <point x="382" y="1362"/>
      <point x="292" y="1297"/>
      <point x="227" y="1184"/>
      <point x="191" y="1033"/>
      <point x="191" y="947" type="qcurve"/>
      <point x="191" y="483" type="line"/>
      <point x="191" y="397"/>
      <point x="227" y="247"/>
      <point x="292" y="136"/>
      <point x="382" y="72"/>
      <point x="435" y="72" type="qcurve"/>
      <point x="473" y="72"/>
      <point x="536" y="105"/>
      <point x="585" y="152"/>
      <point x="620" y="206"/>
      <point x="630" y="227" type="qcurve"/>
      <point x="707" y="125" type="line"/>
      <point x="687" y="96"/>
      <point x="633" y="41"/>
      <point x="566" y="-3"/>
      <point x="483" y="-30"/>
      <point x="435" y="-30" type="qcurve"/>
      <point x="355" y="-30"/>
      <point x="218" y="48"/>
      <point x="119" y="185"/>
      <point x="62" y="373"/>
      <point x="62" y="484" type="qcurve"/>
      <point x="62" y="947" type="line"/>
      <point x="62" y="1058"/>
      <point x="119" y="1248"/>
      <point x="219" y="1386"/>
      <point x="356" y="1464"/>
      <point x="435" y="1464" type="qcurve"/>
      <point x="483" y="1464"/>
      <point x="566" y="1436"/>
      <point x="634" y="1392"/>
      <point x="687" y="1337"/>
      <point x="707" y="1309" type="qcurve"/>
    </contour>
  </outline>
</glyph>
<glyph name="uni029C" format="2">
  <advance width="840"/>
  <unicode hex="029C"/>
  <outline>
    <contour>
      <point x="734" y="1004" type="line"/>
      <point x="734" y="0" type="line"/>
      <point x="612" y="0" type="line"/>
      <point x="612" y="487" type="line"/>
      <point x="228" y="487" type="line"/>
      <point x="228" y="0" type="line"/>
      <point x="107" y="0" type="line"/>
      <point x="107" y="974" type="line"/>
      <point x="206" y="1004" type="line"/>
      <point x="228" y="1004" type="line"/>
      <point x="228" y="589" type="line"/>
      <point x="612" y="589" type="line"/>
      <point x="612" y="974" type="line"/>
      <point x="711" y="1004" type="line"/>
    </contour>
  </outline>
</glyph>
<glyph name="uni029E" format="2">
  <advance width="768"/>
  <unicode hex="029E"/>
  <outline>
    <contour>
      <point x="533" y="974" type="line"/>
      <point x="632" y="1004" type="line"/>
      <point x="654" y="1004" type="line"/>
      <point x="654" y="-460" type="line"/>
      <point x="555" y="-490" type="line"/>
      <point x="533" y="-490" type="line"/>
      <point x="533" y="428" type="line"/>
      <point x="525" y="428" type="line"/>
      <point x="189" y="-30" type="line"/>
      <point x="94" y="0" type="line"/>
      <point x="398" y="403" type="line"/>
      <point x="11" y="974" type="line"/>
      <point x="149" y="1004" type="line"/>
      <point x="461" y="497" type="line"/>
      <point x="468" y="497" type="line"/>
      <point x="533" y="584" type="line"/>
    </contour>
  </outline>
</glyph>
<glyph name="uni029F" format="2">
  <advance width="720"/>
  <unicode hex="029F"/>
  <outline>
    <contour>
      <point x="114" y="974" type="line"/>
      <point x="213" y="1004" type="line"/>
      <point x="236" y="1004" type="line"/>
      <point x="236" y="95" type="line"/>
      <point x="644" y="125" type="line"/>
      <point x="627" y="0" type="line"/>
      <point x="114" y="0" type="line"/>
    </contour>
  </outline>
</glyph>
<glyph name="uni02A2" format="2">
  <advance width="768"/>
  <unicode hex="02A2"/>
  <outline>
    <contour>
      <point x="464" y="487" type="line"/>
      <point x="632" y="487" type="line"/>
      <point x="617" y="363" type="line"/>
      <point x="464" y="370" type="line"/>
      <point x="464" y="0" type="line"/>
      <point x="343" y="0" type="line"/>
      <point x="343" y="380" type="line"/>
      <point x="178" y="389" type="line"/>
      <point x="191" y="487" type="line"/>
      <point x="343" y="487" type="line"/>
      <point x="343" y="565" type="line"/>
      <point x="298" y="565"/>
      <point x="199" y="632"/>
      <point x="116" y="753"/>
      <point x="62" y="920"/>
      <point x="62" y="1021" type="qcurve"/>
      <point x="62" y="1111"/>
      <point x="111" y="1272"/>
      <point x="203" y="1393"/>
      <point x="336" y="1464"/>
      <point x="419" y="1464" type="qcurve"/>
      <point x="474" y="1464"/>
      <point x="560" y="1439"/>
      <point x="629" y="1396"/>
      <point x="684" y="1340"/>
      <point x="707" y="1309" type="qcurve"/>
      <point x="630" y="1207" type="line"/>
      <point x="614" y="1238"/>
      <point x="575" y="1295"/>
      <point x="524" y="1337"/>
      <point x="461" y="1362"/>
      <point x="419" y="1362" type="qcurve"/>
      <point x="368" y="1362"/>
      <point x="283" y="1305"/>
      <point x="223" y="1212"/>
      <point x="191" y="1094"/>
      <point x="191" y="1033" type="qcurve"/>
      <point x="191" y="964"/>
      <point x="218" y="838"/>
      <point x="277" y="743"/>
      <point x="366" y="687"/>
      <point x="427" y="687" type="qcurve"/>
      <point x="464" y="687" type="line"/>
    </contour>
  </outline>
</glyph>
<glyph name="uni02A4" format="2">
  <advance width="1320"/>
  <unicode hex="02A4"/>
  <outline>
    <contour>
      <point x="770" y="437" type="line"/>
      <point x="998" y="866" type="line"/>
      <point x="998" y="876" type="line"/>
      <point x="735" y="857" type="line"/>
      <point x="735" y="179" type="line"/>
      <point x="735" y="125"/>
      <point x="762" y="72"/>
      <point x="794" y="72" type="qcurve"/>
      <point x="780" y="-30" type="line"/>
      <point x="737" y="-30"/>
      <point x="678" y="7"/>
      <point x="642" y="60"/>
      <point x="624" y="119"/>
      <point x="621" y="142" type="qcurve"/>
      <point x="614" y="142" type="line"/>
      <point x="599" y="114"/>
      <point x="558" y="54"/>
      <point x="503" y="3"/>
      <point x="432" y="-30"/>
      <point x="386" y="-30" type="qcurve"/>
      <point x="323" y="-30"/>
      <point x="206" y="40"/>
      <point x="116" y="172"/>
      <point x="62" y="365"/>
      <point x="62" y="488" type="qcurve"/>
      <point x="62" y="594"/>
      <point x="115" y="782"/>
      <point x="206" y="922"/>
      <point x="326" y="1004"/>
      <point x="393" y="1004" type="qcurve"/>
      <point x="426" y="1004"/>
      <point x="488" y="986"/>
      <point x="543" y="957"/>
      <point x="589" y="921"/>
      <point x="606" y="902" type="qcurve"/>
      <point x="614" y="902" type="line"/>
      <point x="614" y="1464" type="line"/>
      <point x="713" y="1494" type="line"/>
      <point x="735" y="1494" type="line"/>
      <point x="735" y="974" type="line"/>
      <point x="1160" y="974" type="line"/>
      <point x="1160" y="949" type="line"/>
      <point x="942" y="548" type="line"/>
      <point x="942" y="538" type="line"/>
      <point x="1011" y="524"/>
      <point x="1127" y="437"/>
      <point x="1211" y="303"/>
      <point x="1259" y="128"/>
      <point x="1259" y="27" type="qcurve"/>
      <point x="1259" y="-84"/>
      <point x="1202" y="-274"/>
      <point x="1102" y="-412"/>
      <point x="965" y="-490"/>
      <point x="885" y="-490" type="qcurve"/>
      <point x="838" y="-490"/>
      <point x="755" y="-463"/>
      <point x="686" y="-420"/>
      <point x="632" y="-364"/>
      <point x="614" y="-335" type="qcurve"/>
      <point x="690" y="-233" type="line"/>
      <point x="700" y="-254"/>
      <point x="735" y="-308"/>
      <point x="784" y="-355"/>
      <point x="847" y="-388"/>
      <point x="885" y="-388" type="qcurve"/>
      <point x="939" y="-388"/>
      <point x="1028" y="-323"/>
      <point x="1094" y="-211"/>
      <point x="1130" y="-60"/>
      <point x="1130" y="27" type="qcurve"/>
      <point x="1130" y="113"/>
      <point x="1094" y="264"/>
      <point x="1028" y="377"/>
      <point x="938" y="442"/>
      <point x="885" y="442" type="qcurve"/>
      <point x="858" y="442"/>
      <point x="794" y="431"/>
      <point x="770" y="420" type="qcurve"/>
    </contour>
    <contour>
      <point x="614" y="785" type="line"/>
      <point x="599" y="806"/>
      <point x="560" y="848"/>
      <point x="511" y="881"/>
      <point x="451" y="902"/>
      <point x="416" y="902" type="qcurve"/>
      <point x="369" y="902"/>
      <point x="287" y="844"/>
      <point x="226" y="736"/>
      <point x="191" y="583"/>
      <point x="191" y="489" type="qcurve"/>
      <point x="191" y="375"/>
      <point x="230" y="217"/>
      <point x="292" y="117"/>
      <point x="370" y="72"/>
      <point x="409" y="72" type="qcurve"/>
      <point x="444" y="72"/>
      <point x="505" y="105"/>
      <point x="557" y="158"/>
      <point x="598" y="227"/>
      <point x="614" y="263" type="qcurve"/>
    </contour>
  </outline>
</glyph>
<glyph name="uni02AB" format="2">
  <advance width="840"/>
  <unicode hex="02AB"/>
  <outline>
    <contour>
      <point x="193" y="0" type="line"/>
      <point x="157" y="28"/>
      <point x="124" y="138"/>
      <point x="124" y="226" type="qcurve"/>
      <point x="124" y="1464" type="line"/>
      <point x="222" y="1494" type="line"/>
      <point x="245" y="1494" type="line"/>
      <point x="245" y="974" type="line"/>
      <point x="776" y="974" type="line"/>
      <point x="776" y="949" type="line"/>
      <point x="328" y="105" type="line"/>
      <point x="328" y="95" type="line"/>
      <point x="776" y="125" type="line"/>
      <point x="759" y="0" type="line"/>
    </contour>
    <contour>
      <point x="253" y="172" type="line"/>
      <point x="614" y="866" type="line"/>
      <point x="614" y="876" type="line"/>
      <point x="245" y="850" type="line"/>
      <point x="245" y="172" type="line"/>
    </contour>
  </outline>
</glyph>
<glyph name="uni02AC" format="2">
  <advance width="720"/>
  <unicode hex="02AC"/>
  <outline>
    <contour>
      <point x="659" y="584" type="line"/>
      <point x="516" y="0" type="line"/>
      <point x="461" y="0" type="line"/>
      <point x="362" y="407" type="line"/>
      <point x="358" y="407" type="line"/>
      <point x="259" y="0" type="line"/>
      <point x="204" y="0" type="line"/>
      <point x="62" y="584" type="line"/>
      <point x="140" y="602" type="line"/>
      <point x="243" y="161" type="line"/>
      <point x="248" y="161" type="line"/>
      <point x="346" y="584" type="line"/>
      <point x="401" y="584" type="line"/>
      <point x="500" y="161" type="line"/>
      <point x="505" y="161" type="line"/>
      <point x="608" y="602" type="line"/>
    </contour>
    <contour>
      <point x="659" y="1446" type="line"/>
      <point x="516" y="862" type="line"/>
      <point x="461" y="862" type="line"/>
      <point x="362" y="1269" type="line"/>
      <point x="358" y="1269" type="line"/>
      <point x="259" y="862" type="line"/>
      <point x="204" y="862" type="line"/>
      <point x="62" y="1446" type="line"/>
      <point x="140" y="1464" type="line"/>
      <point x="243" y="1023" type="line"/>
      <point x="248" y="1023" type="line"/>
      <point x="346" y="1446" type="line"/>
      <point x="401" y="1446" type="line"/>
      <point x="500" y="1023" type="line"/>
      <point x="505" y="1023" type="line"/>
      <point x="608" y="1464" type="line"/>
    </contour>
  </outline>
</glyph>
<glyph name="uni02B9" format="2">
  <advance width="568"/>
  <unicode hex="02B9"/>
  <outline>
    <contour>
      <point x="140" y="1167" type="line"/>
      <point x="292" y="1516" type="line"/>
      <point x="318" y="1523" type="line"/>
      <point x="421" y="1460" type="line"/>
      <point x="428" y="1434" type="line"/>
      <point x="205" y="1130" type="line"/>
    </contour>
  </outline>
</glyph>
<glyph name="uni02BA" format="2">
  <advance width="568"/>
  <unicode hex="02BA"/>
  <outline>
    <contour>
      <point x="-4" y="1167" type="line"/>
      <point x="148" y="1516" type="line"/>
      <point x="174" y="1523" type="line"/>
      <point x="277" y="1460" type="line"/>
      <point x="284" y="1434" type="line"/>
      <point x="61" y="1130" type="line"/>
    </contour>
    <contour>
      <point x="284" y="1167" type="line"/>
      <point x="436" y="1516" type="line"/>
      <point x="462" y="1523" type="line"/>
      <point x="565" y="1460" type="line"/>
      <point x="572" y="1434" type="line"/>
      <point x="349" y="1130" type="line"/>
    </contour>
  </outline>
</glyph>
<glyph name="uni02BB" format="2">
  <advance width="568"/>
  <unicode hex="02BB"/>
  <outline>
    <contour>
      <point x="388" y="1229" type="line"/>
      <point x="275" y="1116" type="line"/>
      <point x="254" y="1116" type="line"/>
      <point x="249" y="1120"/>
      <point x="225" y="1146"/>
      <point x="199" y="1191"/>
      <point x="180" y="1256"/>
      <point x="180" y="1300" type="qcurve"/>
      <point x="180" y="1345"/>
      <point x="206" y="1426"/>
      <point x="249" y="1495"/>
      <point x="302" y="1552"/>
      <point x="329" y="1574" type="qcurve"/>
      <point x="388" y="1515" type="line"/>
      <point x="378" y="1504"/>
      <point x="355" y="1476"/>
      <point x="335" y="1440"/>
      <point x="322" y="1397"/>
      <point x="322" y="1373" type="qcurve"/>
      <point x="322" y="1346"/>
      <point x="338" y="1304"/>
      <point x="359" y="1273"/>
      <point x="382" y="1253"/>
      <point x="388" y="1249" type="qcurve"/>
    </contour>
  </outline>
</glyph>
<glyph name="uni02BC" format="2">
  <advance width="568"/>
  <unicode hex="02BC"/>
  <outline>
    <contour>
      <point x="200" y="1461" type="line"/>
      <point x="313" y="1574" type="line"/>
      <point x="334" y="1574" type="line"/>
      <point x="339" y="1570"/>
      <point x="363" y="1544"/>
      <point x="389" y="1499"/>
      <point x="408" y="1434"/>
      <point x="408" y="1390" type="qcurve"/>
      <point x="408" y="1345"/>
      <point x="382" y="1264"/>
      <point x="339" y="1195"/>
      <point x="286" y="1138"/>
      <point x="259" y="1116" type="qcurve"/>
      <point x="200" y="1175" type="line"/>
      <point x="210" y="1185"/>
      <point x="233" y="1214"/>
      <point x="253" y="1250"/>
      <point x="266" y="1293"/>
      <point x="266" y="1317" type="qcurve"/>
      <point x="266" y="1344"/>
      <point x="250" y="1386"/>
      <point x="229" y="1417"/>
      <point x="206" y="1436"/>
      <point x="200" y="1441" type="qcurve"/>
    </contour>
  </outline>
</glyph>
<glyph name="uni02BF" format="2">
  <advance width="568"/>
  <unicode hex="02BF"/>
  <outline>
    <contour>
      <point x="404" y="1434" type="line"/>
      <point x="394" y="1434" type="line"/>
      <point x="371" y="1434"/>
      <point x="332" y="1417"/>
      <point x="303" y="1387"/>
      <point x="286" y="1347"/>
      <point x="286" y="1325" type="qcurve"/>
      <point x="286" y="1302"/>
      <point x="303" y="1263"/>
      <point x="332" y="1234"/>
      <point x="371" y="1217"/>
      <point x="394" y="1217" type="qcurve"/>
      <point x="404" y="1217" type="line"/>
      <point x="404" y="1135" type="line"/>
      <point x="394" y="1135" type="line"/>
      <point x="355" y="1135"/>
      <point x="285" y="1165"/>
      <point x="234" y="1217"/>
      <point x="204" y="1286"/>
      <point x="204" y="1325" type="qcurve"/>
      <point x="204" y="1364"/>
      <point x="234" y="1433"/>
      <point x="285" y="1486"/>
      <point x="355" y="1516"/>
      <point x="394" y="1516" type="qcurve"/>
      <point x="404" y="1516" type="line"/>
    </contour>
  </outline>
</glyph>
<glyph name="circumflex" format="2">
  <advance width="568"/>
  <unicode hex="02C6"/>
  <outline>
    <contour>
      <point x="223" y="1494" type="line"/>
      <point x="345" y="1494" type="line"/>
      <point x="547" y="1206" type="line"/>
      <point x="476" y="1176" type="line"/>
      <point x="289" y="1391" type="line"/>
      <point x="279" y="1391" type="line"/>
      <point x="92" y="1176" type="line"/>
      <point x="21" y="1206" type="line"/>
    </contour>
  </outline>
</glyph>
<glyph name="caron" format="2">
  <advance width="568"/>
  <unicode hex="02C7"/>
  <outline>
    <contour>
      <point x="21" y="1434" type="line"/>
      <point x="92" y="1464" type="line"/>
      <point x="279" y="1249" type="line"/>
      <point x="289" y="1249" type="line"/>
      <point x="476" y="1464" type="line"/>
      <point x="547" y="1434" type="line"/>
      <point x="345" y="1146" type="line"/>
      <point x="223" y="1146" type="line"/>
    </contour>
  </outline>
</glyph>
<glyph name="uni02C8" format="2">
  <advance width="568"/>
  <unicode hex="02C8"/>
  <outline>
    <contour>
      <point x="233" y="912" type="line"/>
      <point x="233" y="1516" type="line"/>
      <point x="335" y="1516" type="line"/>
      <point x="335" y="912" type="line"/>
    </contour>
  </outline>
</glyph>
<glyph name="uni02C9" format="2">
  <advance width="568"/>
  <unicode hex="02C9"/>
  <outline>
    <contour>
      <point x="572" y="1333" type="line"/>
      <point x="551" y="1211" type="line"/>
      <point x="-4" y="1211" type="line"/>
      <point x="17" y="1333" type="line"/>
    </contour>
  </outline>
</glyph>
<glyph name="uni02CA" format="2">
  <advance width="568"/>
  <unicode hex="02CA"/>
  <outline>
    <contour>
      <point x="203" y="1191" type="line"/>
      <point x="417" y="1464" type="line"/>
      <point x="447" y="1464" type="line"/>
      <point x="535" y="1376" type="line"/>
      <point x="535" y="1346" type="line"/>
      <point x="260" y="1131" type="line"/>
    </contour>
  </outline>
</glyph>
<glyph name="uni02CB" format="2">
  <advance width="568"/>
  <unicode hex="02CB"/>
  <outline>
    <contour>
      <point x="308" y="1131" type="line"/>
      <point x="33" y="1346" type="line"/>
      <point x="33" y="1376" type="line"/>
      <point x="121" y="1464" type="line"/>
      <point x="151" y="1464" type="line"/>
      <point x="365" y="1191" type="line"/>
    </contour>
  </outline>
</glyph>
<glyph name="uni02CC" format="2">
  <advance width="568"/>
  <unicode hex="02CC"/>
  <outline>
    <contour>
      <point x="335" y="110" type="line"/>
      <point x="335" y="-490" type="line"/>
      <point x="233" y="-490" type="line"/>
      <point x="233" y="110" type="line"/>
    </contour>
  </outline>
</glyph>
<glyph name="uni02CD" format="2">
  <advance width="568"/>
  <unicode hex="02CD"/>
  <outline>
    <contour>
      <point x="551" y="-222" type="line"/>
      <point x="530" y="-344" type="line"/>
      <point x="16" y="-344" type="line"/>
      <point x="37" y="-222" type="line"/>
    </contour>
  </outline>
</glyph>
<glyph name="uni02CE" format="2">
  <advance width="568"/>
  <unicode hex="02CE"/>
  <outline>
    <contour>
      <point x="308" y="-490" type="line"/>
      <point x="33" y="-275" type="line"/>
      <point x="33" y="-245" type="line"/>
      <point x="121" y="-157" type="line"/>
      <point x="151" y="-157" type="line"/>
      <point x="365" y="-430" type="line"/>
    </contour>
  </outline>
</glyph>
<glyph name="uni02CF" format="2">
  <advance width="568"/>
  <unicode hex="02CF"/>
  <outline>
    <contour>
      <point x="203" y="-430" type="line"/>
      <point x="417" y="-157" type="line"/>
      <point x="447" y="-157" type="line"/>
      <point x="535" y="-245" type="line"/>
      <point x="535" y="-275" type="line"/>
      <point x="260" y="-490" type="line"/>
    </contour>
  </outline>
</glyph>
<glyph name="breve" format="2">
  <advance width="568"/>
  <unicode hex="02D8"/>
  <outline>
    <contour>
      <point x="73" y="1464" type="line"/>
      <point x="73" y="1434"/>
      <point x="105" y="1375"/>
      <point x="161" y="1328"/>
      <point x="238" y="1298"/>
      <point x="284" y="1298" type="qcurve"/>
      <point x="330" y="1298"/>
      <point x="407" y="1328"/>
      <point x="463" y="1375"/>
      <point x="495" y="1434"/>
      <point x="495" y="1464" type="qcurve"/>
      <point x="577" y="1464" type="line"/>
      <point x="577" y="1405"/>
      <point x="533" y="1300"/>
      <point x="455" y="1222"/>
      <point x="348" y="1176"/>
      <point x="285" y="1176" type="qcurve"/>
      <point x="221" y="1176"/>
      <point x="113" y="1222"/>
      <point x="35" y="1300"/>
      <point x="-9" y="1405"/>
      <point x="-9" y="1464" type="qcurve"/>
    </contour>
  </outline>
</glyph>
<glyph name="ring" format="2">
  <advance width="568"/>
  <unicode hex="02DA"/>
  <outline>
    <contour>
      <point x="176" y="1325" type="qcurve"/>
      <point x="176" y="1302"/>
      <point x="193" y="1263"/>
      <point x="222" y="1234"/>
      <point x="261" y="1217"/>
      <point x="284" y="1217" type="qcurve"/>
      <point x="306" y="1217"/>
      <point x="346" y="1234"/>
      <point x="375" y="1263"/>
      <point x="392" y="1302"/>
      <point x="392" y="1325" type="qcurve"/>
      <point x="392" y="1347"/>
      <point x="375" y="1387"/>
      <point x="346" y="1417"/>
      <point x="306" y="1434"/>
      <point x="284" y="1434" type="qcurve"/>
      <point x="261" y="1434"/>
      <point x="222" y="1417"/>
      <point x="193" y="1387"/>
      <point x="176" y="1347"/>
    </contour>
    <contour>
      <point x="94" y="1325" type="qcurve"/>
      <point x="94" y="1364"/>
      <point x="124" y="1433"/>
      <point x="175" y="1486"/>
      <point x="245" y="1516"/>
      <point x="284" y="1516" type="qcurve"/>
      <point x="323" y="1516"/>
      <point x="393" y="1486"/>
      <point x="444" y="1433"/>
      <point x="474" y="1364"/>
      <point x="474" y="1325" type="qcurve"/>
      <point x="474" y="1286"/>
      <point x="444" y="1217"/>
      <point x="393" y="1165"/>
      <point x="323" y="1135"/>
      <point x="284" y="1135" type="qcurve"/>
      <point x="245" y="1135"/>
      <point x="175" y="1165"/>
      <point x="124" y="1217"/>
      <point x="94" y="1286"/>
    </contour>
  </outline>
</glyph>
<glyph name="ogonek" format="2">
  <advance width="568"/>
  <unicode hex="02DB"/>
  <outline>
    <contour>
      <point x="410" y="-419" type="line"/>
      <point x="384" y="-432"/>
      <point x="326" y="-440"/>
      <point x="297" y="-440" type="qcurve"/>
      <point x="256" y="-440"/>
      <point x="182" y="-408"/>
      <point x="127" y="-353"/>
      <point x="95" y="-280"/>
      <point x="95" y="-239" type="qcurve"/>
      <point x="95" y="-209"/>
      <point x="113" y="-148"/>
      <point x="167" y="-83"/>
      <point x="255" y="-16"/>
      <point x="330" y="20" type="qcurve"/>
      <point x="389" y="0" type="line"/>
      <point x="333" y="-38"/>
      <point x="264" y="-94"/>
      <point x="226" y="-143"/>
      <point x="207" y="-191"/>
      <point x="207" y="-222" type="qcurve"/>
      <point x="207" y="-245"/>
      <point x="224" y="-284"/>
      <point x="252" y="-312"/>
      <point x="287" y="-328"/>
      <point x="305" y="-328" type="qcurve"/>
      <point x="320" y="-328"/>
      <point x="341" y="-326"/>
      <point x="360" y="-320"/>
      <point x="378" y="-310"/>
      <point x="389" y="-302" type="qcurve"/>
    </contour>
  </outline>
</glyph>
<glyph name="rhotichook" format="2">
  <advance width="568"/>
  <unicode hex="02DE"/>
  <outline>
    <contour>
      <point x="21" y="797" type="line"/>
      <point x="318" y="1004" type="line"/>
      <point x="334" y="974" type="line"/>
      <point x="308" y="933"/>
      <point x="278" y="866"/>
      <point x="264" y="812"/>
      <point x="261" y="771"/>
      <point x="261" y="756" type="qcurve"/>
      <point x="261" y="737"/>
      <point x="273" y="700"/>
      <point x="297" y="671"/>
      <point x="331" y="653"/>
      <point x="354" y="653" type="qcurve"/>
      <point x="374" y="653"/>
      <point x="408" y="668"/>
      <point x="434" y="693"/>
      <point x="448" y="727"/>
      <point x="448" y="746" type="qcurve"/>
      <point x="539" y="786" type="line"/>
      <point x="541" y="776"/>
      <point x="546" y="748"/>
      <point x="546" y="734" type="qcurve"/>
      <point x="546" y="694"/>
      <point x="517" y="627"/>
      <point x="467" y="578"/>
      <point x="400" y="551"/>
      <point x="363" y="551" type="qcurve"/>
      <point x="325" y="551"/>
      <point x="258" y="579"/>
      <point x="208" y="629"/>
      <point x="179" y="696"/>
      <point x="179" y="734" type="qcurve"/>
      <point x="179" y="748"/>
      <point x="182" y="769"/>
      <point x="186" y="782" type="qcurve"/>
      <point x="181" y="791" type="line"/>
      <point x="68" y="713" type="line"/>
    </contour>
  </outline>
</glyph>
<glyph name="uni02EC" format="2">
  <advance width="568"/>
  <unicode hex="02EC"/>
  <outline>
    <contour>
      <point x="547" y="-114" type="line"/>
      <point x="283" y="-490" type="line"/>
      <point x="21" y="-115" type="line"/>
      <point x="87" y="-67" type="line"/>
      <point x="282" y="-347" type="line"/>
      <point x="479" y="-67" type="line"/>
    </contour>
  </outline>
</glyph>
<glyph name="uni02ED" format="2">
  <advance width="568"/>
  <unicode hex="02ED"/>
  <outline>
    <contour>
      <point x="548" y="1386" type="line"/>
      <point x="548" y="1284" type="line"/>
      <point x="20" y="1284" type="line"/>
      <point x="20" y="1386" type="line"/>
    </contour>
    <contour>
      <point x="548" y="1182" type="line"/>
      <point x="548" y="1080" type="line"/>
      <point x="20" y="1080" type="line"/>
      <point x="20" y="1182" type="line"/>
    </contour>
  </outline>
</glyph>
<glyph name="uni02EE" format="2">
  <advance width="568"/>
  <unicode hex="02EE"/>
  <outline>
    <contour>
      <point x="5" y="1464" type="line"/>
      <point x="118" y="1577" type="line"/>
      <point x="139" y="1577" type="line"/>
      <point x="144" y="1573"/>
      <point x="168" y="1547"/>
      <point x="194" y="1502"/>
      <point x="213" y="1437"/>
      <point x="213" y="1393" type="qcurve"/>
      <point x="213" y="1348"/>
      <point x="187" y="1267"/>
      <point x="144" y="1198"/>
      <point x="91" y="1141"/>
      <point x="64" y="1119" type="qcurve"/>
      <point x="5" y="1178" type="line"/>
      <point x="15" y="1188"/>
      <point x="38" y="1217"/>
      <point x="58" y="1253"/>
      <point x="71" y="1296"/>
      <point x="71" y="1320" type="qcurve"/>
      <point x="71" y="1347"/>
      <point x="55" y="1389"/>
      <point x="34" y="1420"/>
      <point x="11" y="1439"/>
      <point x="5" y="1444" type="qcurve"/>
    </contour>
    <contour>
      <point x="355" y="1464" type="line"/>
      <point x="468" y="1577" type="line"/>
      <point x="489" y="1577" type="line"/>
      <point x="494" y="1573"/>
      <point x="518" y="1547"/>
      <point x="544" y="1502"/>
      <point x="563" y="1437"/>
      <point x="563" y="1393" type="qcurve"/>
      <point x="563" y="1348"/>
      <point x="537" y="1267"/>
      <point x="494" y="1198"/>
      <point x="441" y="1141"/>
      <point x="414" y="1119" type="qcurve"/>
      <point x="355" y="1178" type="line"/>
      <point x="365" y="1188"/>
      <point x="388" y="1217"/>
      <point x="408" y="1253"/>
      <point x="421" y="1296"/>
      <point x="421" y="1320" type="qcurve"/>
      <point x="421" y="1347"/>
      <point x="405" y="1389"/>
      <point x="384" y="1420"/>
      <point x="361" y="1439"/>
      <point x="355" y="1444" type="qcurve"/>
    </contour>
  </outline>
</glyph>
<glyph name="gravecomb" format="2">
  <unicode hex="0300"/>
  <outline>
    <contour>
      <point x="-258" y="1516" type="line"/>
      <point x="-624" y="1804" type="line"/>
      <point x="-624" y="1834" type="line"/>
      <point x="-542" y="1921" type="line"/>
      <point x="-512" y="1921" type="line"/>
      <point x="-201" y="1576" type="line"/>
    </contour>
  </outline>
</glyph>
<glyph name="circumflexcomb" format="2">
  <unicode hex="0302"/>
  <outline>
    <contour>
      <point x="-473" y="1904" type="line"/>
      <point x="-351" y="1904" type="line"/>
      <point x="-119" y="1566" type="line"/>
      <point x="-210" y="1536" type="line"/>
      <point x="-407" y="1781" type="line"/>
      <point x="-417" y="1781" type="line"/>
      <point x="-614" y="1536" type="line"/>
      <point x="-705" y="1566" type="line"/>
    </contour>
  </outline>
</glyph>
<glyph name="macroncomb" format="2">
  <unicode hex="0304"/>
  <outline>
    <contour>
      <point x="-121" y="1718" type="line"/>
      <point x="-142" y="1596" type="line"/>
      <point x="-716" y="1596" type="line"/>
      <point x="-695" y="1718" type="line"/>
    </contour>
  </outline>
</glyph>
<glyph name="brevecomb" format="2">
  <unicode hex="0306"/>
  <outline>
    <contour>
      <point x="-617" y="1859" type="line"/>
      <point x="-617" y="1826"/>
      <point x="-584" y="1767"/>
      <point x="-529" y="1723"/>
      <point x="-454" y="1698"/>
      <point x="-412" y="1698" type="qcurve"/>
      <point x="-370" y="1698"/>
      <point x="-295" y="1723"/>
      <point x="-240" y="1767"/>
      <point x="-207" y="1826"/>
      <point x="-207" y="1859" type="qcurve"/>
      <point x="-128" y="1859" type="line"/>
      <point x="-128" y="1800"/>
      <point x="-172" y="1697"/>
      <point x="-249" y="1620"/>
      <point x="-352" y="1576"/>
      <point x="-411" y="1576" type="qcurve"/>
      <point x="-471" y="1576"/>
      <point x="-575" y="1620"/>
      <point x="-652" y="1697"/>
      <point x="-696" y="1800"/>
      <point x="-696" y="1859" type="qcurve"/>
    </contour>
  </outline>
</glyph>
<glyph name="dotaccentcomb" format="2">
  <unicode hex="0307"/>
  <outline>
    <contour>
      <point x="-508" y="1718" type="qcurve"/>
      <point x="-508" y="1758"/>
      <point x="-452" y="1814"/>
      <point x="-412" y="1814" type="qcurve"/>
      <point x="-372" y="1814"/>
      <point x="-316" y="1758"/>
      <point x="-316" y="1718" type="qcurve"/>
      <point x="-316" y="1678"/>
      <point x="-372" y="1622"/>
      <point x="-412" y="1622" type="qcurve"/>
      <point x="-452" y="1622"/>
      <point x="-508" y="1678"/>
    </contour>
  </outline>
</glyph>
<glyph name="hookabovecomb" format="2">
  <unicode hex="0309"/>
  <outline>
    <contour>
      <point x="-466" y="1598" type="line"/>
      <point x="-466" y="1628"/>
      <point x="-445" y="1669"/>
      <point x="-414" y="1701"/>
      <point x="-377" y="1727"/>
      <point x="-346" y="1757"/>
      <point x="-325" y="1796"/>
      <point x="-325" y="1825" type="qcurve"/>
      <point x="-325" y="1861"/>
      <point x="-370" y="1904"/>
      <point x="-405" y="1904" type="qcurve"/>
      <point x="-422" y="1904"/>
      <point x="-458" y="1888"/>
      <point x="-486" y="1861"/>
      <point x="-504" y="1824"/>
      <point x="-504" y="1803" type="qcurve"/>
      <point x="-586" y="1803" type="line"/>
      <point x="-586" y="1837"/>
      <point x="-556" y="1903"/>
      <point x="-504" y="1954"/>
      <point x="-434" y="1986"/>
      <point x="-394" y="1986" type="qcurve"/>
      <point x="-354" y="1986"/>
      <point x="-284" y="1960"/>
      <point x="-232" y="1916"/>
      <point x="-203" y="1857"/>
      <point x="-203" y="1823" type="qcurve"/>
      <point x="-203" y="1789"/>
      <point x="-227" y="1737"/>
      <point x="-263" y="1699"/>
      <point x="-306" y="1675"/>
      <point x="-325" y="1669" type="qcurve"/>
      <point x="-361" y="1657"/>
      <point x="-384" y="1605"/>
      <point x="-384" y="1570" type="qcurve"/>
      <point x="-384" y="1516" type="line"/>
      <point x="-466" y="1516" type="line"/>
    </contour>
  </outline>
</glyph>
<glyph name="ringnosp" format="2">
  <unicode hex="030A"/>
  <outline>
    <contour>
      <point x="-520" y="1718" type="qcurve"/>
      <point x="-520" y="1695"/>
      <point x="-503" y="1656"/>
      <point x="-474" y="1627"/>
      <point x="-435" y="1610"/>
      <point x="-412" y="1610" type="qcurve"/>
      <point x="-390" y="1610"/>
      <point x="-350" y="1627"/>
      <point x="-321" y="1656"/>
      <point x="-304" y="1695"/>
      <point x="-304" y="1718" type="qcurve"/>
      <point x="-304" y="1740"/>
      <point x="-321" y="1780"/>
      <point x="-350" y="1810"/>
      <point x="-390" y="1827"/>
      <point x="-412" y="1827" type="qcurve"/>
      <point x="-435" y="1827"/>
      <point x="-474" y="1810"/>
      <point x="-503" y="1780"/>
      <point x="-520" y="1740"/>
    </contour>
    <contour>
      <point x="-602" y="1718" type="qcurve"/>
      <point x="-602" y="1757"/>
      <point x="-572" y="1826"/>
      <point x="-521" y="1879"/>
      <point x="-451" y="1909"/>
      <point x="-412" y="1909" type="qcurve"/>
      <point x="-373" y="1909"/>
      <point x="-303" y="1879"/>
      <point x="-252" y="1826"/>
      <point x="-222" y="1757"/>
      <point x="-222" y="1718" type="qcurve"/>
      <point x="-222" y="1679"/>
      <point x="-252" y="1610"/>
      <point x="-303" y="1558"/>
      <point x="-373" y="1528"/>
      <point x="-412" y="1528" type="qcurve"/>
      <point x="-451" y="1528"/>
      <point x="-521" y="1558"/>
      <point x="-572" y="1610"/>
      <point x="-602" y="1679"/>
    </contour>
  </outline>
</glyph>
<glyph name="acutedblnosp" format="2">
  <unicode hex="030B"/>
  <outline>
    <contour>
      <point x="-696" y="1551" type="line"/>
      <point x="-525" y="1888" type="line"/>
      <point x="-503" y="1894" type="line"/>
      <point x="-419" y="1842" type="line"/>
      <point x="-413" y="1821" type="line"/>
      <point x="-639" y="1516" type="line"/>
    </contour>
    <contour>
      <point x="-413" y="1551" type="line"/>
      <point x="-242" y="1888" type="line"/>
      <point x="-220" y="1894" type="line"/>
      <point x="-136" y="1842" type="line"/>
      <point x="-130" y="1821" type="line"/>
      <point x="-356" y="1516" type="line"/>
    </contour>
  </outline>
</glyph>
<glyph name="linevertnosp" format="2">
  <unicode hex="030D"/>
  <outline>
    <contour>
      <point x="-464" y="1531" type="line"/>
      <point x="-464" y="1907" type="line"/>
      <point x="-362" y="1907" type="line"/>
      <point x="-362" y="1531" type="line"/>
    </contour>
  </outline>
</glyph>
<glyph name="linevertdblnosp" format="2">
  <unicode hex="030E"/>
  <outline>
    <contour>
      <point x="-344" y="1531" type="line"/>
      <point x="-344" y="1907" type="line"/>
      <point x="-262" y="1907" type="line"/>
      <point x="-262" y="1531" type="line"/>
    </contour>
    <contour>
      <point x="-564" y="1531" type="line"/>
      <point x="-564" y="1907" type="line"/>
      <point x="-482" y="1907" type="line"/>
      <point x="-482" y="1531" type="line"/>
    </contour>
  </outline>
</glyph>
<glyph name="candrabindunosp" format="2">
  <unicode hex="0310"/>
  <outline>
    <contour>
      <point x="-525" y="1914" type="qcurve"/>
      <point x="-525" y="1936"/>
      <point x="-506" y="1976"/>
      <point x="-475" y="2006"/>
      <point x="-434" y="2024"/>
      <point x="-412" y="2024" type="qcurve"/>
      <point x="-388" y="2024"/>
      <point x="-347" y="2006"/>
      <point x="-317" y="1976"/>
      <point x="-299" y="1936"/>
      <point x="-299" y="1914" type="qcurve"/>
      <point x="-299" y="1890"/>
      <point x="-317" y="1848"/>
      <point x="-347" y="1817"/>
      <point x="-388" y="1799"/>
      <point x="-412" y="1799" type="qcurve"/>
      <point x="-434" y="1799"/>
      <point x="-475" y="1817"/>
      <point x="-506" y="1848"/>
      <point x="-525" y="1890"/>
    </contour>
    <contour>
      <point x="-617" y="1799" type="line"/>
      <point x="-617" y="1766"/>
      <point x="-584" y="1707"/>
      <point x="-529" y="1663"/>
      <point x="-454" y="1638"/>
      <point x="-412" y="1638" type="qcurve"/>
      <point x="-370" y="1638"/>
      <point x="-295" y="1663"/>
      <point x="-240" y="1707"/>
      <point x="-207" y="1766"/>
      <point x="-207" y="1799" type="qcurve"/>
      <point x="-128" y="1799" type="line"/>
      <point x="-128" y="1740"/>
      <point x="-172" y="1637"/>
      <point x="-249" y="1560"/>
      <point x="-352" y="1516"/>
      <point x="-411" y="1516" type="qcurve"/>
      <point x="-471" y="1516"/>
      <point x="-575" y="1560"/>
      <point x="-652" y="1637"/>
      <point x="-696" y="1740"/>
      <point x="-696" y="1799" type="qcurve"/>
    </contour>
  </outline>
</glyph>
<glyph name="breveinvnosp" format="2">
  <unicode hex="0311"/>
  <outline>
    <contour>
      <point x="-696" y="1576" type="line"/>
      <point x="-696" y="1635"/>
      <point x="-652" y="1738"/>
      <point x="-575" y="1815"/>
      <point x="-471" y="1859"/>
      <point x="-411" y="1859" type="qcurve"/>
      <point x="-352" y="1859"/>
      <point x="-249" y="1815"/>
      <point x="-172" y="1738"/>
      <point x="-128" y="1635"/>
      <point x="-128" y="1576" type="qcurve"/>
      <point x="-207" y="1576" type="line"/>
      <point x="-207" y="1609"/>
      <point x="-240" y="1668"/>
      <point x="-295" y="1712"/>
      <point x="-370" y="1737"/>
      <point x="-412" y="1737" type="qcurve"/>
      <point x="-454" y="1737"/>
      <point x="-529" y="1712"/>
      <point x="-584" y="1668"/>
      <point x="-617" y="1609"/>
      <point x="-617" y="1576" type="qcurve"/>
    </contour>
  </outline>
</glyph>
<glyph name="acutesubnosp" format="2">
  <unicode hex="0317"/>
  <outline>
    <contour>
      <point x="-624" y="-430" type="line"/>
      <point x="-313" y="-85" type="line"/>
      <point x="-283" y="-85" type="line"/>
      <point x="-201" y="-172" type="line"/>
      <point x="-201" y="-202" type="line"/>
      <point x="-567" y="-490" type="line"/>
    </contour>
  </outline>
</glyph>
<glyph name="tackleftsubnosp" format="2">
  <unicode hex="0318"/>
  <outline>
    <contour>
      <point x="-393" y="-224" type="line"/>
      <point x="-393" y="-60" type="line"/>
      <point x="-291" y="-60" type="line"/>
      <point x="-291" y="-490" type="line"/>
      <point x="-393" y="-490" type="line"/>
      <point x="-393" y="-326" type="line"/>
      <point x="-537" y="-326" type="line"/>
      <point x="-537" y="-224" type="line"/>
    </contour>
  </outline>
</glyph>
<glyph name="tackrightsubnosp" format="2">
  <unicode hex="0319"/>
  <outline>
    <contour>
      <point x="-433" y="-60" type="line"/>
      <point x="-433" y="-224" type="line"/>
      <point x="-289" y="-224" type="line"/>
      <point x="-289" y="-326" type="line"/>
      <point x="-433" y="-326" type="line"/>
      <point x="-433" y="-490" type="line"/>
      <point x="-535" y="-490" type="line"/>
      <point x="-535" y="-60" type="line"/>
    </contour>
  </outline>
</glyph>
<glyph name="anglesupnosp" format="2">
  <unicode hex="031A"/>
  <outline>
    <contour>
      <point x="-125" y="1854" type="line"/>
      <point x="-125" y="1515" type="line"/>
      <point x="-227" y="1515" type="line"/>
      <point x="-227" y="1752" type="line"/>
      <point x="-699" y="1752" type="line"/>
      <point x="-699" y="1854" type="line"/>
    </contour>
  </outline>
</glyph>
<glyph name="tackupsubnosp" format="2">
  <unicode hex="031D"/>
  <outline>
    <contour>
      <point x="-361" y="-177" type="line"/>
      <point x="-361" y="-321" type="line"/>
      <point x="-197" y="-321" type="line"/>
      <point x="-197" y="-423" type="line"/>
      <point x="-627" y="-423" type="line"/>
      <point x="-627" y="-321" type="line"/>
      <point x="-463" y="-321" type="line"/>
      <point x="-463" y="-177" type="line"/>
    </contour>
  </outline>
</glyph>
<glyph name="tackdownsubnosp" format="2">
  <unicode hex="031E"/>
  <outline>
    <contour>
      <point x="-463" y="-423" type="line"/>
      <point x="-463" y="-279" type="line"/>
      <point x="-627" y="-279" type="line"/>
      <point x="-627" y="-177" type="line"/>
      <point x="-197" y="-177" type="line"/>
      <point x="-197" y="-279" type="line"/>
      <point x="-361" y="-279" type="line"/>
      <point x="-361" y="-423" type="line"/>
    </contour>
  </outline>
</glyph>
<glyph name="hooksubpalatnosp" format="2">
  <unicode hex="0321"/>
  <outline>
    <contour>
      <point x="-102" y="82" type="line"/>
      <point x="-102" y="-77" type="line"/>
      <point x="-102" y="-196"/>
      <point x="-139" y="-354"/>
      <point x="-207" y="-450"/>
      <point x="-306" y="-490"/>
      <point x="-368" y="-490" type="qcurve"/>
      <point x="-355" y="-388" type="line"/>
      <point x="-328" y="-388"/>
      <point x="-280" y="-365"/>
      <point x="-244" y="-310"/>
      <point x="-224" y="-220"/>
      <point x="-224" y="-152" type="qcurve"/>
      <point x="-224" y="82" type="line"/>
    </contour>
  </outline>
</glyph>
<glyph name="hooksubretronosp" format="2">
  <unicode hex="0322"/>
  <outline>
    <contour>
      <point x="-102" y="82" type="line"/>
      <point x="-102" y="-183" type="line"/>
      <point x="-102" y="-223"/>
      <point x="-87" y="-297"/>
      <point x="-51" y="-354"/>
      <point x="8" y="-388"/>
      <point x="51" y="-388" type="qcurve"/>
      <point x="36" y="-490" type="line"/>
      <point x="-37" y="-490"/>
      <point x="-136" y="-435"/>
      <point x="-198" y="-330"/>
      <point x="-224" y="-176"/>
      <point x="-224" y="-78" type="qcurve"/>
      <point x="-224" y="82" type="line"/>
    </contour>
  </outline>
</glyph>
<glyph name="dotbelowcomb" format="2">
  <unicode hex="0323"/>
  <outline>
    <contour>
      <point x="-508" y="-327" type="qcurve"/>
      <point x="-508" y="-287"/>
      <point x="-452" y="-231"/>
      <point x="-412" y="-231" type="qcurve"/>
      <point x="-372" y="-231"/>
      <point x="-316" y="-287"/>
      <point x="-316" y="-327" type="qcurve"/>
      <point x="-316" y="-367"/>
      <point x="-372" y="-423"/>
      <point x="-412" y="-423" type="qcurve"/>
      <point x="-452" y="-423"/>
      <point x="-508" y="-367"/>
    </contour>
  </outline>
</glyph>
